<svg xmlns="http://www.w3.org/2000/svg" width="19" height="12" viewBox="0 0 19 12"><path id="242ea" transform="translate(-1236 -3261)" d="M1241.06 3268.2h-2.69v2.41h2.65c2.42 0 2.27-2.41.04-2.41zm-2.69-2.4h2.84c1.99 0 2.3-2.4-.25-2.4h-2.59zm2.75 7.2H1236v-11.98h5.5c4.34.06 4.42 4.35 2.16 5.52 2.74 1.01 2.83 6.45-2.54 6.45zm7.58-5.6h3.93c-.08-1.24-.9-1.78-1.96-1.78-1.16 0-1.8.62-1.97 1.78zm6.08 3.2c-.35 1.04-1.6 2.4-4.04 2.4-2.43 0-4.4-1.38-4.4-4.54 0-3.13 1.84-4.74 4.33-4.74 2.44 0 3.93 1.43 4.25 3.54.06.41.09.96.08 1.72h-6.36a2.13 2.13 0 0 0 3.63 1.62zm-1.36-8h-5.55v-1.6h5.55z"/></svg>