<svg xmlns="http://www.w3.org/2000/svg" xmlns:xlink="http://www.w3.org/1999/xlink" width="36" height="24" viewBox="0 0 36 24"><path transform="translate(-907 -2671)" id="xxqia" d="M925 2682.11a1.5 1.5 0 1 0 0 2.999 1.5 1.5 0 0 0 0-3zm12.045 9.89a3.01 3.01 0 0 1-3.011-3c0-1.655 1.352-3 3.011-3a3.01 3.01 0 0 1 3.012 3c0 1.655-1.352 3-3.012 3zm-5.19-6.025l-1.883-3.233c-.878 6.298-9.059 6.352-9.944 0l-1.884 3.233c-1.148-1.954-3.284-3.051-5.305-2.974.87-1.6 3.243-5.88 3.861-7.005 1.831-3.334 5.325-2.377 8.3 2.504 2.97-4.876 6.466-5.839 8.3-2.503.989 1.798 3.86 7.002 3.861 7.004-2.018-.077-4.156 1.016-5.306 2.974zm-18.9 6.025a3.01 3.01 0 0 1-3.012-3c0-1.655 1.352-3 3.012-3a3.01 3.01 0 0 1 3.011 3c0 1.655-1.352 3-3.011 3zm22.974-17.448c-1.353-2.464-3.458-3.552-5.535-3.552-2.09 0-4.153 1.102-5.394 3.012-1.24-1.91-3.303-3.012-5.394-3.012-2.077 0-4.182 1.088-5.535 3.552-5.608 10.205-7.071 12.533-7.071 14.742 0 3.351 2.952 5.706 5.955 5.706 3.411 0 5.047-2.738 7.128-6.374.884.928 2.898 1.86 4.905 1.86l.012-.001h.012c2.007 0 4.02-.928 4.905-1.856 2.08 3.635 3.717 6.371 7.128 6.371 3.003 0 5.955-2.355 5.955-5.706 0-2.249-1.55-4.695-7.07-14.742z"/></svg>