<svg xmlns="http://www.w3.org/2000/svg" xmlns:xlink="http://www.w3.org/1999/xlink" width="34" height="30" viewBox="0 0 34 30"><path transform="translate(-1337 -2950)" id="nojia" d="M1355.5 2959h-3v3h3zm-3 9v2.86h1.235c0 .665-.465 1.55-1.195 1.825l.298.646c1.58-.312 2.662-1.699 2.662-3.414V2968zm-15-4.761v3.523c2.344 0 4.5 1.967 4.5 4.285 0 3.272-1.922 8.953 9 8.953v-3.003c-7.375 0-5.949-2.4-5.949-5.95 0-3.14-1.816-5.25-3.417-6.047 1.6-.797 3.417-2.156 3.417-4.969 0-3.558-1.41-7.038 5.949-7.028V2950c-10.928 0-9 6.759-9 10.031 0 2.318-2.156 3.208-4.5 3.208zm28.5-3.208c0-3.272 1.928-10.03-9-10.03v3.002c7.36-.01 5.949 3.47 5.949 7.028 0 2.813 1.816 4.172 3.417 4.969-1.6.797-3.417 2.906-3.417 6.047 0 3.55 1.426 5.95-5.949 5.95V2980c10.922 0 9-5.68 9-8.953 0-2.318 2.156-4.285 4.5-4.285v-3.523c-2.344 0-4.5-.89-4.5-3.208z"/></svg>