<svg xmlns="http://www.w3.org/2000/svg" xmlns:xlink="http://www.w3.org/1999/xlink" width="36" height="36" viewBox="0 0 36 36"><path transform="translate(-907 -2947)" id="o6v6a" d="M920.5 2973.849v1.65a1.5 1.5 0 1 1-3 0v-1.65a7.503 7.503 0 0 0 3 0zm12-3v4.65a1.5 1.5 0 1 1-3 0v-4.65a7.477 7.477 0 0 0 3 0zm-15-11.697v-4.652a1.5 1.5 0 1 1 3 0v4.652a7.502 7.502 0 0 0-3 0zm12-3v-1.652a1.5 1.5 0 1 1 3 0v1.652a7.5 7.5 0 0 0-3 0zm-6 10.348a4.5 4.5 0 1 1-9 0 4.5 4.5 0 1 1 9 0zm12-3a4.5 4.5 0 1 1-9 0 4.5 4.5 0 0 1 4.5-4.5 4.5 4.5 0 0 1 4.5 4.5zm-6 0c0 .827.672 1.5 1.5 1.5s1.5-.673 1.5-1.5-.672-1.5-1.5-1.5-1.5.673-1.5 1.5zm13.5 12a7.5 7.5 0 0 1-7.5 7.5h-21a7.5 7.5 0 0 1-7.5-7.5v-21a7.5 7.5 0 0 1 7.5-7.5h21a7.5 7.5 0 0 1 7.5 7.5zm-28.5-25.5a4.505 4.505 0 0 0-4.5 4.5v21c0 2.481 2.019 4.5 4.5 4.5h21c2.481 0 4.5-2.019 4.5-4.5v-21c0-2.482-2.019-4.5-4.5-4.5z"/></svg>