<svg xmlns="http://www.w3.org/2000/svg" xmlns:xlink="http://www.w3.org/1999/xlink" width="32" height="19" viewBox="0 0 32 19"><path transform="translate(-1391 -545)" id="jadna" d="M1412.333 554.5c0 2.999-2.388 5.428-5.333 5.428-2.945 0-5.333-2.43-5.333-5.428 0-2.997 2.388-5.428 5.333-5.428 2.945 0 5.333 2.431 5.333 5.428zm10.667-.61s-5.67 10.11-15.98 10.11c-9.573 0-16.02-10.11-16.02-10.11s5.928-8.89 16.02-8.89c10.259 0 15.98 8.89 15.98 8.89zm-28.617.058c2.064 2.54 6.743 7.338 12.636 7.338 6.389 0 10.805-4.787 12.672-7.28-1.92-2.204-6.337-6.292-12.671-6.292-6.214 0-10.646 3.999-12.637 6.234z"/></svg>