<svg id="Слой_1" data-name="Слой 1" xmlns="http://www.w3.org/2000/svg" width="17.46" height="17.46" viewBox="0 0 17.46 17.46">
  <defs>
    <style>
      .cls-1 {
        fill: #494b4c;
      }
    </style>
  </defs>
  <title>footer_insta_2</title>
  <g>
    <circle class="cls-1" cx="8.73" cy="8.73" r="3.73"/>
    <path class="cls-1" d="M13.46,0H4A4,4,0,0,0,0,4v9.46a4,4,0,0,0,4,4h9.46a4,4,0,0,0,4-4V4A4,4,0,0,0,13.46,0ZM8.73,14A5.23,5.23,0,1,1,14,8.73h0A5.24,5.24,0,0,1,8.73,14Zm5.95-9.88a1.14,1.14,0,1,1,1.14-1.14,1.14,1.14,0,0,1-1.14,1.14Z" transform="translate(0)"/>
  </g>
</svg>
