<svg xmlns="http://www.w3.org/2000/svg"  width="18" height="18" viewBox="0 0 18 18"><path id="pc11a" transform="translate(-1033 -831)" d="M1051 831.935c0-.025-.01-.045-.012-.067.002-.018.012-.034.012-.053a.749.749 0 0 0-.213-.498c-.016-.019-.029-.04-.046-.058-.018-.017-.038-.03-.058-.046a.744.744 0 0 0-.5-.212c-.017 0-.032.008-.05.01-.024-.002-.044-.01-.067-.01h-5.49c-.516 0-.935.365-.935.814 0 .452.419.816.935.816h3.363l-7.305 7.306a.992.992 0 0 0 1.403 1.402l7.331-7.33v3.415c0 .516.366.935.816.935.45 0 .816-.419.816-.935zm-16.364 2.338H1042v-1.636h-7.364c-.903 0-1.636.733-1.636 1.636v13.09c0 .903.733 1.638 1.636 1.638h13.092c.903 0 1.636-.735 1.636-1.638V840h-1.636v7.363h-13.092z"/></svg>