<svg xmlns="http://www.w3.org/2000/svg" width="90" height="90" viewBox="0 0 90 90"><path transform="translate(-234 -316)" id="s3aga" d="M270 322v-6h6v6zm0 12v-6h6v6zm0 12v-6h6v6zm0 36v-6h6v6zm0 12v-6h6v6zm0 12v-6h6v6zm12-84v-6h6v6zm0 12v-6h6v6zm0 12v-6h6v6zm0 36v-6h6v6zm0 12v-6h6v6zm0 12v-6h6v6zm36-48v-6h6v6zm-12 0v-6h6v6zm-12 0v-6h6v6zm-12 0v-6h6v6zm-12 0v-6h6v6zm-12 0v-6h6v6zm-12 0v-6h6v6zm-12 0v-6h6v6zm84 12v-6h6v6zm-12 0v-6h6v6zm-12 0v-6h6v6zm-12 0v-6h6v6zm-12 0v-6h6v6zm-12 0v-6h6v6zm-12 0v-6h6v6zm-12 0v-6h6v6z"/></svg>