<svg xmlns="http://www.w3.org/2000/svg" xmlns:xlink="http://www.w3.org/1999/xlink" width="28" height="36" viewBox="0 0 28 36"><path transform="translate(-1340 -3228)" id="zk7da" d="M1367.5 3261.308c0 .827-.33 1.874-.536 2.692l-6.047-3.892.589-2.298 3.318 2.137-2.644-4.78c.28-1.106.539-2.153.79-3.22l3.969 7.175c.37.67.561 1.425.561 2.186zm-9.029-20.447c-1.177.416-2.656.639-4.471.639-1.818 0-3.281-.235-4.458-.653-.247 4.196 1.089 9.318 2.819 15.653h3.288l.135-.522c1.602-6.227 2.846-11.08 2.687-15.117zm-8.432-3.01c.853.432 2.403.65 3.961.65 1.601 0 3.175-.237 4.01-.692-.639-2.258-1.924-4.193-3.992-5.994-2.024 1.8-3.316 3.767-3.979 6.036zm11.461 3.883c-.053 4.9-1.75 10.764-3.52 17.766h-7.91c-1.85-6.8-3.57-12.703-3.57-17.714 0-5.554 2.266-10.03 7.5-13.786 5.338 3.775 7.56 8.137 7.5 13.734zM1351 3261h6l-.83 3h-4.34zm-4.47-3.19l.588 2.298-6.047 3.892c-.206-.818-.571-1.865-.571-2.692 0-.76.226-1.516.596-2.186l3.968-7.175c.252 1.067.512 2.114.792 3.22l-2.645 4.78z"/></svg>