<svg xmlns="http://www.w3.org/2000/svg" xmlns:xlink="http://www.w3.org/1999/xlink" width="36" height="30" viewBox="0 0 36 30"><path transform="translate(-479 -2668)" id="g9a3a" d="M508.936 2684.287C508.28 2691.967 501.85 2698 494 2698c-8.285 0-15-6.716-15-15 0-8.285 6.715-15 15-15 2.246 0 4.368.507 6.28 1.39.423.954.283 2.391-.218 3.27A11.92 11.92 0 0 0 494 2671c-6.617 0-12 5.383-12 12s5.383 12 12 12 12-5.383 12-12c0-.045-.006-.089-.007-.133 1.343-.172 2.491.696 2.943 1.42zm-13.468-3.889l5.074-2.946c1.456-.847 2.452-3.27 2.558-4.951l7.416-4.307-.253 5.448 4.737 2.354-7.396 4.295c-1.51-.744-4.103-1.086-5.566-.239l-5.04 2.925.002.023a3 3 0 1 1-6 0 3 3 0 0 1 3-3c.536 0 1.033.152 1.468.398zM488 2683c0 3.308 2.691 6 6 6 2.641 0 4.863-1.726 5.663-4.102l3.336-1.935.001.037a9 9 0 0 1-9 9 9 9 0 0 1-9-9c0-4.971 4.028-9 9-9 1.626 0 3.146.437 4.462 1.191l-3.315 1.925A6.053 6.053 0 0 0 494 2677c-3.309 0-6 2.692-6 6z"/></svg>