<svg xmlns="http://www.w3.org/2000/svg" width="24" height="14" viewBox="0 0 24 14"><path id="mkjpa" transform="translate(-675 -572)" d="M691 579a4 4 0 1 1-8 0 4 4 0 0 1 8 0zm-6 0c0 1.103.897 2 2 2s2-.897 2-2-.897-2-2-2-2 .897-2 2zm14-.449S694.748 586 687.015 586c-7.18 0-12.015-7.449-12.015-7.449s4.446-6.55 12.015-6.55c7.694 0 11.985 6.55 11.985 6.55zm-21.463.042c1.548 1.872 5.058 5.408 9.478 5.408 4.79 0 8.103-3.528 9.504-5.364-1.44-1.625-4.753-4.637-9.504-4.637-4.66 0-7.985 2.946-9.478 4.593z"/></svg>