<svg xmlns="http://www.w3.org/2000/svg" width="22" height="13" viewBox="0 0 22 13"><path id="jdw7a" transform="translate(-1153 -3260)" d="M1172.6 3268.96c-1.55-1.43-1.62-1.46-.3-3.18 1.66-2.13 3.82-4.87 1.9-4.87h-3.64c-.71 0-.76.4-1.01 1-.91 2.13-2.65 4.9-3.3 4.48-.7-.44-.38-2.2-.33-4.8.02-.69.01-1.16-1.04-1.4a7.38 7.38 0 0 0-1.66-.19c-2.09 0-3.52.87-2.7 1.02 1.43.27 1.3 3.37.96 4.7-.58 2.34-2.78-1.84-3.7-3.92-.22-.5-.29-.89-1.08-.89h-2.98c-.45 0-.72.15-.72.47 0 .55 2.71 6.13 5.3 8.92 2.53 2.71 5.03 2.47 6.76 2.47.56 0 .8-.37.78-.84-.02-1.75.66-2.69 1.9-1.46 1.36 1.36 1.64 2.3 3.3 2.3h2.93c.74 0 1.03-.24 1.03-.61 0-.8-1.3-2.18-2.4-3.2z"/></svg>