<svg id="Слой_1" data-name="Слой 1" xmlns="http://www.w3.org/2000/svg" width="60" height="60" viewBox="0 0 60 60"><defs><style>.cls-1{fill:#0081cb}</style></defs><title>prototip</title><path class="cls-1" d="M0 0v60h60V0zm57 57H3V3h54z"/><path class="cls-1" d="M52 20.5h-3V25h-4.5v3H52v-7.5zM25.83 25h9.33v3h-9.33zm-9.33 0H12v-4.5H9V28h7.5v-3zM12 12h4.5V9H9v7.5h3V12zm13.83-3h9.33v3h-9.33zM49 16.5h3V9h-7.5v3H49v4.5zm-22 28h-3V49h-4.5v3H27v-7.5zM16.5 49H12v-4.5H9V52h7.5v-3zM12 36h4.5v-3H9v7.5h3V36zm12 4.5h3V33h-7.5v3H24v4.5zm8-7.5h20v3H32zm0 8h20v3H32zm0 8h20v3H32z"/></svg>