<svg id="Слой_1" data-name="Слой 1" xmlns="http://www.w3.org/2000/svg" width="60" height="60" viewBox="0 0 60 60"><defs><style>.cls-1{fill:#0081cb}</style></defs><title>crm</title><circle class="cls-1" cx="8.6" cy="7.3" r="1.6"/><circle class="cls-1" cx="15" cy="7.3" r="1.6"/><circle class="cls-1" cx="21.4" cy="7.3" r="1.6"/><path class="cls-1" d="M0 0v60h60V0zm3 57V15h16v42zm54 0H22V15h35zM22 12H3V3h54v9z"/><path class="cls-1" d="M6.75 20h8.5v3h-8.5zm0 7h8.5v3h-8.5zm0 7h8.5v3h-8.5zm0 7h8.5v3h-8.5zm0 7h8.5v3h-8.5zM26 20h28v3H26zm0 7h19v3H26zm0 7h28v3H26zm0 7h28v3H26zm0 7h19v3H26z"/></svg>