<svg id="Слой_1" data-name="Слой 1" xmlns="http://www.w3.org/2000/svg" width="47" height="57.09" viewBox="0 0 47 57.09"><defs><style>.cls-1{fill:#0081cb}</style></defs><title>strategi</title><path class="cls-1" d="M38.5 29.17h-19a10 10 0 1 1 0-20h13.75l-2.77 2.77 2.12 2.12 6.3-6.3-6.3-6.3-2.12 2.12 2.6 2.6H19.5a13 13 0 1 0 0 26h19a10 10 0 0 1 0 20h-17v3h17a13 13 0 0 0 0-26z" transform="translate(-6.5 -1.46)"/><path class="cls-1" d="M8.22 47.19l-2.83 2.83-2.83-2.83-2.12 2.12 2.83 2.83-2.83 2.83 2.12 2.12 2.83-2.83 2.83 2.83 2.12-2.12-2.83-2.83 2.83-2.83-2.12-2.12z"/><path class="cls-1" d="M48 2.17a5.5 5.5 0 1 0 5.5 5.5 5.51 5.51 0 0 0-5.5-5.5zm0 8a2.5 2.5 0 1 1 2.5-2.5 2.5 2.5 0 0 1-2.5 2.5z" transform="translate(-6.5 -1.46)"/></svg>