<svg xmlns="http://www.w3.org/2000/svg" xmlns:xlink="http://www.w3.org/1999/xlink" width="35" height="35" viewBox="0 0 35 35"><defs><path id="a" d="M420.703 655c9.553 0 17.297 7.835 17.297 17.5s-7.744 17.5-17.297 17.5-17.297-7.835-17.297-17.5 7.744-17.5 17.297-17.5z"/><path id="b" d="M416.987 672.52h-2.313v2.05h2.278c2.084 0 1.956-2.05.035-2.05zm-2.313-2.04h2.444c1.71 0 1.982-2.04-.213-2.04h-2.231zm2.363 6.112h-4.41v-10.177h4.742c3.735.054 3.806 3.702 1.855 4.696 2.361.856 2.44 5.481-2.187 5.481zm6.53-4.752h3.386c-.072-1.052-.774-1.509-1.69-1.509-.999 0-1.552.522-1.696 1.51zm5.242 2.72c-.302.882-1.384 2.04-3.479 2.04-2.096 0-3.795-1.175-3.795-3.859 0-2.658 1.586-4.026 3.728-4.026 2.102 0 3.386 1.212 3.666 3.01.053.344.074.808.064 1.455h-5.474c.088 2.184 2.375 2.252 3.129 1.38zm-1.177-6.8h-4.774v-1.36h4.774z"/></defs><use fill="#3467b0" xlink:href="#a" transform="translate(-403 -655)"/><use fill="#fff" xlink:href="#b" transform="translate(-403 -655)"/></svg>