<svg id="Слой_1" data-name="Слой 1" xmlns="http://www.w3.org/2000/svg" width="59" height="60.11" viewBox="0 0 59 60.11"><defs><style>.cls-1{fill:#0081cb}</style></defs><title>photo video</title><path class="cls-1" d="M38 22.61V0H.5v37.5H22v22.61h37.5v-37.5zM22 28H9.47l7.77-14.89 4.52 7L26 16.76l3.39 5.74H22V28zM3.5 34.5V3H35v19.5h-2.1l-6-10.2-4.4 3.41L17 7.16 4.53 31H22v3.5zm53 22.61H25v-31.5h31.5z" transform="translate(-.5)"/><circle class="cls-1" cx="24.75" cy="7.76" r="1.75"/><path class="cls-1" d="M37 33.56v15.61l11.19-7.8zm3 5.75l2.95 2.05L40 43.42z" transform="translate(-.5)"/></svg>