<svg id="Слой_1" data-name="Слой 1" xmlns="http://www.w3.org/2000/svg" width="60.49" height="60" viewBox="0 0 60.49 60"><defs><style>.cls-1{fill:#0081cb}</style></defs><title>brand</title><path class="cls-1" d="M60 28.5v-18H47V0H-.5v60H53V31h-6v-2.5zm-3-3H36.34v-12H57zM50 57H16V34h34zm-6-26H13v26H2.5V3H44v7.5H33.34v18H44z" transform="translate(.5)"/><path class="cls-1" d="M10.5 6.25a4.5 4.5 0 1 0 4.5 4.5 4.5 4.5 0 0 0-4.5-4.5zm0 6a1.5 1.5 0 1 1 1.5-1.5 1.5 1.5 0 0 1-1.5 1.5z" transform="translate(.5)"/><path class="cls-1" d="M18 6.75h12.5v3H18zm0 5h7.5v3H18z"/><path class="cls-1" d="M23.5 46.25a4.5 4.5 0 1 0-4.5-4.5 4.5 4.5 0 0 0 4.5 4.5zm0-6a1.5 1.5 0 1 1-1.5 1.5 1.5 1.5 0 0 1 1.5-1.5z" transform="translate(.5)"/><path class="cls-1" d="M31 37.75h12.5v3H31zm0 5h7.5v3H31z"/><path class="cls-1" d="M46.66 24a4.5 4.5 0 1 0-4.5-4.5 4.5 4.5 0 0 0 4.5 4.5zm0-6a1.5 1.5 0 1 1-1.5 1.5 1.5 1.5 0 0 1 1.5-1.5z" transform="translate(.5)"/></svg>