<svg id="Слой_1" data-name="Слой 1" xmlns="http://www.w3.org/2000/svg" width="63" height="63" viewBox="0 0 63 63"><defs><style>.cls-1{fill:#0081cb}</style></defs><title>logo</title><path class="cls-1" d="M15.15 47.16l5.92-12.06h17.86l5.92 12.06 2.69-1.32-16.2-33h-2.69l-16.2 33zM30 16.91l7.46 15.19H22.54zM52.5-1.5v9h9v-9zm6 6h-3v-3h3zm-60 57h9v-9h-9zm3-6h3v3h-3zm51 6h9v-9h-9zm3-6h3v3h-3z" transform="translate(1.5 1.5)"/><path class="cls-1" d="M12.83 57h5.33v3h-5.33zm10.67 0h5.33v3H23.5zm10.67 0h5.33v3h-5.33zm10.66 0h5.33v3h-5.33zM3 23.5h3v5.33H3zm0-10.67h3v5.33H3zm0 21.34h3v5.33H3zm0 10.66h3v5.33H3zM44.83 3h5.33v3h-5.33zM34.17 3h5.33v3h-5.33zM12.83 3h5.33v3h-5.33zM23.5 3h5.33v3H23.5zM57 34.17h3v5.33h-3zm0-21.34h3v5.33h-3zm0 32h3v5.33h-3zm0-21.33h3v5.33h-3z"/><path class="cls-1" d="M-1.5 7.5h9v-9h-9zm3-6h3v3h-3z" transform="translate(1.5 1.5)"/></svg>