<svg id="Слой_1" data-name="Слой 1" xmlns="http://www.w3.org/2000/svg" width="34.33" height="41" viewBox="0 0 34.33 41"><defs><style>.cls-1{fill:#ccc}.cls-2{fill:#e2e2e2}.cls-3{fill:#fff}</style></defs><title>file_pdf</title><path class="cls-1" d="M24.72 0H0v41h34.33V9.61L24.72 0z"/><path class="cls-2" d="M34.33 9.61L24.72 0h-.05v9.67h9.66v-.06z"/><path class="cls-3" d="M7.21 27.32v-7.7h3.4a2.7 2.7 0 0 1 2.76 2.89 2.69 2.69 0 0 1-2.76 2.82H9.22v2zm3.4-3.74c.53 0 .84-.56.84-1.12s-.29-1.09-.84-1.09H9.19v2.21zm7.05-3.94a3.67 3.67 0 0 1 3.8 3.81 3.66 3.66 0 0 1-3.8 3.88h-2.94v-7.69zm0 5.88a1.86 1.86 0 0 0 1.8-2 1.86 1.86 0 0 0-1.8-2h-.9v4.07zm9.8-.67H25v2.49h-2v-7.7h4.81v1.75H25v1.71h2.46z" transform="translate(-.33)"/></svg>