<svg id="Слой_1" data-name="Слой 1" xmlns="http://www.w3.org/2000/svg" width="34.33" height="41" viewBox="0 0 34.33 41"><defs><style>.cls-1{fill:#494b4c}.cls-2{fill:#5b5d5e}.cls-3{fill:#979696}</style></defs><title>file_pdf_black</title><path class="cls-1" d="M24.72 0H0v41h34.33V9.61L24.72 0z"/><path class="cls-2" d="M34.33 9.61L24.72 0h-.05v9.67h9.66v-.06z"/><path class="cls-3" d="M6.88 27.32v-7.7h3.4A2.7 2.7 0 0 1 13 22.25v.26a2.69 2.69 0 0 1-2.56 2.82H8.89v2zm3.4-3.74c.53 0 .84-.56.84-1.12s-.29-1.09-.84-1.09H8.86v2.21zm7.05-3.94a3.67 3.67 0 0 1 3.8 3.53v.28a3.66 3.66 0 0 1-3.43 3.88h-3.31v-7.69zm0 5.88a1.86 1.86 0 0 0 1.8-1.91v-.09a1.86 1.86 0 0 0-1.71-2h-1v4.07zm9.8-.67h-2.46v2.49h-2v-7.7h4.81v1.75h-2.81v1.71h2.46z"/></svg>