<svg id="Слой_1" data-name="Слой 1" xmlns="http://www.w3.org/2000/svg" width="60" height="60" viewBox="0 0 60 60"><defs><style>.cls-1{fill:#0081cb}</style></defs><title>corporate</title><circle class="cls-1" cx="8.6" cy="7.3" r="1.6"/><circle class="cls-1" cx="15" cy="7.3" r="1.6"/><circle class="cls-1" cx="21.4" cy="7.3" r="1.6"/><path class="cls-1" d="M0 0v60h60V0zm57 57H3V3h54z"/><path class="cls-1" d="M9.22 33.22a4.75 4.75 0 0 1 9.49 0v10.94h3v-3A8.29 8.29 0 0 1 38.29 41v3.16h3V33.22a4.75 4.75 0 0 1 9.49 0v1.94h3v-1.94a7.74 7.74 0 0 0-3.83-6.67 5.25 5.25 0 1 0-7.83 0 7.74 7.74 0 0 0-3.83 6.67v.26a11.38 11.38 0 0 0-3.55-2.6 7.37 7.37 0 1 0-9.47 0 11.38 11.38 0 0 0-3.56 2.6v-.26a7.74 7.74 0 0 0-3.83-6.67 5.25 5.25 0 1 0-7.83 0 7.74 7.74 0 0 0-3.83 6.67v1.94h3zM46 20.84a2.25 2.25 0 1 1-2.25 2.25A2.25 2.25 0 0 1 46 20.84zm-16 0a4.37 4.37 0 1 1-4.37 4.37A4.38 4.38 0 0 1 30 20.86zm-16 0a2.25 2.25 0 1 1-2.25 2.25A2.25 2.25 0 0 1 14 20.84z"/></svg>