<svg id="Слой_1" data-name="Слой 1" xmlns="http://www.w3.org/2000/svg" width="60.33" height="60" viewBox="0 0 60.33 60"><defs><style>.cls-1{fill:#0081cb}</style></defs><title>service</title><path class="cls-1" d="M48 11.7V0H-.33v48.3h12V60H60V11.7zM2.67 3H45v42.3H2.67zM57 57H14.7v-8.7H48V14.7h9z" transform="translate(.33)"/><path class="cls-1" d="M18.83 22.5a4.49 4.49 0 0 0-4.22 3h-4.28v3h4.27a4.47 4.47 0 0 0 8.45 0h14.28v-3H23a4.49 4.49 0 0 0-4.17-3zm0 6a1.5 1.5 0 1 1 1.5-1.5 1.5 1.5 0 0 1-1.5 1.5zm10 4a4.49 4.49 0 0 0-4.22 3H10.33v3H24.6a4.47 4.47 0 0 0 8.45 0h4.28v-3H33a4.49 4.49 0 0 0-4.17-3zm0 6a1.5 1.5 0 1 1 1.5-1.5 1.5 1.5 0 0 1-1.5 1.5z" transform="translate(.33)"/><path class="cls-1" d="M10.65 13.05h3V19h-3zm8-6.55h3V19h-3zm8 3.57h3V19h-3zm8 2.98h3V19h-3z"/></svg>