<svg xmlns="http://www.w3.org/2000/svg"><symbol id="icon_arrow" viewBox="0 0 20 18"><path id="7liwa" transform="translate(-406 -1367)" d="M416.71 1367.48l-2.23 2.19 4.85 4.77h-12.84v3.09h12.84l-4.85 4.77 2.23 2.18 8.62-8.5z"/><use/></symbol><symbol id="icon_behance" viewBox="0 0 19 12"><path id="242ea" transform="translate(-1236 -3261)" d="M1241.06 3268.2h-2.69v2.41h2.65c2.42 0 2.27-2.41.04-2.41zm-2.69-2.4h2.84c1.99 0 2.3-2.4-.25-2.4h-2.59zm2.75 7.2H1236v-11.98h5.5c4.34.06 4.42 4.35 2.16 5.52 2.74 1.01 2.83 6.45-2.54 6.45zm7.58-5.6h3.93c-.08-1.24-.9-1.78-1.96-1.78-1.16 0-1.8.62-1.97 1.78zm6.08 3.2c-.35 1.04-1.6 2.4-4.04 2.4-2.43 0-4.4-1.38-4.4-4.54 0-3.13 1.84-4.74 4.33-4.74 2.44 0 3.93 1.43 4.25 3.54.06.41.09.96.08 1.72h-6.36a2.13 2.13 0 0 0 3.63 1.62zm-1.36-8h-5.55v-1.6h5.55z"/></symbol><symbol id="icon_facebook" viewBox="0 0 8 17"><path id="52lda" transform="translate(-1487 -3259)" d="M1489 3264.67h-2v2.83h2v8.5h3.33v-8.5h2.43l.24-2.83h-2.67v-1.18c0-.68.13-.95.75-.95h1.92V3259h-2.54c-2.4 0-3.46 1.12-3.46 3.27v2.4z"/></symbol><symbol id="icon_instagram" viewBox="0 0 22 22"><path d="M256 227.5c-15.7 0-28.5 12.8-28.5 28.5s12.8 28.5 28.5 28.5 28.5-12.8 28.5-28.5-12.8-28.5-28.5-28.5z"/><path d="M322.2 154.8H189.8c-19.3 0-35 15.7-35 35v132.5c0 19.3 15.7 35 35 35h132.5c19.3 0 35-15.7 35-35V189.8c-.1-19.3-15.8-35-35.1-35zM256 314.5c-32.2 0-58.5-26.2-58.5-58.5s26.2-58.5 58.5-58.5 58.5 26.2 58.5 58.5-26.3 58.5-58.5 58.5zm79.9-123.9c0 8-6.5 14.5-14.5 14.5s-14.5-6.5-14.5-14.5 6.5-14.5 14.5-14.5 14.5 6.5 14.5 14.5z"/></symbol><symbol id="icon_open_link" viewBox="0 0 18 18"><path id="pc11a" transform="translate(-1033 -831)" d="M1051 831.935c0-.025-.01-.045-.012-.067.002-.018.012-.034.012-.053a.749.749 0 0 0-.213-.498c-.016-.019-.029-.04-.046-.058-.018-.017-.038-.03-.058-.046a.744.744 0 0 0-.5-.212c-.017 0-.032.008-.05.01-.024-.002-.044-.01-.067-.01h-5.49c-.516 0-.935.365-.935.814 0 .452.419.816.935.816h3.363l-7.305 7.306a.992.992 0 0 0 1.403 1.402l7.331-7.33v3.415c0 .516.366.935.816.935.45 0 .816-.419.816-.935zm-16.364 2.338H1042v-1.636h-7.364c-.903 0-1.636.733-1.636 1.636v13.09c0 .903.733 1.638 1.636 1.638h13.092c.903 0 1.636-.735 1.636-1.638V840h-1.636v7.363h-13.092z"/></symbol><symbol id="icon_plus" viewBox="0 0 90 90"><path transform="translate(-234 -316)" id="s3aga" d="M270 322v-6h6v6zm0 12v-6h6v6zm0 12v-6h6v6zm0 36v-6h6v6zm0 12v-6h6v6zm0 12v-6h6v6zm12-84v-6h6v6zm0 12v-6h6v6zm0 12v-6h6v6zm0 36v-6h6v6zm0 12v-6h6v6zm0 12v-6h6v6zm36-48v-6h6v6zm-12 0v-6h6v6zm-12 0v-6h6v6zm-12 0v-6h6v6zm-12 0v-6h6v6zm-12 0v-6h6v6zm-12 0v-6h6v6zm-12 0v-6h6v6zm84 12v-6h6v6zm-12 0v-6h6v6zm-12 0v-6h6v6zm-12 0v-6h6v6zm-12 0v-6h6v6zm-12 0v-6h6v6zm-12 0v-6h6v6zm-12 0v-6h6v6z"/></symbol><symbol id="icon_star" viewBox="0 0 39 37"><path fill-rule="evenodd" d="M19.5 2.501l5.603 10.056 11.395 2.166-7.933 8.382 1.44 11.394L19.5 29.623 8.995 34.499l1.439-11.394-7.932-8.382 11.395-2.166L19.5 2.501"/></symbol><symbol id="icon_telegram" viewBox="0 0 15 16"><path id="kvfxa" transform="translate(-1565 -3261)" d="M1570.63 3272.11v4.89l2.03-2.95zM1565 3269l4.5 1.17 6.55-4.82-4.88 5.5 5.08 4.82L1580 3261z"/></symbol><symbol id="icon_vk" viewBox="0 0 22 13"><path id="jdw7a" transform="translate(-1153 -3260)" d="M1172.6 3268.96c-1.55-1.43-1.62-1.46-.3-3.18 1.66-2.13 3.82-4.87 1.9-4.87h-3.64c-.71 0-.76.4-1.01 1-.91 2.13-2.65 4.9-3.3 4.48-.7-.44-.38-2.2-.33-4.8.02-.69.01-1.16-1.04-1.4a7.38 7.38 0 0 0-1.66-.19c-2.09 0-3.52.87-2.7 1.02 1.43.27 1.3 3.37.96 4.7-.58 2.34-2.78-1.84-3.7-3.92-.22-.5-.29-.89-1.08-.89h-2.98c-.45 0-.72.15-.72.47 0 .55 2.71 6.13 5.3 8.92 2.53 2.71 5.03 2.47 6.76 2.47.56 0 .8-.37.78-.84-.02-1.75.66-2.69 1.9-1.46 1.36 1.36 1.64 2.3 3.3 2.3h2.93c.74 0 1.03-.24 1.03-.61 0-.8-1.3-2.18-2.4-3.2z"/></symbol><symbol id="icon_youtube" viewBox="0 0 18 14"><path id="yqs4a" transform="translate(-1318 -3260)" d="M1324.75 3270v-6l6 3zm7.96-9.61c-2.7-.19-8.72-.19-11.42 0-2.92.2-3.27 1.96-3.29 6.61.02 4.64.36 6.41 3.29 6.61 2.7.19 8.72.19 11.42 0 2.92-.2 3.27-1.96 3.29-6.61-.02-4.64-.36-6.41-3.29-6.61z"/></symbol></svg>