<svg xmlns="http://www.w3.org/2000/svg"><symbol id="icon_plus" viewBox="0 0 90 90"><path transform="translate(-234 -316)" id="s3aga" d="M270 322v-6h6v6zm0 12v-6h6v6zm0 12v-6h6v6zm0 36v-6h6v6zm0 12v-6h6v6zm0 12v-6h6v6zm12-84v-6h6v6zm0 12v-6h6v6zm0 12v-6h6v6zm0 36v-6h6v6zm0 12v-6h6v6zm0 12v-6h6v6zm36-48v-6h6v6zm-12 0v-6h6v6zm-12 0v-6h6v6zm-12 0v-6h6v6zm-12 0v-6h6v6zm-12 0v-6h6v6zm-12 0v-6h6v6zm-12 0v-6h6v6zm84 12v-6h6v6zm-12 0v-6h6v6zm-12 0v-6h6v6zm-12 0v-6h6v6zm-12 0v-6h6v6zm-12 0v-6h6v6zm-12 0v-6h6v6zm-12 0v-6h6v6z"/></symbol><symbol id="icon_star" viewBox="0 0 39 37"><path fill-rule="evenodd" d="M19.5 2.501l5.603 10.056 11.395 2.166-7.933 8.382 1.44 11.394L19.5 29.623 8.995 34.499l1.439-11.394-7.932-8.382 11.395-2.166L19.5 2.501"/></symbol></svg>