<svg id="Слой_1" data-name="Слой 1" xmlns="http://www.w3.org/2000/svg" width="60" height="60" viewBox="0 0 60 60"><defs><style>.cls-1{fill:#0081cb}</style></defs><title>shop</title><circle class="cls-1" cx="8.6" cy="7.3" r="1.6"/><circle class="cls-1" cx="15" cy="7.3" r="1.6"/><circle class="cls-1" cx="21.4" cy="7.3" r="1.6"/><path class="cls-1" d="M0 0v60h60V0zm57 57H3V3h54z"/><path class="cls-1" d="M10.78 38.72h18V25.84h3.94v-8.72H21.58l-.13 1.35a1.66 1.66 0 0 1-3.3 0L18 17.12H6.84v8.72h3.94zm-.94-15.88v-2.72h5.65a4.66 4.66 0 0 0 8.59 0h5.65v2.72H25.8v12.88h-12V22.84zm28.56-5.72H53v3H38.4zm0 5.58H53v3H38.4zm0 5.58h7.3v3h-7.3zm3.43 23.02h6a4.08 4.08 0 0 0 0-8.15h-6a4.08 4.08 0 0 0 0 8.15zm0-5.15h6a1.08 1.08 0 0 1 0 2.15h-6a1.08 1.08 0 0 1 0-2.15z"/></svg>