<svg xmlns="http://www.w3.org/2000/svg"><symbol id="icon_apple" viewBox="0 0 305 305"><g id="XMLID_228_"><path id="XMLID_229_" d="M40.738 112.119c-25.785 44.745-9.393 112.648 19.121 153.82C74.092 286.523 88.502 305 108.239 305c.372 0 .745-.007 1.127-.022 9.273-.37 15.974-3.225 22.453-5.984 7.274-3.1 14.797-6.305 26.597-6.305 11.226 0 18.39 3.101 25.318 6.099 6.828 2.954 13.861 6.01 24.253 5.815 22.232-.414 35.882-20.352 47.925-37.941 12.567-18.365 18.871-36.196 20.998-43.01l.086-.271a2.5 2.5 0 0 0-1.328-3.066c-.032-.015-.15-.064-.183-.078-3.915-1.601-38.257-16.836-38.618-58.36-.335-33.736 25.763-51.601 30.997-54.839l.244-.152a2.498 2.498 0 0 0 .71-3.511c-18.014-26.362-45.624-30.335-56.74-30.813a50.043 50.043 0 0 0-4.95-.242c-13.056 0-25.563 4.931-35.611 8.893-6.936 2.735-12.927 5.097-17.059 5.097-4.643 0-10.668-2.391-17.645-5.159-9.33-3.703-19.905-7.899-31.1-7.899-.267 0-.53.003-.789.008-26.03.383-50.626 15.275-64.186 38.859z"/><path id="XMLID_230_" d="M212.101.002c-15.763.642-34.672 10.345-45.974 23.583-9.605 11.127-18.988 29.679-16.516 48.379a2.499 2.499 0 0 0 2.284 2.164c1.064.083 2.15.125 3.232.126 15.413 0 32.04-8.527 43.395-22.257 11.951-14.498 17.994-33.104 16.166-49.77a2.515 2.515 0 0 0-2.587-2.225z"/></g></symbol><symbol id="icon_arrow-left2" viewBox="0 0 19 17"><path transform="translate(-1652 -948)" id="y6k6a" d="M1660.615 948l2.235 2.185-4.848 4.773h12.837v3.084h-12.837l4.848 4.773-2.235 2.185-8.615-8.5z"/></symbol><symbol id="icon_arrow-next" viewBox="0 0 19 17"><path transform="translate(-428 -627)" id="wyara" d="M438.385 627l-2.235 2.185 4.848 4.773h-12.837v3.084h12.837l-4.848 4.773 2.235 2.185 8.615-8.5z"/></symbol><symbol id="icon_arrow-prev" viewBox="0 0 19 17"><path transform="translate(-33 -627)" id="jbhwa" d="M41.615 627l2.235 2.185-4.848 4.773h12.837v3.084H39.002l4.848 4.773L41.615 644 33 635.5z"/></symbol><symbol id="icon_arrow" viewBox="0 0 20 18"><path id="7liwa" transform="translate(-406 -1367)" d="M416.71 1367.48l-2.23 2.19 4.85 4.77h-12.84v3.09h12.84l-4.85 4.77 2.23 2.18 8.62-8.5z"/><use/></symbol><symbol id="icon_arrow_left" viewBox="0 0 19 17"><path id="9fz3a" transform="translate(-23 -159)" d="M31.615 159l2.235 2.186-4.848 4.772h12.837v3.085H29.002l4.848 4.772L31.615 176 23 167.5z"/></symbol><symbol id="icon_arrow_right" viewBox="0 0 19 17"><path id="59fca" transform="translate(-1879 -159)" d="M1889.385 159l-2.235 2.186 4.848 4.772h-12.837v3.085h12.837l-4.848 4.772 2.235 2.185 8.615-8.5z"/></symbol><symbol id="icon_behance" viewBox="0 0 19 12"><path id="242ea" transform="translate(-1236 -3261)" d="M1241.06 3268.2h-2.69v2.41h2.65c2.42 0 2.27-2.41.04-2.41zm-2.69-2.4h2.84c1.99 0 2.3-2.4-.25-2.4h-2.59zm2.75 7.2H1236v-11.98h5.5c4.34.06 4.42 4.35 2.16 5.52 2.74 1.01 2.83 6.45-2.54 6.45zm7.58-5.6h3.93c-.08-1.24-.9-1.78-1.96-1.78-1.16 0-1.8.62-1.97 1.78zm6.08 3.2c-.35 1.04-1.6 2.4-4.04 2.4-2.43 0-4.4-1.38-4.4-4.54 0-3.13 1.84-4.74 4.33-4.74 2.44 0 3.93 1.43 4.25 3.54.06.41.09.96.08 1.72h-6.36a2.13 2.13 0 0 0 3.63 1.62zm-1.36-8h-5.55v-1.6h5.55z"/></symbol><symbol id="icon_binoculars" viewBox="0 0 36 24"><path transform="translate(-907 -2671)" id="xxqia" d="M925 2682.11a1.5 1.5 0 1 0 0 2.999 1.5 1.5 0 0 0 0-3zm12.045 9.89a3.01 3.01 0 0 1-3.011-3c0-1.655 1.352-3 3.011-3a3.01 3.01 0 0 1 3.012 3c0 1.655-1.352 3-3.012 3zm-5.19-6.025l-1.883-3.233c-.878 6.298-9.059 6.352-9.944 0l-1.884 3.233c-1.148-1.954-3.284-3.051-5.305-2.974.87-1.6 3.243-5.88 3.861-7.005 1.831-3.334 5.325-2.377 8.3 2.504 2.97-4.876 6.466-5.839 8.3-2.503.989 1.798 3.86 7.002 3.861 7.004-2.018-.077-4.156 1.016-5.306 2.974zm-18.9 6.025a3.01 3.01 0 0 1-3.012-3c0-1.655 1.352-3 3.012-3a3.01 3.01 0 0 1 3.011 3c0 1.655-1.352 3-3.011 3zm22.974-17.448c-1.353-2.464-3.458-3.552-5.535-3.552-2.09 0-4.153 1.102-5.394 3.012-1.24-1.91-3.303-3.012-5.394-3.012-2.077 0-4.182 1.088-5.535 3.552-5.608 10.205-7.071 12.533-7.071 14.742 0 3.351 2.952 5.706 5.955 5.706 3.411 0 5.047-2.738 7.128-6.374.884.928 2.898 1.86 4.905 1.86l.012-.001h.012c2.007 0 4.02-.928 4.905-1.856 2.08 3.635 3.717 6.371 7.128 6.371 3.003 0 5.955-2.355 5.955-5.706 0-2.249-1.55-4.695-7.07-14.742z"/></symbol><symbol id="icon_code-2" viewBox="0 0 34 30"><path transform="translate(-1337 -2950)" id="nojia" d="M1355.5 2959h-3v3h3zm-3 9v2.86h1.235c0 .665-.465 1.55-1.195 1.825l.298.646c1.58-.312 2.662-1.699 2.662-3.414V2968zm-15-4.761v3.523c2.344 0 4.5 1.967 4.5 4.285 0 3.272-1.922 8.953 9 8.953v-3.003c-7.375 0-5.949-2.4-5.949-5.95 0-3.14-1.816-5.25-3.417-6.047 1.6-.797 3.417-2.156 3.417-4.969 0-3.558-1.41-7.038 5.949-7.028V2950c-10.928 0-9 6.759-9 10.031 0 2.318-2.156 3.208-4.5 3.208zm28.5-3.208c0-3.272 1.928-10.03-9-10.03v3.002c7.36-.01 5.949 3.47 5.949 7.028 0 2.813 1.816 4.172 3.417 4.969-1.6.797-3.417 2.906-3.417 6.047 0 3.55 1.426 5.95-5.949 5.95V2980c10.922 0 9-5.68 9-8.953 0-2.318 2.156-4.285 4.5-4.285v-3.523c-2.344 0-4.5-.89-4.5-3.208z"/></symbol><symbol id="icon_code" viewBox="0 0 36 36"><path transform="translate(-477 -2947)" id="727ga" d="M505.5 2963.402v3.196l-9 4.402v-3.306l5.46-2.694-5.46-2.701V2959zm-12 7.598l-9-4.402v-3.196l9-4.402v3.299l-5.46 2.7 5.46 2.695zm19.5-6c0 9.941-8.06 18-18 18s-18-8.059-18-18 8.06-18 18-18 18 8.059 18 18zm-33 0c0 8.271 6.73 15 15 15s15-6.729 15-15-6.73-15-15-15-15 6.729-15 15z"/></symbol><symbol id="icon_comment" viewBox="0 0 24 22"><path id="dc2da" transform="translate(-1331 -726)" d="M1355 742.981h-13l-7 5.019v-5.019h-4V726h24zM1333 728v13h4v3.105l4.357-3.105H1353v-13z"/></symbol><symbol id="icon_control" viewBox="0 0 36 36"><path transform="translate(-907 -2947)" id="o6v6a" d="M920.5 2973.849v1.65a1.5 1.5 0 1 1-3 0v-1.65a7.503 7.503 0 0 0 3 0zm12-3v4.65a1.5 1.5 0 1 1-3 0v-4.65a7.477 7.477 0 0 0 3 0zm-15-11.697v-4.652a1.5 1.5 0 1 1 3 0v4.652a7.502 7.502 0 0 0-3 0zm12-3v-1.652a1.5 1.5 0 1 1 3 0v1.652a7.5 7.5 0 0 0-3 0zm-6 10.348a4.5 4.5 0 1 1-9 0 4.5 4.5 0 1 1 9 0zm12-3a4.5 4.5 0 1 1-9 0 4.5 4.5 0 0 1 4.5-4.5 4.5 4.5 0 0 1 4.5 4.5zm-6 0a1.501 1.501 0 0 0 3 0 1.501 1.501 0 0 0-3 0zm13.5 12a7.5 7.5 0 0 1-7.5 7.5h-21a7.5 7.5 0 0 1-7.5-7.5v-21a7.5 7.5 0 0 1 7.5-7.5h21a7.5 7.5 0 0 1 7.5 7.5zm-28.5-25.5a4.505 4.505 0 0 0-4.5 4.5v21c0 2.481 2.019 4.5 4.5 4.5h21c2.481 0 4.5-2.019 4.5-4.5v-21c0-2.482-2.019-4.5-4.5-4.5z"/></symbol><symbol id="icon_cursor" viewBox="0 0 24 36"><path transform="translate(-913 -3229)" id="oaloa" d="M916 3253.102v-17.977l14.14 11.338-6.95 1.123 6.321 12.47-1.895.925-6.291-12.45zm17.563 8.311l-5.852-11.543 9.289-1.557L913 3229v30.433l7.333-6.212 5.94 11.78z"/></symbol><symbol id="icon_eye" viewBox="0 0 32 19"><path transform="translate(-1391 -545)" id="jadna" d="M1412.333 554.5c0 2.999-2.388 5.428-5.333 5.428-2.945 0-5.333-2.43-5.333-5.428 0-2.997 2.388-5.428 5.333-5.428 2.945 0 5.333 2.431 5.333 5.428zm10.667-.61s-5.67 10.11-15.98 10.11c-9.573 0-16.02-10.11-16.02-10.11s5.928-8.89 16.02-8.89c10.259 0 15.98 8.89 15.98 8.89zm-28.617.058c2.064 2.54 6.743 7.338 12.636 7.338 6.389 0 10.805-4.787 12.672-7.28-1.92-2.204-6.337-6.292-12.671-6.292-6.214 0-10.646 3.999-12.637 6.234z"/></symbol><symbol id="icon_facebook" viewBox="0 0 8 17"><path id="52lda" transform="translate(-1487 -3259)" d="M1489 3264.67h-2v2.83h2v8.5h3.33v-8.5h2.43l.24-2.83h-2.67v-1.18c0-.68.13-.95.75-.95h1.92V3259h-2.54c-2.4 0-3.46 1.12-3.46 3.27v2.4z"/></symbol><symbol id="icon_gall" viewBox="0 0 23 17"><path id="ccn4a" transform="translate(-1560 -3240)" d="M1560.386 3248.79l1.228-1.58 8.715 6.779 10.89-13.613 1.562 1.249-12 15-1.26-1.008-.135.173z"/></symbol><symbol id="icon_icon_crug" viewBox="0 0 189 189"><path class="cls-1" d="M125 76.5A48.5 48.5 0 1 1 76.5 125 48.56 48.56 0 0 1 125 76.5m0-46a94.5 94.5 0 1 0 94.5 94.5A94.5 94.5 0 0 0 125 30.5z" transform="translate(-30.5 -30.5)" id="Слой_4"/></symbol><symbol id="icon_icon_kvadrat" viewBox="0 0 188.9 188.9"><path class="cls-1" d="M173.45 76.55v96.9h-96.9v-96.9h96.9m46-46H30.55v188.9h188.9V30.55z" transform="translate(-30.55 -30.55)" id="Слой_7"/></symbol><symbol id="icon_icon_plus" viewBox="0 0 188.8 188.8"><path class="cls-1" d="M188.8 71.4h-71.4V0h-46v71.4H0v46h71.4v71.4h46v-71.4h71.4v-46z" id="Слой_2"/></symbol><symbol id="icon_icon_romb" viewBox="0 0 225 225"><path class="cls-1" d="M125 77.55L172.45 125 125 172.45 77.55 125 125 77.55m0-65L12.5 125 125 237.5 237.5 125 125 12.5z" transform="translate(-12.5 -12.5)" id="Слой_5"/></symbol><symbol id="icon_icon_six" viewBox="0 0 178.4 206"><path class="cls-1" d="M125 75.12l43.2 24.94v49.88L125 174.88l-43.2-24.94v-49.88L125 75.12M125 22L35.8 73.5v103L125 228l89.2-51.5v-103L125 22z" transform="translate(-35.8 -22)" id="Слой_6"/></symbol><symbol id="icon_icon_trioganal" viewBox="0 0 187 213"><path class="cls-1" d="M77.5 97.63L125.55 125l-48 27.37V97.63M31.5 18.5v213l187-106.5-187-106.5z" transform="translate(-31.5 -18.5)" id="Слой_3"/></symbol><symbol id="icon_instagram" viewBox="0 0 17.46 17.46"><circle class="cls-1" cx="8.73" cy="8.73" r="3.73"/><path class="cls-1" d="M13.46 0H4a4 4 0 0 0-4 4v9.46a4 4 0 0 0 4 4h9.46a4 4 0 0 0 4-4V4a4 4 0 0 0-4-4zM8.73 14A5.23 5.23 0 1 1 14 8.73 5.24 5.24 0 0 1 8.73 14zm5.95-9.88a1.14 1.14 0 1 1 1.14-1.14 1.14 1.14 0 0 1-1.14 1.14z"/></symbol><symbol id="icon_moscow" viewBox="0 0 36 34.24"><path class="cls-1" d="M18 10.09l2.07 6.37h6.7l-5.42 3.94 2.07 6.37L18 22.83l-5.42 3.94 2.07-6.37-5.42-3.94h6.7zm0-9.71l-4.25 13.08H0l11.12 8.08-4.25 13.08L18 26.54l11.12 8.08-4.25-13.08L36 13.46H22.25z" transform="translate(0 -.38)"/></symbol><symbol id="icon_open_link" viewBox="0 0 18 18"><path id="pc11a" transform="translate(-1033 -831)" d="M1051 831.935c0-.025-.01-.045-.012-.067.002-.018.012-.034.012-.053a.749.749 0 0 0-.213-.498c-.016-.019-.029-.04-.046-.058-.018-.017-.038-.03-.058-.046a.744.744 0 0 0-.5-.212c-.017 0-.032.008-.05.01-.024-.002-.044-.01-.067-.01h-5.49c-.516 0-.935.365-.935.814 0 .452.419.816.935.816h3.363l-7.305 7.306a.992.992 0 0 0 1.403 1.402l7.331-7.33v3.415c0 .516.366.935.816.935.45 0 .816-.419.816-.935zm-16.364 2.338H1042v-1.636h-7.364c-.903 0-1.636.733-1.636 1.636v13.09c0 .903.733 1.638 1.636 1.638h13.092c.903 0 1.636-.735 1.636-1.638V840h-1.636v7.363h-13.092z"/></symbol><symbol id="icon_picture" viewBox="0 0 36 28"><path transform="translate(-477 -3233)" id="6ox1a" d="M510 3242.5h-24v15h24zm3-3v21h-30v-21zm-33-3v19.5h-3v-22.5h31.5v3zm25.5 18h-15l4.8-6 1.95 2.4 2.55-3.9zm-15-7.5a1.499 1.499 0 1 1 3 0 1.5 1.5 0 0 1-3 0z"/></symbol><symbol id="icon_plus" viewBox="0 0 90 90"><path transform="translate(-234 -316)" id="s3aga" d="M270 322v-6h6v6zm0 12v-6h6v6zm0 12v-6h6v6zm0 36v-6h6v6zm0 12v-6h6v6zm0 12v-6h6v6zm12-84v-6h6v6zm0 12v-6h6v6zm0 12v-6h6v6zm0 36v-6h6v6zm0 12v-6h6v6zm0 12v-6h6v6zm36-48v-6h6v6zm-12 0v-6h6v6zm-12 0v-6h6v6zm-12 0v-6h6v6zm-12 0v-6h6v6zm-12 0v-6h6v6zm-12 0v-6h6v6zm-12 0v-6h6v6zm84 12v-6h6v6zm-12 0v-6h6v6zm-12 0v-6h6v6zm-12 0v-6h6v6zm-12 0v-6h6v6zm-12 0v-6h6v6zm-12 0v-6h6v6zm-12 0v-6h6v6z"/></symbol><symbol id="icon_rocket" viewBox="0 0 28 36"><path transform="translate(-1340 -3228)" id="zk7da" d="M1367.5 3261.308c0 .827-.33 1.874-.536 2.692l-6.047-3.892.589-2.298 3.318 2.137-2.644-4.78c.28-1.106.539-2.153.79-3.22l3.969 7.175c.37.67.561 1.425.561 2.186zm-9.029-20.447c-1.177.416-2.656.639-4.471.639-1.818 0-3.281-.235-4.458-.653-.247 4.196 1.089 9.318 2.819 15.653h3.288l.135-.522c1.602-6.227 2.846-11.08 2.687-15.117zm-8.432-3.01c.853.432 2.403.65 3.961.65 1.601 0 3.175-.237 4.01-.692-.639-2.258-1.924-4.193-3.992-5.994-2.024 1.8-3.316 3.767-3.979 6.036zm11.461 3.883c-.053 4.9-1.75 10.764-3.52 17.766h-7.91c-1.85-6.8-3.57-12.703-3.57-17.714 0-5.554 2.266-10.03 7.5-13.786 5.338 3.775 7.56 8.137 7.5 13.734zM1351 3261h6l-.83 3h-4.34zm-4.47-3.19l.588 2.298-6.047 3.892c-.206-.818-.571-1.865-.571-2.692 0-.76.226-1.516.596-2.186l3.968-7.175c.252 1.067.512 2.114.792 3.22l-2.645 4.78z"/></symbol><symbol id="icon_sitemap" viewBox="0 0 36 36"><path transform="translate(-1336 -2665)" id="7i2ia" d="M1358.5 2701h-9v-9h9zm10.5-19.5v7.5h-3v-4.5h-10.5v4.5h-3v-4.5H1342v4.5h-3v-7.5h13.5v-4.5h3v4.5zm3 19.5h-9v-9h9zm-27 0h-9v-9h9zm15-27h-12v-9h12z"/></symbol><symbol id="icon_spb" viewBox="0 0 36 35.24"><path class="cls-1" d="M0 31.94h36v3.3H0z"/><path class="cls-1" d="M18 30.62A15.12 15.12 0 1 0 2.88 15.5 15.14 15.14 0 0 0 18 30.62zm0-26.94A11.82 11.82 0 1 1 6.18 15.5 11.83 11.83 0 0 1 18 3.68z" transform="translate(0 -.38)"/></symbol><symbol id="icon_star" viewBox="0 0 39 37"><path fill-rule="evenodd" d="M19.5 2.501l5.603 10.056 11.395 2.166-7.933 8.382 1.44 11.394L19.5 29.623 8.995 34.499l1.439-11.394-7.932-8.382 11.395-2.166L19.5 2.501"/></symbol><symbol id="icon_target" viewBox="0 0 36 30"><path transform="translate(-479 -2668)" id="g9a3a" d="M508.936 2684.287C508.28 2691.967 501.85 2698 494 2698c-8.285 0-15-6.716-15-15 0-8.285 6.715-15 15-15 2.246 0 4.368.507 6.28 1.39.423.954.283 2.391-.218 3.27A11.92 11.92 0 0 0 494 2671c-6.617 0-12 5.383-12 12s5.383 12 12 12 12-5.383 12-12c0-.045-.006-.089-.007-.133 1.343-.172 2.491.696 2.943 1.42zm-13.468-3.889l5.074-2.946c1.456-.847 2.452-3.27 2.558-4.951l7.416-4.307-.253 5.448 4.737 2.354-7.396 4.295c-1.51-.744-4.103-1.086-5.566-.239l-5.04 2.925.002.023a3 3 0 1 1-6 0 3 3 0 0 1 3-3c.536 0 1.033.152 1.468.398zM488 2683c0 3.308 2.691 6 6 6 2.641 0 4.863-1.726 5.663-4.102l3.336-1.935.001.037a9 9 0 0 1-9 9 9 9 0 0 1-9-9c0-4.971 4.028-9 9-9 1.626 0 3.146.437 4.462 1.191l-3.315 1.925A6.053 6.053 0 0 0 494 2677c-3.309 0-6 2.692-6 6z"/></symbol><symbol id="icon_telegram" viewBox="0 0 15 16"><path id="kvfxa" transform="translate(-1565 -3261)" d="M1570.63 3272.11v4.89l2.03-2.95zM1565 3269l4.5 1.17 6.55-4.82-4.88 5.5 5.08 4.82L1580 3261z"/></symbol><symbol id="icon_view" viewBox="0 0 24 14"><path id="mkjpa" transform="translate(-675 -572)" d="M691 579a4 4 0 1 1-8 0 4 4 0 0 1 8 0zm-6 0c0 1.103.897 2 2 2s2-.897 2-2-.897-2-2-2-2 .897-2 2zm14-.449S694.748 586 687.015 586c-7.18 0-12.015-7.449-12.015-7.449s4.446-6.55 12.015-6.55c7.694 0 11.985 6.55 11.985 6.55zm-21.463.042c1.548 1.872 5.058 5.408 9.478 5.408 4.79 0 8.103-3.528 9.504-5.364-1.44-1.625-4.753-4.637-9.504-4.637-4.66 0-7.985 2.946-9.478 4.593z"/></symbol><symbol id="icon_vk" viewBox="0 0 22 13"><path id="jdw7a" transform="translate(-1153 -3260)" d="M1172.6 3268.96c-1.55-1.43-1.62-1.46-.3-3.18 1.66-2.13 3.82-4.87 1.9-4.87h-3.64c-.71 0-.76.4-1.01 1-.91 2.13-2.65 4.9-3.3 4.48-.7-.44-.38-2.2-.33-4.8.02-.69.01-1.16-1.04-1.4a7.38 7.38 0 0 0-1.66-.19c-2.09 0-3.52.87-2.7 1.02 1.43.27 1.3 3.37.96 4.7-.58 2.34-2.78-1.84-3.7-3.92-.22-.5-.29-.89-1.08-.89h-2.98c-.45 0-.72.15-.72.47 0 .55 2.71 6.13 5.3 8.92 2.53 2.71 5.03 2.47 6.76 2.47.56 0 .8-.37.78-.84-.02-1.75.66-2.69 1.9-1.46 1.36 1.36 1.64 2.3 3.3 2.3h2.93c.74 0 1.03-.24 1.03-.61 0-.8-1.3-2.18-2.4-3.2z"/></symbol><symbol id="icon_youtube" viewBox="0 0 18 14"><path id="yqs4a" transform="translate(-1318 -3260)" d="M1324.75 3270v-6l6 3zm7.96-9.61c-2.7-.19-8.72-.19-11.42 0-2.92.2-3.27 1.96-3.29 6.61.02 4.64.36 6.41 3.29 6.61 2.7.19 8.72.19 11.42 0 2.92-.2 3.27-1.96 3.29-6.61-.02-4.64-.36-6.41-3.29-6.61z"/></symbol></svg>