<svg id="Слой_1" data-name="Слой 1" xmlns="http://www.w3.org/2000/svg" width="60" height="60" viewBox="0 0 60 60"><defs><style>.cls-1{fill:#0081cb}</style></defs><title>vizitka</title><circle class="cls-1" cx="8.6" cy="7.3" r="1.6"/><circle class="cls-1" cx="15" cy="7.3" r="1.6"/><circle class="cls-1" cx="21.4" cy="7.3" r="1.6"/><path class="cls-1" d="M0 0v60h60V0zm57 57H3V3h54z"/><path class="cls-1" d="M20.63 42.39a9.38 9.38 0 0 1 18.75 0v3.38h3v-3.38a12.39 12.39 0 0 0-7.43-11.34 8 8 0 1 0-9.89 0 12.39 12.39 0 0 0-7.43 11.34v3.38h3zM25 24.75a5 5 0 1 1 5 5 5 5 0 0 1-5-5z"/></svg>