<svg xmlns="http://www.w3.org/2000/svg" xmlns:xlink="http://www.w3.org/1999/xlink" width="55" height="55" viewBox="0 0 55 55"><defs><path id="a" d="M1431.5 15656c15.188 0 27.5 12.313 27.5 27.5 0 15.188-12.312 27.5-27.5 27.5s-27.5-12.312-27.5-27.5c0-15.187 12.312-27.5 27.5-27.5z"/><path id="b" d="M1437.647 15687.246a4.343 4.343 0 0 0-3.224 1.43l-7.79-3.845c.063-.345.08-.641.068-.943l8.058-4.232a4.352 4.352 0 1 0-1.43-2.726l-7.83 4.112a4.352 4.352 0 1 0-.463 6.433l8.26 4.077-.001.046a4.352 4.352 0 1 0 4.352-4.352z"/></defs><use fill="#ececec" xlink:href="#a" transform="translate(-1404 -15656)"/><use fill="#0081cb" xlink:href="#b" transform="translate(-1404 -15656)"/></svg>