<svg id="Слой_1" data-name="Слой 1" xmlns="http://www.w3.org/2000/svg" width="57.31" height="60" viewBox="0 0 57.31 60"><defs><style>.cls-1{fill:#0081cb}</style></defs><title>seo</title><circle class="cls-1" cx="8.6" cy="7.3" r="1.6"/><circle class="cls-1" cx="15" cy="7.3" r="1.6"/><circle class="cls-1" cx="21.4" cy="7.3" r="1.6"/><path class="cls-1" d="M55.19 39.81l2.12-2.12-9.06-9.06a12.19 12.19 0 0 0-2.25-17V0H0v60h46V30.91l.17-.13zm-7.44-18.56A9.25 9.25 0 0 1 29.67 24H38v-3h-8.74a9.18 9.18 0 0 1 1-4H38v-3h-5.23a9.24 9.24 0 0 1 15 7.25zM43 57H3V3h40v6.87A12.18 12.18 0 0 0 28.65 14H7v3h20a12.16 12.16 0 0 0-.76 4H7v3h19.57A12.21 12.21 0 0 0 43 32.63z"/><path class="cls-1" d="M7 28h15v3H7zm0 7h28v3H7zm0 7h19v3H7z"/></svg>