<svg id="Слой_1" data-name="Слой 1" xmlns="http://www.w3.org/2000/svg" width="58.3" height="58.59" viewBox="0 0 58.3 58.59"><defs><style>.cls-1{fill:#0081cb}</style></defs><title>target</title><path class="cls-1" d="M50.23 20.45l9.57-9.57-8.21-2.61L49 .05l-9.6 9.58 2.1 6.6-2.28 2.28a22.83 22.83 0 1 0 2.14 2.1l2.26-2.26zM49.4 17L46 16l4.8-4.8 3.39 1.08zM47.61 5.66L48.69 9l-4.8 4.8-1.08-3.39zM44.18 35.8a19.88 19.88 0 1 1-7.08-15.16l-5.57 5.56a12 12 0 1 0 2.16 2.08l5.54-5.54a19.73 19.73 0 0 1 4.95 13.06zm-10.82 0a9 9 0 1 1-4-7.46l-6.55 6.55A1.5 1.5 0 1 0 25 37l6.59-6.59a9 9 0 0 1 1.76 5.39z" transform="translate(-1.5 -.05)"/></svg>