<svg id="Слой_1" data-name="Слой 1" xmlns="http://www.w3.org/2000/svg" width="60" height="45" viewBox="0 0 60 45"><defs><style>.cls-1{fill:#0081cb}</style></defs><title>context</title><path class="cls-1" d="M57 25h-1.5v3H60v-4.5h-3V25zm-46.83 0h5.67v3h-5.67zm11.33 0h5.67v3H21.5zm22.67 0h5.67v3h-5.67zm-11.34 0h5.67v3h-5.67zM3 23.5H0V28h4.5v-3H3v-1.5zM0 10.83h3v6.33H0zM0 4.5h3V3h1.5V0H0v4.5zM44.17 0h5.67v3h-5.67zm-34 0h5.67v3h-5.67zm22.66 0h5.67v3h-5.67zM21.5 0h5.67v3H21.5zm34 0v3H57v1.5h3V0h-4.5zM57 10.83h3v6.33h-3zM8.5 9h43v3h-43zm0 7h29.18v3H8.5zm0 19h43v3h-43zm0 7h29.18v3H8.5z"/></svg>