<svg id="Слой_1" data-name="Слой 1" xmlns="http://www.w3.org/2000/svg" width="60" height="48" viewBox="0 0 60 48"><defs><style>.cls-1{fill:#0081cb}</style></defs><title>media</title><path class="cls-1" d="M57 31h-1.5v3H60v-4.5h-3V31zm-10.17 0h4.33v3h-4.33zM41 29.5h-3V34h4.5v-3H41v-1.5zm-3-20h3v5h-3zm0 10h3v5h-3zm0-15h3V3h1.5V0H38v4.5zM46.83 0h4.33v3h-4.33zm8.67 0v3H57v1.5h3V0h-4.5zM57 9.5h3v5h-3zm0 10h3v5h-3zM0 0h32v3H0zm0 9h21.71v3H0zm0 9h32v3H0zm0 9h21.71v3H0zm0 9h32v3H0zm0 9h21.71v3H0z"/></svg>