<svg id="Слой_1" data-name="Слой 1" xmlns="http://www.w3.org/2000/svg" width="58.5" height="49.47" viewBox="0 0 58.5 49.47"><defs><style>.cls-1{fill:#0081cb}</style></defs><title>mobale</title><path class="cls-1" d="M55.47 22.06h-8.61V5.27H7.15V33.1h32.62v3.8H.75v3h39V51a3.79 3.79 0 0 0 3.78 3.78h11.94A3.79 3.79 0 0 0 59.25 51V25.84a3.79 3.79 0 0 0-3.78-3.78zm-45.32 8V8.27h33.71v13.79h-.31a3.79 3.79 0 0 0-3.78 3.78v4.26zM56.25 51a.79.79 0 0 1-.78.78H43.55a.79.79 0 0 1-.78-.78V25.84a.79.79 0 0 1 .78-.78h11.92a.79.79 0 0 1 .78.78z" transform="translate(-.75 -5.27)"/><circle class="cls-1" cx="48.76" cy="43.03" r="1.19"/></svg>