<svg id="Слой_1" data-name="Слой 1" xmlns="http://www.w3.org/2000/svg" width="55.22" height="61" viewBox="0 0 55.22 61"><defs><style>.cls-1{fill:#0081cb}</style></defs><title>android</title><path class="cls-1" d="M14.84 44.06a5 5 0 0 0 4.55 5v6.59a4.71 4.71 0 0 0 1.5 3.44 5 5 0 0 0 3.44 1.39 4.87 4.87 0 0 0 4.89-4.82v-6.55h1.56v6.57A4.71 4.71 0 0 0 32.19 59a5 5 0 0 0 3.52 1.47 5 5 0 0 0 3.47-1.44 4.75 4.75 0 0 0 1.42-3.38v-6.57a5.05 5.05 0 0 0 4.56-5v-23H14.83zm27.33-20v20a2 2 0 0 1-2 2h-2.56v9.56a1.77 1.77 0 0 1-.54 1.25 1.93 1.93 0 0 1-1.36.57 2 2 0 0 1-1.4-.59 1.74 1.74 0 0 1-.53-1.23v-9.51h-7.56v9.57a1.89 1.89 0 0 1-1.89 1.82 2 2 0 0 1-1.33-.56 1.74 1.74 0 0 1-.57-1.26v-9.57h-2.55a2 2 0 0 1-2-2v-20zm10.53-3a5 5 0 0 0-3.48 1.46 4.78 4.78 0 0 0-1.43 3.4v13.89a4.61 4.61 0 0 0 1.37 3.28 5 5 0 0 0 3.55 1.46 4.84 4.84 0 0 0 4.92-4.74V25.9a5 5 0 0 0-4.93-4.84zm1.91 18.76a1.84 1.84 0 0 1-1.92 1.74 2 2 0 0 1-1.42-.56 1.62 1.62 0 0 1-.49-1.16V25.91a1.8 1.8 0 0 1 .55-1.27 2 2 0 0 1 1.37-.58 1.94 1.94 0 0 1 1.91 1.85zM7.31 21.06a5 5 0 0 0-3.48 1.46 4.78 4.78 0 0 0-1.43 3.4v13.9a4.61 4.61 0 0 0 1.5 3.41 5 5 0 0 0 3.42 1.33 4.84 4.84 0 0 0 4.92-4.74V25.91a4.78 4.78 0 0 0-1.47-3.44 4.91 4.91 0 0 0-3.46-1.41zm1.91 18.76a1.84 1.84 0 0 1-1.92 1.74A2 2 0 0 1 5.93 41a1.62 1.62 0 0 1-.54-1.21V25.91a1.8 1.8 0 0 1 .55-1.27 2 2 0 0 1 1.37-.58 2 2 0 0 1 1.35.56 1.8 1.8 0 0 1 .57 1.29zM38.69 5.36l1.51-3a2 2 0 0 0-.07-1.94 1.91 1.91 0 0 0-3.34.14l-1.53 3a15.71 15.71 0 0 0-10.49 0l-1.53-3a1.91 1.91 0 0 0-3.36-.14 2 2 0 0 0-.08 1.94l1.51 3a13.24 13.24 0 0 0-6.48 11.58v1.5h30.34v-1.5a13.25 13.25 0 0 0-6.48-11.58zM30 15.44H17.92C18.36 12 20.36 9.27 24 7.23l.68-.36a12.49 12.49 0 0 1 10.61 0l.69.36c3.65 2 5.65 4.74 6.09 8.21z" transform="translate(-2.39 .5)"/><circle class="cls-1" cx="22.32" cy="11.35" r="1.54"/><path class="cls-1" d="M35.68 9.31a1.54 1.54 0 1 0 1.54 1.54 1.54 1.54 0 0 0-1.54-1.54z" transform="translate(-2.39 .5)"/></svg>