<svg id="Слой_1" data-name="Слой 1" xmlns="http://www.w3.org/2000/svg" width="38.41" height="63" viewBox="0 0 38.41 63"><defs><style>.cls-1{fill:#0081cb}</style></defs><title>phone</title><path class="cls-1" d="M42.71-1.5H17.29a6.51 6.51 0 0 0-6.5 6.5v50a6.51 6.51 0 0 0 6.5 6.5h25.42a6.51 6.51 0 0 0 6.5-6.5V5a6.51 6.51 0 0 0-6.5-6.5zm3.5 56.5a3.5 3.5 0 0 1-3.5 3.5H17.29a3.5 3.5 0 0 1-3.5-3.5V5a3.5 3.5 0 0 1 3.5-3.5h25.42a3.5 3.5 0 0 1 3.5 3.5z" transform="translate(-10.79 1.5)"/><path class="cls-1" d="M17.5 24.61h25V5.89h-25zm3-15.71h19v12.71h-19z" transform="translate(-10.79 1.5)"/><path class="cls-1" d="M9.71 30.5h-3v3H31.7v-3H9.71zm0 7h-3v3H31.7v-3H9.71zm10.49 10v-3H6.71v3H20.2z"/><circle class="cls-1" cx="19.21" cy="53.5" r="2"/></svg>