<svg id="Слой_1" data-name="Слой 1" xmlns="http://www.w3.org/2000/svg" width="63" height="43.94" viewBox="0 0 63 43.94"><defs><style>.cls-1{fill:#0081cb}</style></defs><title>native</title><path class="cls-1" d="M42.44 30a22 22 0 0 0-9.23-17.88 18.8 18.8 0 0 1 3.6-.89l-.43-3a21.84 21.84 0 0 0-6 1.76l.23.5a22 22 0 1 0-.61 39.3l.46.23.27-.61A22 22 0 0 0 42.44 30zM30 46.39a19.07 19.07 0 0 1-2.83-2l-2 2.27c.5.43 1 .83 1.57 1.22A19 19 0 1 1 30 46.39z" transform="translate(1.5 -8.03)"/><path class="cls-1" d="M21 18.13l2.52 1.62a19.06 19.06 0 0 1 3.54-4.08l-2-2.27A22.06 22.06 0 0 0 21 18.13zm.32 6.53l-2.88-.84a22 22 0 0 0-.88 6.18v.08l3-.08a19 19 0 0 1 .76-5.34zm-2.85 11.61a21.88 21.88 0 0 0 2.62 5.68l2.52-1.63a18.88 18.88 0 0 1-2.26-4.9zM58.5 30h3a22 22 0 0 0-.9-6.18l-2.88.85A19.06 19.06 0 0 1 58.5 30zm-4.61-16.63l-2 2.27a19 19 0 0 1 3.54 4.07L58 18.09a22.08 22.08 0 0 0-4.11-4.72zm1.63 26.85L58 41.84a21.86 21.86 0 0 0 2.59-5.69l-2.88-.84a18.82 18.82 0 0 1-2.19 4.91zm-8.06 7.02L48.71 50A22 22 0 0 0 54 46.57l-2-2.26a19 19 0 0 1-4.54 2.93zM42.63 8.25l-.42 3a18.83 18.83 0 0 1 5.18 1.51L48.63 10a21.82 21.82 0 0 0-6-1.75zM39.55 49a19.25 19.25 0 0 1-2.64-.18l-.41 3a22.17 22.17 0 0 0 3.06.21 22 22 0 0 0 3.17-.23l-.43-3a19 19 0 0 1-2.75.2z" transform="translate(1.5 -8.03)"/></svg>