<svg id="Слой_1" data-name="Слой 1" xmlns="http://www.w3.org/2000/svg" width="53.36" height="63.06" viewBox="0 0 53.36 63.06"><defs><style>.cls-1{fill:#0081cb}</style></defs><title>apple</title><path class="cls-1" d="M55.63 42.66a12.49 12.49 0 0 1-7.51-10.36 11.52 11.52 0 0 1 5.55-10.59l1.33-.84-.87-1.27A15.38 15.38 0 0 0 42 13c-3.22-.33-6.2.85-8.6 1.79a11.55 11.55 0 0 1-3 .95 11 11 0 0 1-3.16-1 17.85 17.85 0 0 0-6.76-1.65 16.81 16.81 0 0 0-11.5 5c-2.5 2.5-5.48 7-5.48 14.4 0 9.93 5.37 20.3 10.68 25.41 2.44 2.35 4.87 3.59 7 3.59h.21a12.74 12.74 0 0 0 4.85-1.28A11.3 11.3 0 0 1 31.19 59a10.59 10.59 0 0 1 4.67 1.14 12 12 0 0 0 5.27 1.25c7.2-.13 13.42-11.45 15.3-16.91l.44-1.28zM41.06 58.42a8.8 8.8 0 0 1-4-1A13.42 13.42 0 0 0 31.19 56a14.14 14.14 0 0 0-6.1 1.42 10 10 0 0 1-3.79 1c-1.37 0-3.15-.92-5-2.75-4.77-4.47-9.8-14.17-9.8-23.16 0-10.6 7.05-16.25 14-16.36h.12a15.59 15.59 0 0 1 5.48 1.44 12.45 12.45 0 0 0 4.27 1.17 12.36 12.36 0 0 0 4.15-1.16c2.2-.87 4.69-1.85 7.28-1.59a12.61 12.61 0 0 1 8.9 4.14 14.45 14.45 0 0 0-5.6 12.36 15.28 15.28 0 0 0 8 12.23c-2.33 5.93-7.56 13.6-12.04 13.68zM30.73 12.78l1.21.09h.64a10.36 10.36 0 0 0 7.32-3.34 12.28 12.28 0 0 0 3.55-9.69l-.15-1.39-1.4.06a11.85 11.85 0 0 0-8.44 4.39 11.58 11.58 0 0 0-2.88 8.68zm5-8a9.35 9.35 0 0 1 4.72-3.09 9.78 9.78 0 0 1-2.72 5.71 7.83 7.83 0 0 1-4.22 2.37 9.27 9.27 0 0 1 2.24-4.94z" transform="translate(-3.5 1.56)"/></svg>