<svg id="Слой_1" data-name="Слой 1" xmlns="http://www.w3.org/2000/svg" width="60" height="59.37" viewBox="0 0 60 59.37"><defs><style>.cls-1{fill:#0081cb}</style></defs><title>hosting</title><circle class="cls-1" cx="19.6" cy="10" r="1.6"/><circle class="cls-1" cx="30" cy="10" r="1.6"/><circle class="cls-1" cx="40.4" cy="10" r="1.6"/><path class="cls-1" d="M60 20.31v-20H0v20h28.5v3.92H0v20h28.5v4.38H17v4H5.38v3H17v4h26v-4h11.63v-3H43v-4H31.5v-4.38H60v-20H31.5v-3.92zM40 56.69H20v-5.08h20zm17-15.46H3v-14h54zM3 3.31h54v14H3z" transform="translate(0 -.31)"/><circle class="cls-1" cx="19.6" cy="33.92" r="1.6"/><circle class="cls-1" cx="30" cy="33.92" r="1.6"/><circle class="cls-1" cx="40.4" cy="33.92" r="1.6"/></svg>