<svg id="Слой_1" data-name="Слой 1" xmlns="http://www.w3.org/2000/svg" width="672.58" height="640" viewBox="0 0 672.58 640"><defs><style>.cls-1{fill:#f2f2f2}.cls-2{fill:#0081cb}.cls-3{fill:#30b5ef;opacity:.44}.cls-4{fill:#f82755}.cls-5{fill:#fff}.cls-6{fill:#d5d5d5}.cls-7{fill:#289bdd}</style></defs><title>2</title><path class="cls-1" d="M0 318.59L334.81 0l337.77 321.41L337.77 640 0 318.59z"/><path class="cls-2" d="M461.68 190.25L267 298.72c-3.3 1.84-6 6-6 9.35v222c0 3.3 2.7 4.49 6 2.65l194.68-108.47c3.3-1.84 6-6 6-9.35v-222c.01-3.3-2.68-4.49-6-2.65z" transform="translate(-66.29 -78.31)"/><path class="cls-3" d="M349.74 305.13l-30 16.72a1.88 1.88 0 0 0-.93 1.44v77.22c0 .51.42.69.93.41l30-16.72a1.88 1.88 0 0 0 .93-1.44v-77.22c0-.54-.42-.69-.93-.41zm41.67-45.33l-30 16.72a1.88 1.88 0 0 0-.93 1.44v77.22c0 .51.42.69.93.41l30-16.72a1.88 1.88 0 0 0 .93-1.44v-77.22c-.01-.51-.42-.69-.93-.41zm42.33-6.33l-30 16.72a1.88 1.88 0 0 0-.93 1.44v77.22c0 .51.42.69.93.41l30-16.72a1.88 1.88 0 0 0 .93-1.44v-77.22c0-.51-.42-.7-.93-.41zM307.41 385.13l-30 16.72a1.88 1.88 0 0 0-.93 1.44v77.22c0 .51.42.69.93.41l30-16.72a1.88 1.88 0 0 0 .93-1.44v-77.22c-.01-.54-.42-.69-.93-.41z" transform="translate(-66.29 -78.31)"/><path class="cls-4" d="M223.63 325.89l-83.1-83.1 80.66-80.66 83.1 83.1zm-42.09-83.1l42.09 42.09 39.65-39.65-42.09-42.09z" transform="translate(-66.29 -78.31)"/><path class="cls-5" d="M520.18 228.25L325.51 336.72c-3.3 1.84-6 6-6 9.35v222c0 3.3 2.7 4.49 6 2.65l194.67-108.47c3.3-1.84 6-6 6-9.35v-222c.01-3.3-2.69-4.49-6-2.65z" transform="translate(-66.29 -78.31)"/><path class="cls-6" d="M335 346.81c-1.41.61-2.56 2.74-2.56 4.76s1.14 3.15 2.56 2.53 2.56-2.74 2.56-4.76-1.15-3.14-2.56-2.53zm19.5-9.46c-1.41.61-2.56 2.74-2.56 4.76s1.14 3.15 2.56 2.53 2.56-2.74 2.56-4.76-1.15-3.14-2.56-2.53zm-9.75 5c-1.41.61-2.56 2.74-2.56 4.76s1.14 3.15 2.56 2.53 2.56-2.74 2.56-4.76-1.15-3.14-2.56-2.53z" transform="translate(-66.29 -78.31)"/><path class="cls-2" d="M333.27 399.87v48.79l79.56-44v-48.79zm77.56 3.6l-75.56 41.79v-44.21l75.56-41.79z" transform="translate(-66.29 -78.31)"/><path class="cls-2" d="M334.55 298.63l-54.67 30.24v2.28l54.67-30.23v-2.29zm0 9.25l-54.67 30.24v2.28l54.67-30.23v-2.29zm-15.5 17.82l-39.17 21.67v2.28l39.17-21.66v-2.29z"/><path class="cls-6" d="M280.55 375.53v2.29l54.66-30.24v-2.28l-54.66 30.23zm0 11.54l54.66-30.24v-2.28l-54.66 30.23v2.29zm0 9.25l39.16-21.66v-2.29l-39.16 21.66v2.29zm0 48.91v2.29l54.66-30.24V415l-54.66 30.23zm0 11.54l54.66-30.24v-2.28l-54.66 30.23v2.29zm0 9.25l39.16-21.66v-2.29l-39.16 21.66v2.29zm0-55.64v2.29l54.66-30.24v-2.28l-54.66 30.23zm0 11.54l54.66-30.24v-2.28l-54.66 30.23v2.29zm0 9.25l39.16-21.66v-2.29l-39.16 21.66v2.29zm109.16-106.54l11.5-6.4v-2.29l-11.5 6.41v2.28zm14.5-8.07l11.5-6.41v-2.29l-11.5 6.41v2.29zm0-63.41l11.5-6.4v-2.29l-11.5 6.41v2.28zm-14.5 8.08l11.5-6.4v-2.29l-11.5 6.4v2.29zm29-16.16l10-5.57v-2.29l-10 5.58v2.28zm0 63.41l10-5.58v-2.28l-10 5.57v2.29zm-37-10.03l-2 1.11v8.91l2-1.11v-8.91zm0 12l-2 1.11v8.36l2-1.12v-8.35zm0-23l-2 1.11v7.91l2-1.11v-7.91z"/><path class="cls-6" d="M448 405.1v-4.9l-2 1.11v3.88a1.9 1.9 0 0 0 .9 1.71 1.84 1.84 0 0 0 .94.25 2.64 2.64 0 0 0 1.28-.36l3.89-2.17v-2.29l-4.87 2.67z" transform="translate(-66.29 -78.31)"/><path class="cls-6" d="M381.71 274.89l-2 1.11v9.47l2-1.11v-9.47z"/><path class="cls-6" d="M446 345v6.18l2-1.11V345a2.34 2.34 0 0 1 1.11-1.66l3.89-2.17v-2.29l-4.86 2.71A4.27 4.27 0 0 0 446 345z" transform="translate(-66.29 -78.31)"/><path class="cls-6" d="M435.71 277.27l2-1.12v-8.91l-2 1.12v8.91zm0 11.44l2-1.11v-8.36l-2 1.12v8.35zm0-23.44l2-1.12v-7.91l-2 1.12v7.91zm0-11l2-1.11v-9.47l-2 1.11v9.47z"/><path class="cls-6" d="M502 374a2.34 2.34 0 0 1-1.11 1.66l-2.89 1.59v2.29l3.86-2.15A4.27 4.27 0 0 0 504 374v-5l-2 1.11zm1.1-61.87a2.21 2.21 0 0 0-2.22.11l-2.88 1.61v2.29l3.86-2.15.14-.07V320l2-1.11v-5.07a1.9 1.9 0 0 0-.9-1.69z" transform="translate(-66.29 -78.31)"/><path class="cls-6" d="M389.71 406.3l11.5-6.41v-2.28l-11.5 6.4v2.29zm14.5-8.08l11.5-6.41v-2.28l-11.5 6.4v2.29zm0-63.4l11.5-6.41v-2.29l-11.5 6.41v2.29zm-14.5 8.08l11.5-6.41v-2.29l-11.5 6.41v2.29zm29-16.16l10-5.57v-2.29l-10 5.57v2.29zm0 63.4l10-5.57v-2.29l-10 5.57v2.29zm-37-10.03l-2 1.12v8.91l2-1.12v-8.91zm0 12l-2 1.12v8.35l2-1.11v-8.36zm0-23l-2 1.12v7.91l2-1.12v-7.91z"/><path class="cls-6" d="M448 486.77v-4.9l-2 1.13v3.88a1.9 1.9 0 0 0 .9 1.71 1.84 1.84 0 0 0 .94.25 2.64 2.64 0 0 0 1.28-.36l3.89-2.17V484l-4.86 2.71z" transform="translate(-66.29 -78.31)"/><path class="cls-6" d="M381.71 356.56l-2 1.11v9.47l2-1.12v-9.46z"/><path class="cls-6" d="M446 426.71v6.18l2-1.11v-5.07a2.34 2.34 0 0 1 1.11-1.66l3.89-2.17v-2.29l-4.86 2.71a4.27 4.27 0 0 0-2.14 3.41z" transform="translate(-66.29 -78.31)"/><path class="cls-6" d="M435.71 358.94l2-1.12v-8.91l-2 1.11v8.92zm0 11.44l2-1.12v-8.35l-2 1.11v8.36zm0-23.44l2-1.12v-7.91l-2 1.11v7.92zm0-11l2-1.12v-9.47l-2 1.12v9.47z"/><path class="cls-6" d="M502 455.65a2.34 2.34 0 0 1-1.11 1.66l-2.89 1.61v2.29l3.86-2.15a4.27 4.27 0 0 0 2.14-3.41v-5l-2 1.11zm1.1-61.85a2.21 2.21 0 0 0-2.22.11l-2.88 1.61v2.29l3.86-2.15.14-.07v6.1l2-1.11v-5.08a1.9 1.9 0 0 0-.9-1.7z" transform="translate(-66.29 -78.31)"/><path class="cls-2" d="M539.29 330.12l-53.8 30a3.37 3.37 0 0 0-1.66 2.58V424c0 .91.75 1.24 1.66.73l53.8-30a3.37 3.37 0 0 0 1.66-2.58v-61.29c0-.92-.75-1.25-1.66-.74z" transform="translate(-66.29 -78.31)"/><path class="cls-7" d="M457.05 287.69l-4.34 9-8-14-17.66 46.33 42.33-22-12.33-19.33z"/><path class="cls-7" d="M526.17 359.11c1.86-.81 3.36-3.61 3.36-6.25s-1.51-4.14-3.36-3.33-3.36 3.61-3.36 6.25 1.51 4.14 3.36 3.33z" transform="translate(-66.29 -78.31)"/><path class="cls-2" d="M539.29 416.79l-53.8 30a3.37 3.37 0 0 0-1.66 2.58v61.35c0 .91.75 1.24 1.66.73l53.8-30a3.37 3.37 0 0 0 1.66-2.58v-61.35c0-.91-.75-1.24-1.66-.73z" transform="translate(-66.29 -78.31)"/><path class="cls-7" d="M457.05 374.36l-4.34 9-8-14-17.66 46.33 42.33-22-12.33-19.33z"/><path class="cls-7" d="M526.17 445.78c1.86-.81 3.36-3.61 3.36-6.25s-1.51-4.14-3.36-3.33-3.36 3.61-3.36 6.25 1.51 4.14 3.36 3.33z" transform="translate(-66.29 -78.31)"/><path class="cls-1" d="M344.71 253.49l-77.72 42.99v13.21l77.72-42.99v-13.21z"/><path class="cls-2" d="M350.71 250.17v13.21l32-17.7v-13.21l-32 17.7z"/></svg>