<svg id="Слой_1" data-name="Слой 1" xmlns="http://www.w3.org/2000/svg" width="531.46" height="671.39" viewBox="0 0 531.46 671.39"><defs><style>.cls-1{fill:#f2f2f2}.cls-2{fill:#0080da}.cls-3{fill:#d5d5d5}.cls-4{fill:#fff}.cls-5{fill:#0081cb}.cls-6{fill:#30b5ef;opacity:.41}</style></defs><title>4</title><path class="cls-1" d="M0 671.39l531.46-326.1L0 19.18v652.21z"/><path class="cls-2" d="M185.45 209.74V61.61l120.7 74.06zm29-96.31v44.49l36.25-22.25z" transform="translate(-135 -61.61)"/><path class="cls-3" d="M327.83 273.83l-10-4.33-.06.06a2.15 2.15 0 0 0-2.07.22l-90.9 50.65a5.69 5.69 0 0 0-2.8 4.36v227.65a1.44 1.44 0 0 0 1.28 1.63l10 4.36 6.38-6.25-5.89-3.48 82-45.67a5.69 5.69 0 0 0 2.8-4.36V288.4l8.5-1.9z" transform="translate(-135 -61.61)"/><path class="cls-4" d="M326.2 274.29l-90.9 50.64a5.69 5.69 0 0 0-2.8 4.36v227.65c0 1.54 1.26 2.1 2.8 1.24l90.89-50.64a5.69 5.69 0 0 0 2.8-4.36V275.52c.01-1.52-1.25-2.09-2.79-1.23z" transform="translate(-135 -61.61)"/><path class="cls-5" d="M380.6 283.31L311.16 322a4.35 4.35 0 0 0-2.14 3.33v175.91c0 1.18 1 1.6 2.14.95l69.44-38.69a4.35 4.35 0 0 0 2.14-3.33V284.26c0-1.18-.96-1.61-2.14-.95z" transform="translate(-135 -61.61)"/><path class="cls-6" d="M222 246.47l-40 22.28v5.73l40-22.29v-5.72zm-18.5 127.71L182 386.16v5.73l21.5-11.98v-5.73zM200 275.5l-18 10.02v5.73l18-10.03v-5.72zm21.5 4.79L182 302.3v5.72l39.5-22.01v-5.72zm-18 26.8L182 319.07v5.73l21.5-11.98v-5.73zm17.5 7.02l-39 21.73v5.73l39-21.73v-5.73zm-21.5 28.76l-17.5 9.75v5.72l17.5-9.75v-5.72zM182 425.43l18-10.03v-5.72l-18 10.03v5.72zm39-44.23l-39 21.74v5.72l39-21.73v-5.73zm-1-32.98l-38 21.17v5.72l38-21.17v-5.72zm-15.15 58.75v5.73l59.48-33.14v-5.73l-59.48 33.14zm-.5-61.09l57.98-32.3v-5.72l-57.98 32.3v5.72zm37.32-110.37l-14.82 8.25v5.73l14.82-8.26v-5.72zm-36.82 43.01L241.67 258v-5.72l-36.82 20.51v5.73z"/><path class="cls-4" d="M412.27 307.31L342.83 346a4.35 4.35 0 0 0-2.14 3.33v175.91c0 1.18 1 1.6 2.14.95l69.44-38.69a4.35 4.35 0 0 0 2.14-3.33V308.26c0-1.18-.97-1.61-2.14-.95z" transform="translate(-135 -61.61)"/><path class="cls-5" d="M80.67 382.34l11.5-6.41v-2.29l-11.5 6.41v2.29zm14.5-8.08l11.5-6.41v-2.29l-11.5 6.41v2.29zm0-63.4l11.5-6.41v-2.29l-11.5 6.41v2.29zm-14.5 8.07l11.5-6.4v-2.29l-11.5 6.4v2.29zm29-16.15l10-5.58v-2.28l-10 5.57v2.29zm0 63.4l10-5.57v-2.29l-10 5.57v2.29zm-37-10.03l-2 1.11v8.91l2-1.11v-8.91zm0 12l-2 1.11v8.36l2-1.12v-8.35zm0-23l-2 1.11v7.91l2-1.11v-7.91z"/><path class="cls-5" d="M207.67 446.1v-4.9l-2 1.11v3.88a1.9 1.9 0 0 0 .9 1.71 1.84 1.84 0 0 0 .94.25 2.64 2.64 0 0 0 1.28-.36l3.89-2.17v-2.29l-4.87 2.67z" transform="translate(-135 -61.61)"/><path class="cls-5" d="M72.67 332.59l-2 1.11v9.47l2-1.11v-9.47z"/><path class="cls-5" d="M205.67 386v6.18l2-1.11V386a2.34 2.34 0 0 1 1.11-1.66l3.89-2.17v-2.29l-4.86 2.71a4.27 4.27 0 0 0-2.14 3.41z" transform="translate(-135 -61.61)"/><path class="cls-5" d="M126.67 334.97l2-1.11v-8.92l-2 1.12v8.91zm0 11.44l2-1.11v-8.36l-2 1.12v8.35zm0-23.44l2-1.11v-7.92l-2 1.12v7.91zm0-11l2-1.11v-9.47l-2 1.11v9.47z"/><path class="cls-5" d="M261.67 415a2.34 2.34 0 0 1-1.11 1.66l-2.89 1.61v2.29l3.86-2.15a4.27 4.27 0 0 0 2.14-3.41v-5l-2 1.11zm1.1-61.87a2.21 2.21 0 0 0-2.22.11l-2.89 1.61v2.29l3.86-2.15.14-.07V361l2-1.11v-5.07a1.9 1.9 0 0 0-.89-1.69z" transform="translate(-135 -61.61)"/><path class="cls-5" d="M80.67 463.31l11.5-6.4v-2.29l-11.5 6.4v2.29zm14.5-8.07l11.5-6.41v-2.29l-11.5 6.4v2.3zm0-63.41l11.5-6.4v-2.29l-11.5 6.4v2.29zm-14.5 8.08l11.5-6.41v-2.29l-11.5 6.41v2.29zm29-16.16l10-5.57v-2.29l-10 5.57v2.29zm0 63.41l10-5.58v-2.29l-10 5.58v2.29zm-37-10.03l-2 1.11v8.91l2-1.11v-8.91zm0 12l-2 1.11v8.35l2-1.11v-8.35zm0-23l-2 1.11v7.91l2-1.11v-7.91z"/><path class="cls-5" d="M207.67 527.08v-4.9l-2 1.11v3.88a1.9 1.9 0 0 0 .9 1.71 1.84 1.84 0 0 0 .94.25 2.64 2.64 0 0 0 1.28-.36l3.89-2.17v-2.3l-4.87 2.7z" transform="translate(-135 -61.61)"/><path class="cls-5" d="M72.67 413.57l-2 1.11v9.47l2-1.11v-9.47z"/><path class="cls-5" d="M205.67 467v6.18l2-1.11V467a2.34 2.34 0 0 1 1.11-1.66l3.89-2.17v-2.27l-4.86 2.71a4.27 4.27 0 0 0-2.14 3.39z" transform="translate(-135 -61.61)"/><path class="cls-5" d="M126.67 415.95l2-1.12v-8.91l-2 1.12v8.91zm0 11.44l2-1.11v-8.36l-2 1.12v8.35zm0-23.44l2-1.12v-7.91l-2 1.12v7.91zm0-11l2-1.12v-9.46l-2 1.11v9.47z"/><path class="cls-5" d="M261.67 496a2.34 2.34 0 0 1-1.11 1.66l-2.89 1.61v2.29l3.86-2.15a4.27 4.27 0 0 0 2.14-3.41v-5l-2 1.11zm1.1-61.89a2.21 2.21 0 0 0-2.22.11l-2.89 1.61v2.29l3.86-2.15.14-.07v6.1l2-1.11v-5.07a1.9 1.9 0 0 0-.89-1.71z" transform="translate(-135 -61.61)"/><path class="cls-1" d="M406 396.46l-53.8 30a3.37 3.37 0 0 0-1.7 2.54v61.35c0 .91.75 1.24 1.66.73l53.8-30a3.37 3.37 0 0 0 1.66-2.58v-61.31c-.01-.91-.75-1.24-1.62-.73z" transform="translate(-135 -61.61)"/><path class="cls-3" d="M255 370.72l-4.33 9-8-14L225 412.06l42.33-22L255 370.72z"/><path class="cls-3" d="M392.84 425.45c1.86-.81 3.36-3.61 3.36-6.25s-1.51-4.14-3.36-3.33-3.36 3.61-3.36 6.25 1.52 4.13 3.36 3.33zm-106.56 77.3c-2.49 1.08-4.5 4.83-4.5 8.37s2 5.54 4.5 4.46 4.5-4.83 4.5-8.37-2.02-5.54-4.5-4.46z" transform="translate(-135 -61.61)"/><path class="cls-5" d="M398.26 461.21c-4.64 2-8.4 9-8.4 15.63s3.76 10.34 8.4 8.33 8.4-9 8.4-15.63-3.76-10.34-8.4-8.33z" transform="translate(-135 -61.61)"/><path class="cls-1" d="M406 323.46l-53.8 30a3.37 3.37 0 0 0-1.7 2.54v61.35c0 .91.75 1.24 1.66.73l53.8-30a3.37 3.37 0 0 0 1.66-2.58v-61.31c-.01-.91-.75-1.24-1.62-.73z" transform="translate(-135 -61.61)"/><path class="cls-3" d="M255 297.72l-4.33 9-8-14L225 339.06l42.33-22L255 297.72z"/><path class="cls-3" d="M392.84 352.45c1.86-.81 3.36-3.61 3.36-6.25s-1.51-4.14-3.36-3.33-3.36 3.61-3.36 6.25 1.52 4.13 3.36 3.33z" transform="translate(-135 -61.61)"/></svg>