<svg id="Слой_1" data-name="Слой 1" xmlns="http://www.w3.org/2000/svg" width="534" height="591.5" viewBox="0 0 534 591.5"><defs><style>.cls-1{fill:#f2f2f2}.cls-2{fill:#00ce2c}.cls-3{fill:#d5d5d5}.cls-4{fill:#fff}.cls-5{fill:#0081cb}</style></defs><title>6.</title><path class="cls-1" d="M0 57.5h534v534H0z"/><path class="cls-2" d="M282.11 219.11H165.5V102.5h116.61zm-87.61-29h58.61V131.5H194.5z" transform="translate(-133.33 -102.5)"/><path class="cls-3" d="M440.35 231.92L245.67 340.39c-3.3 1.84-6 6-6 9.35v222c0 3.3 2.7 4.49 6 2.65l194.68-108.47c3.3-1.84 6-6 6-9.35v-222c0-3.3-2.7-4.5-6-2.65z" transform="translate(-133.33 -102.5)"/><path class="cls-4" d="M498.85 269.92L304.17 378.39c-3.3 1.84-6 6-6 9.35v222c0 3.3 2.7 4.49 6 2.65l194.68-108.47c3.3-1.84 6-6 6-9.35v-222c0-3.3-2.7-4.5-6-2.65z" transform="translate(-133.33 -102.5)"/><path class="cls-3" d="M313.67 388.48c-1.41.61-2.56 2.74-2.56 4.76s1.14 3.15 2.56 2.53 2.56-2.74 2.56-4.76-1.15-3.15-2.56-2.53zm19.5-9.48c-1.41.61-2.56 2.74-2.56 4.76s1.14 3.15 2.56 2.53 2.56-2.74 2.56-4.76-1.15-3.12-2.56-2.53zm-9.75 5c-1.41.61-2.56 2.74-2.56 4.76s1.14 3.15 2.56 2.53 2.56-2.74 2.56-4.76-1.15-3.12-2.56-2.53zM527.6 284l-92.26 51.4a5.77 5.77 0 0 0-2.85 4.43V445c0 1.56 1.28 2.13 2.85 1.26l92.26-51.4a5.77 5.77 0 0 0 2.85-4.43V285.22c0-1.57-1.28-2.13-2.85-1.22z" transform="translate(-133.33 -102.5)"/><path class="cls-5" d="M558.93 295.63L466.68 347a5.77 5.77 0 0 0-2.85 4.43v105.24c0 1.56 1.28 2.13 2.85 1.26l92.26-51.4a5.77 5.77 0 0 0 2.85-4.43V296.88c-.01-1.56-1.29-2.13-2.86-1.25z" transform="translate(-133.33 -102.5)"/><path class="cls-3" d="M206.17 433.33v2.28l54.66-30.23v-2.29l-54.66 30.24zm0 11.53l54.66-30.23v-2.29l-54.66 30.24v2.28zm0 9.25l39.16-21.66v-2.28l-39.16 21.66v2.28zM301.5 386v2.28l54.67-30.23v-2.29L301.5 386zm0 11.53l54.67-30.23v-2.29l-54.67 30.24v2.28zm0 9.25l39.17-21.66v-2.29L301.5 404.5v2.28z"/><path class="cls-3" d="M357.08 483a20.18 20.18 0 0 1-11.34-3.42c-7.66-5.11-12-15.24-12-27.79 0-21.71 12.77-44 29.07-50.79 7.44-3.09 14.85-2.58 20.86 1.43 7.66 5.11 12 15.24 12 27.79 0 21.71-12.77 44-29.07 50.79a24.84 24.84 0 0 1-9.52 1.99zm15.19-74a15 15 0 0 0-5.67 1.23c-12.42 5.15-22.91 24.18-22.91 41.55 0 9 2.84 16.29 7.6 19.47 4 2.68 8.46 1.76 11.47.51 12.42-5.15 22.91-24.18 22.91-41.55 0-9-2.84-16.29-7.6-19.47a10.25 10.25 0 0 0-5.8-1.74z" transform="translate(-133.33 -102.5)"/><path class="cls-5" d="M374.63 462c-3.49 4.48-7.56 7.94-11.87 9.73-3 1.25-7.45 2.18-11.47-.51-4.76-3.18-7.6-10.46-7.6-19.47v-.23l-9.87 3.77c.75 10.9 5 19.62 11.92 24.24a20.18 20.18 0 0 0 11.34 3.47 24.84 24.84 0 0 0 9.52-2 37 37 0 0 0 11.4-7.73z" transform="translate(-133.33 -102.5)"/><path class="cls-1" d="M551.58 395.85v-17.26c-2.3 4.2-4.41 7.94-5.25 9.16-2.25 3.25-7 .75-8-.5s-2.25-11.25-3-13.25-1.25-1-2.5.5-1.75 7-2.25 15.25-4.75 10.5-6.5 10-2.25-5.75-4.25-5.25-2.5 5.75-3.5 9-5 2-5.75-.5 0-12-.5-13.75-1.75-.25-2.25 3-.25 9.5-1 15-5.75 5.5-6.25 4.25-1.75-3.75-4-2.75-3 4.25-4.25 7.25-4.5 4.25-5.5 3.25-1.25-9.5-1.5-12.5-2-3-3.25-.5-1.5 8.5-1.75 12.75a7 7 0 0 1-3 5.6v12.62z" transform="translate(-133.33 -102.5)"/></svg>