<svg id="Слой_1" data-name="Слой 1" xmlns="http://www.w3.org/2000/svg" width="533.9" height="536.83" viewBox="0 0 533.9 536.83"><defs><style>.cls-1{fill:#f2f2f2}.cls-2,.cls-4,.cls-7{fill:#0081cb}.cls-3,.cls-8{fill:#fff}.cls-4{font-size:18.08px;letter-spacing:-.01em}.cls-4,.cls-7,.cls-8{font-family:Intro-Bold,Intro Bold}.cls-5{fill:#b72599}.cls-6{fill:#d5d5d5}.cls-7{font-size:64px;letter-spacing:-.01em}.cls-8{font-size:23.68px;letter-spacing:.02em}.cls-9{fill:#289bdd}</style></defs><title>3</title><circle class="cls-1" cx="266.95" cy="269.88" r="266.95"/><path class="cls-2" d="M447.97 248.92l-91.56 50.64v65l91.56-50.64v-65z"/><path class="cls-3" d="M80.91 185.87v248.07l150.56-83.27V102.6L80.91 185.87z"/><path class="cls-1" d="M225 341.22c0-9.9 5.63-20.38 12.58-23.4s12.58 2.56 12.58 12.46-5.63 20.38-12.58 23.4S225 351.12 225 341.22z" transform="translate(-134.03 -130.07)"/><text class="cls-4" transform="matrix(.89 -.53 0 1 98.75 213.69)">A</text><path class="cls-2" d="M124.81 195.66l30.66-16.96v-2.29l-30.66 16.96v2.29zm0-11.54v2.29l30.66-16.96v-2.29l-30.66 16.96zm0 20.79l16.16-8.94v-2.29l-16.16 8.94v2.29z"/><path class="cls-5" d="M224 266.77a68.35 68.35 0 1 1 68.35-68.35A68.43 68.43 0 0 1 224 266.77zm0-107.7a39.35 39.35 0 1 0 39.35 39.35A39.4 39.4 0 0 0 224 159.07z" transform="translate(-134.03 -130.07)"/><path class="cls-6" d="M331 399c0-35.06 19.93-72.14 44.52-82.82s44.48 9.04 44.48 44.1-19.93 72.14-44.52 82.82S331 434 331 399z" transform="translate(-134.03 -130.07)"/><path class="cls-3" d="M360.5 416c0-35.06 19.93-72.14 44.52-82.82s44.52 9.07 44.52 44.12-19.93 72.11-44.54 82.8-44.5-9.1-44.5-44.1z" transform="translate(-134.03 -130.07)"/><text class="cls-7" transform="matrix(.89 -.53 0 1 253.99 294.9)">A</text><path class="cls-2" d="M433.5 340c0-14.92 8.48-30.7 18.95-35.25s18.95 3.86 18.95 18.78-8.48 30.7-18.95 35.25-18.95-3.87-18.95-18.78z" transform="translate(-134.03 -130.07)"/><text class="cls-8" transform="matrix(.89 -.53 0 1 312.18 214.37)">R</text><path class="cls-9" d="M501 455.72c0-9.9 5.63-20.38 12.58-23.4s12.58 2.56 12.58 12.46-5.63 20.38-12.58 23.4S501 465.62 501 455.72z" transform="translate(-134.03 -130.07)"/><text class="cls-4" transform="matrix(.89 -.53 0 1 374.75 328.19)">A</text><path class="cls-9" d="M400.81 310.16l30.66-16.96v-2.29l-30.66 16.96v2.29zm0-11.54v2.29l30.66-16.96v-2.29l-30.66 16.96zm0 20.79l16.16-8.94v-2.29l-16.16 8.94v2.29z"/><path class="cls-3" d="M475.47 272.92l-91.56 50.64v65l91.56-50.64v-65z"/><path class="cls-1" d="M528.5 479.72c0-9.9 5.63-20.38 12.58-23.4s12.58 2.56 12.58 12.46-5.63 20.38-12.58 23.4-12.58-2.56-12.58-12.46z" transform="translate(-134.03 -130.07)"/><text class="cls-4" transform="matrix(.89 -.53 0 1 402.25 352.19)">A</text><path class="cls-2" d="M428.31 334.16l30.66-16.96v-2.29l-30.66 16.96v2.29zm0-11.54v2.29l30.66-16.96v-2.29l-30.66 16.96zm0 20.79l16.16-8.94v-2.29l-16.16 8.94v2.29z"/><path class="cls-2" d="M487 274.44v115.81l79-43.69V230.74zm77 70.94l-75 41.48V275.62l75-41.48z" transform="translate(-134.03 -130.07)"/><path class="cls-2" d="M420.8 125.95l-54.83 30.32v2.29l54.83-30.33v-2.28zm0 9.64l-54.83 30.32v2.29l54.83-30.33v-2.28zm0 9.64l-54.83 30.33v2.28l54.83-30.32v-2.29zm0 9.65l-54.83 30.32v2.29l54.83-30.33v-2.28zm0 19.28l-54.83 30.33v2.28l54.83-30.32v-2.29zm0 9.64l-54.83 30.33v2.28l54.83-30.32v-2.29zm-15.83 18.4l-39 21.57v2.29l39-21.57v-2.29zm0-28.93l-39 21.57v2.29l39-21.57v-2.29z"/></svg>