<svg id="Слой_1" data-name="Слой 1" xmlns="http://www.w3.org/2000/svg" width="532.63" height="615.03" viewBox="0 0 532.63 615.03"><defs><style>.cls-1{fill:#f2f2f2}.cls-2{fill:#ffcc02}.cls-3{fill:#0081cb}.cls-4{fill:#30b5ef;opacity:.41}.cls-5{fill:#fff}.cls-6{fill:#d5d5d5}</style></defs><title>1</title><path class="cls-1" d="M0 153.76v307.51l266.32 153.76 266.31-153.76V153.76L266.32 0 0 153.76z"/><path class="cls-2" d="M225.47 264.69l-60.52-34.94v-69.89l60.52-34.94L286 159.86v69.88zM193.95 213l31.52 18.2L257 213v-36.4l-31.52-18.2-31.52 18.2z" transform="translate(-134.13 -93.13)"/><path class="cls-3" d="M464.68 199.25L270 307.72c-3.3 1.84-6 6-6 9.35v222c0 3.3 2.7 4.49 6 2.65l194.68-108.47c3.3-1.84 6-6 6-9.35v-222c.01-3.3-2.68-4.49-6-2.65z" transform="translate(-134.13 -93.13)"/><path class="cls-4" d="M229.37 183.15l-39.65 22.09v5.72l39.65-22.09v-5.72zm-44.5 24.79l-40 22.29v5.72l40-22.28v-5.73zm68.5-38.17l-19.15 10.67v5.73l19.15-10.67v-5.73zm-87 165.89l-21.5 11.98v5.72l21.5-11.98v-5.72zm4.85 3.02l141.65-78.93v-5.72l-141.65 78.92v5.73zm117.15-171.64l-40.65 22.65v5.73l40.65-22.65v-5.73zm-45.5 25.36l-75.15 41.87v5.72l75.15-41.87v-5.72zm-80 44.57l-18 10.03v5.73l18-10.03v-5.73zm130.35-72.63v5.72l19.65-10.94v-5.73l-19.65 10.95zm-82.35 68.38V227l-21.65 12.06v5.73l21.65-12.07zm-26.5 9.05l-39.5 22v5.73l39.5-22.01v-5.72zm70-39.01l-38.65 21.54v5.72l38.65-21.53v-5.73zm-88 65.81l-21.5 11.98v5.72l21.5-11.98v-5.72zm4.85 3.02l141.65-78.93v-5.72l-141.65 78.92v5.73zm12.65 4l-39 21.73v5.72l39-21.73v-5.72zm4.85 3.02l124.15-69.17v-5.73l-124.15 69.18v5.72zm-26.35 25.73l-17.5 9.75v5.73l17.5-9.75v-5.73zm4.85 3.02l145.65-81.15v-5.72l-145.65 81.15v5.72zm-22.35 113.09l21-11.7v-5.72l-21 11.7v5.72zm25.85-14.4l142.15-79.2v-5.73l-142.15 79.2v5.73zm13.15-29.82l-39 21.73v5.72l39-21.73v-5.72zm4.85 3.02l124.15-69.18v-5.72l-124.15 69.17v5.73zm-21-5.08l145.15-80.87v-5.72l-145.15 80.87v5.72zm-4.85-3.02l-18 10.03v5.73l18-10.03v-5.73zm21-28.47l-39 21.73v5.72l39-21.73v-5.72zm4.85 3.02l124.15-69.17v-5.73l-124.15 69.18v5.72zm-5.85-36.01l-38 21.18v5.72l38-21.17v-5.73zm4.85 3.02l125.15-69.73v-5.72l-125.15 69.73v5.72z"/><path class="cls-5" d="M523.18 237.25L328.51 345.72c-3.3 1.84-6 6-6 9.35v222c0 3.3 2.7 4.49 6 2.65l194.67-108.47c3.3-1.84 6-6 6-9.35v-222c.01-3.3-2.69-4.49-6-2.65z" transform="translate(-134.13 -93.13)"/><path class="cls-3" d="M407 366.12l-53.8 30a3.37 3.37 0 0 0-1.66 2.58V460c0 .91.75 1.24 1.66.73l53.8-30a3.37 3.37 0 0 0 1.66-2.58v-61.29c-.05-.92-.79-1.25-1.66-.74z" transform="translate(-134.13 -93.13)"/><path class="cls-1" d="M481 322.12l-53.8 30a3.37 3.37 0 0 0-1.66 2.58V416c0 .91.75 1.24 1.66.73l53.8-30a3.37 3.37 0 0 0 1.66-2.58v-61.29c-.05-.92-.79-1.25-1.66-.74z" transform="translate(-134.13 -93.13)"/><path class="cls-3" d="M373.87 277.81l11.5-6.41v-2.28l-11.5 6.4v2.29zm14.5-8.08l11.5-6.4v-2.29l-11.5 6.4v2.29zm0-63.4l11.5-6.41v-2.29l-11.5 6.41v2.29zm-14.5 8.08l11.5-6.41v-2.29l-11.5 6.41v2.29zm29-16.16l10-5.57v-2.29l-10 5.57v2.29zm0 63.4l10-5.57v-2.29l-10 5.58v2.28zm-37-10.03l-2 1.12v8.91l2-1.11v-8.92zm0 12l-2 1.12v8.35l2-1.11v-8.36zm0-23l-2 1.12v7.91l2-1.12v-7.91z"/><path class="cls-3" d="M500 373.1v-4.9l-2 1.11v3.88a1.9 1.9 0 0 0 .9 1.71 1.84 1.84 0 0 0 .94.25 2.64 2.64 0 0 0 1.28-.36l3.89-2.17v-2.29l-4.87 2.67z" transform="translate(-134.13 -93.13)"/><path class="cls-3" d="M365.87 228.07l-2 1.11v9.47l2-1.12v-9.46z"/><path class="cls-3" d="M498 313v6.18l2-1.11V313a2.34 2.34 0 0 1 1.11-1.66l3.89-2.17v-2.29l-4.86 2.71A4.27 4.27 0 0 0 498 313z" transform="translate(-134.13 -93.13)"/><path class="cls-3" d="M419.87 230.45l2-1.12v-8.91l-2 1.12v8.91zm0 11.44l2-1.11v-8.36l-2 1.12v8.35zm0-23.44l2-1.12v-7.91l-2 1.12v7.91zm0-11l2-1.12v-9.47l-2 1.12v9.47z"/><path class="cls-3" d="M554 342a2.34 2.34 0 0 1-1.11 1.66l-2.89 1.59v2.29l3.86-2.15A4.27 4.27 0 0 0 556 342v-5l-2 1.11zm1.1-61.87a2.21 2.21 0 0 0-2.22.11l-2.88 1.61v2.29l3.86-2.15.14-.07V288l2-1.11v-5.07a1.9 1.9 0 0 0-.9-1.69z" transform="translate(-134.13 -93.13)"/><path class="cls-4" d="M371.16 416.46c0-8.6 4.89-17.7 10.92-20.32S393 398.37 393 407s-4.89 17.7-10.92 20.32-10.92-2.26-10.92-10.86z" transform="translate(-134.13 -93.13)"/><path class="cls-5" d="M378.66 420c0-8.6 4.89-17.7 10.92-20.32s10.92 2.22 10.92 10.83-4.89 17.7-10.92 20.32-10.92-2.27-10.92-10.83z" transform="translate(-134.13 -93.13)"/><path class="cls-6" d="M338 355.81c-1.41.61-2.56 2.74-2.56 4.76s1.14 3.15 2.56 2.53 2.56-2.74 2.56-4.76-1.15-3.14-2.56-2.53zm19.5-9.46c-1.41.61-2.56 2.74-2.56 4.76s1.14 3.15 2.56 2.53 2.56-2.74 2.56-4.76-1.15-3.14-2.56-2.53zm-9.75 5c-1.41.61-2.56 2.74-2.56 4.76s1.14 3.15 2.56 2.53 2.56-2.74 2.56-4.76-1.15-3.14-2.56-2.53z" transform="translate(-134.13 -93.13)"/><path class="cls-1" d="M325.73 385.03L217.31 445v-46.5l108.42-59.97v46.5z"/><path class="cls-3" d="M478.94 417.54v48.79l79.56-44v-48.79zm77.56 3.6l-75.56 41.79v-44.21l75.56-41.79z" transform="translate(-134.13 -93.13)"/><path class="cls-3" d="M412.37 301.48l-54.66 30.23V334l54.66-30.24v-2.28zm0 9.25l-54.66 30.23v2.29l54.66-30.24v-2.28zm-15.5 17.82l-39.16 21.66v2.29l39.16-21.67v-2.28zm-142.45-.98l6.28-9.09-6.28-1.31v10.4z"/></svg>