<svg id="Слой_1" data-name="Слой 1" xmlns="http://www.w3.org/2000/svg" width="534" height="609.33" viewBox="0 0 534 609.33"><defs><style>.cls-1{fill:#f2f2f2}.cls-2{fill:#00c7d8}.cls-3{fill:#d5d5d5}.cls-4{fill:#fff}.cls-5{fill:#0081cb}.cls-6{fill:#50add6}.cls-7{fill:#289bdd}</style></defs><title>5</title><path class="cls-1" d="M534 204.33H405v-129H129v129H0v276h129v129h276v-129h129v-276z"/><path class="cls-2" d="M176 46.33h-46.33V0H101v46.33H54.67V75H101v46.33h28.67V75H176V46.33z"/><path class="cls-3" d="M465.68 209.25L271 317.72c-3.3 1.84-6 6-6 9.35v222c0 3.3 2.7 4.49 6 2.65l194.68-108.47c3.3-1.84 6-6 6-9.35v-222c.01-3.3-2.68-4.49-6-2.65z" transform="translate(-134.17 -95.17)"/><path class="cls-4" d="M524.18 247.25L329.51 355.72c-3.3 1.84-6 6-6 9.35v222c0 3.3 2.7 4.49 6 2.65l194.67-108.47c3.3-1.84 6-6 6-9.35v-222c.01-3.3-2.69-4.49-6-2.65z" transform="translate(-134.17 -95.17)"/><path class="cls-1" d="M464 304.79l-53.8 30a3.37 3.37 0 0 0-1.66 2.58v61.35c0 .91.75 1.24 1.66.73l53.8-30a3.37 3.37 0 0 0 1.66-2.58v-61.35c-.05-.91-.79-1.24-1.66-.73z" transform="translate(-134.17 -95.17)"/><path class="cls-5" d="M366.33 255.78l11.5-6.41v-2.29l-11.5 6.41v2.29zm14.5-8.08l11.5-6.41V239l-11.5 6.41v2.29zm0-63.4l11.5-6.41v-2.29l-11.5 6.41v2.29zm-14.5 8.08l11.5-6.41v-2.29l-11.5 6.41v2.29zm29-16.16l10-5.57v-2.29l-10 5.57v2.29zm0 63.4l10-5.57v-2.29l-10 5.57v2.29zm-37-10.03l-2 1.12v8.91l2-1.12v-8.91zm0 12l-2 1.12v8.35l2-1.12v-8.35zm0-23l-2 1.12v7.91l2-1.12v-7.91z"/><path class="cls-5" d="M492.5 353.1v-4.9l-2 1.11v3.88a1.9 1.9 0 0 0 .9 1.71 1.84 1.84 0 0 0 .94.25 2.64 2.64 0 0 0 1.28-.36l3.89-2.17v-2.29l-4.87 2.67z" transform="translate(-134.17 -95.17)"/><path class="cls-5" d="M358.33 206.03l-2 1.12v9.47l2-1.12v-9.47z"/><path class="cls-5" d="M490.5 293v6.18l2-1.11V293a2.34 2.34 0 0 1 1.11-1.66l3.89-2.17v-2.29l-4.86 2.71a4.27 4.27 0 0 0-2.14 3.41z" transform="translate(-134.17 -95.17)"/><path class="cls-5" d="M412.33 208.41l2-1.11v-8.91l-2 1.11v8.91zm0 11.44l2-1.11v-8.35l-2 1.11v8.35zm0-23.44l2-1.11v-7.91l-2 1.11v7.91zm0-11l2-1.11v-9.47l-2 1.11v9.47z"/><path class="cls-5" d="M546.5 322a2.34 2.34 0 0 1-1.11 1.66l-2.89 1.61v2.29l3.86-2.15a4.27 4.27 0 0 0 2.14-3.41v-5l-2 1.11zm1.1-61.87a2.21 2.21 0 0 0-2.22.11l-2.89 1.61v2.29l3.86-2.15.14-.07V268l2-1.11v-5.07a1.9 1.9 0 0 0-.89-1.69z" transform="translate(-134.17 -95.17)"/><path class="cls-1" d="M382.69 374l-108.42 59.96v-46.5l108.42-59.96V374z"/><path class="cls-3" d="M286.17 394.53v2.28l54.66-30.23v-2.29l-54.66 30.24zm0 11.53l54.66-30.23v-2.29l-54.66 30.24v2.28zm0 9.25l39.16-21.66v-2.28l-39.16 21.66v2.28z"/><path class="cls-1" d="M382.69 312l-108.42 59.96v-46.5l108.42-59.96V312z"/><path class="cls-3" d="M286.17 332.53v2.28l54.66-30.23v-2.29l-54.66 30.24zm0 11.53l54.66-30.23v-2.29l-54.66 30.24v2.28zm0 9.25l39.16-21.66v-2.28l-39.16 21.66v2.28z"/><path class="cls-6" d="M204.67 417.31l39.16-21.66v-2.28l-39.16 21.66v2.28z"/><path class="cls-3" d="M440 336.78c-6.6 2.87-12 12.83-12 22.25s5.35 14.72 12 11.85 12-12.83 12-22.25-5.37-14.72-12-11.85z" transform="translate(-134.17 -95.17)"/><path class="cls-5" d="M389 322.57l-59.49 33.15c-3.3 1.84-6 6-6 9.35v222c0 3.3 2.7 4.49 6 2.65L389 556.57z" transform="translate(-134.17 -95.17)"/><path class="cls-4" d="M441.16 354.56c1.57-.68 2.84-3 2.84-5.28s-1.27-3.5-2.84-2.82-2.84 3-2.84 5.28 1.27 3.51 2.84 2.82zm-1.59 4.16c-3.78 1.92-7 6.16-8.34 10.46 2.19 2.44 5.31 3.21 8.79 1.7 3.27-1.42 6.22-4.57 8.38-8.54-.73-4.22-4.4-5.87-8.83-3.62z" transform="translate(-134.17 -95.17)"/><path class="cls-4" d="M204.17 307.53v2.28l39.16-21.66v-2.28l-39.16 21.66zm0 136.78l39.16-21.66v-2.28l-39.16 21.66v2.28zm0-53.8l39.16-21.66v-2.29l-39.16 21.67v2.28zm0-26.9l39.16-21.66v-2.28l-39.16 21.66v2.28zm0-26.9l39.16-21.66v-2.29l-39.16 21.67v2.28zm0 80.7l39.16-21.66v-2.29l-39.16 21.67v2.28z"/><path class="cls-7" d="M339 365.81c-1.41.61-2.56 2.74-2.56 4.76s1.14 3.15 2.56 2.53 2.56-2.74 2.56-4.76-1.15-3.14-2.56-2.53zm19.5-9.46c-1.41.61-2.56 2.74-2.56 4.76s1.14 3.15 2.56 2.53 2.56-2.74 2.56-4.76-1.15-3.14-2.56-2.53zm-9.75 5c-1.41.61-2.56 2.74-2.56 4.76s1.14 3.15 2.56 2.53 2.56-2.74 2.56-4.76-1.15-3.14-2.56-2.53z" transform="translate(-134.17 -95.17)"/></svg>