<svg xmlns="http://www.w3.org/2000/svg" xmlns:xlink="http://www.w3.org/1999/xlink" width="35" height="35" viewBox="0 0 35 35"><defs><path id="a" d="M372.297 655c9.553 0 17.297 7.835 17.297 17.5S381.85 690 372.297 690 355 682.165 355 672.5s7.744-17.5 17.297-17.5z"/><path id="b" d="M379.88 674.866c-1.332-1.214-1.395-1.243-.248-2.704 1.423-1.813 3.284-4.137 1.638-4.137h-3.144c-.61 0-.654.338-.87.84-.786 1.82-2.28 4.177-2.847 3.817-.594-.376-.322-1.865-.276-4.08.012-.584.008-.985-.901-1.193a6.44 6.44 0 0 0-1.429-.159c-1.795 0-3.033.739-2.33.868 1.24.227 1.122 2.863.833 4.001-.504 1.982-2.398-1.57-3.187-3.338-.19-.425-.248-.756-.928-.756h-2.57c-.388 0-.621.125-.621.4 0 .467 2.338 5.211 4.569 7.576 2.176 2.307 4.328 2.1 5.824 2.1.481 0 .678-.315.672-.71-.024-1.486.564-2.286 1.626-1.243 1.175 1.154 1.419 1.953 2.845 1.953h2.527c.638 0 .89-.202.89-.518 0-.67-1.123-1.85-2.074-2.717z"/></defs><use fill="#566c9b" xlink:href="#a" transform="translate(-355 -655)"/><use fill="#fff" xlink:href="#b" transform="translate(-355 -655)"/></svg>