<svg xmlns="http://www.w3.org/2000/svg" xmlns:xlink="http://www.w3.org/1999/xlink" width="35" height="35" viewBox="0 0 35 35"><defs><path id="a" d="M470.297 655c9.553 0 17.297 7.835 17.297 17.5S479.85 690 470.297 690 453 682.165 453 672.5s7.744-17.5 17.297-17.5z"/><path id="b" d="M468.763 674.9v-5.1l5.169 2.546zm6.858-8.17c-2.328-.157-7.514-.156-9.84 0-2.518.17-2.814 1.67-2.833 5.62.019 3.943.313 5.45 2.833 5.62 2.326.156 7.512.157 9.84 0 2.518-.17 2.815-1.67 2.833-5.62-.018-3.943-.313-5.45-2.833-5.62z"/></defs><use fill="#c91516" xlink:href="#a" transform="translate(-453 -655)"/><use fill="#fff" xlink:href="#b" transform="translate(-453 -655)"/></svg>