<svg id="Слой_1" data-name="Слой 1" xmlns="http://www.w3.org/2000/svg" width="47" height="57.09" viewBox="0 0 47 57.09">
  <defs>
    <style>
      .cls-1 {
        fill: #0081cb;
      }
    </style>
  </defs>
  <title>strategi</title>
  <g>
    <path class="cls-1" d="M38.5,29.17h-19a10,10,0,1,1,0-20H33.25l-2.77,2.77,2.12,2.12,6.3-6.3-6.3-6.3L30.48,3.58l2.6,2.6H19.5a13,13,0,1,0,0,26h19a10,10,0,0,1,0,20h-17v3h17a13,13,0,0,0,0-26Z" transform="translate(-6.5 -1.46)"/>
    <polygon class="cls-1" points="8.22 47.19 5.39 50.02 2.56 47.19 0.44 49.31 3.27 52.14 0.44 54.97 2.56 57.09 5.39 54.26 8.22 57.09 10.34 54.97 7.51 52.14 10.34 49.31 8.22 47.19"/>
    <path class="cls-1" d="M48,2.17a5.5,5.5,0,1,0,5.5,5.5A5.51,5.51,0,0,0,48,2.17Zm0,8a2.5,2.5,0,1,1,2.5-2.5A2.5,2.5,0,0,1,48,10.17Z" transform="translate(-6.5 -1.46)"/>
  </g>
</svg>
