<svg id="Слой_1" data-name="Слой 1" xmlns="http://www.w3.org/2000/svg" width="60" height="60" viewBox="0 0 60 60">
  <defs>
    <style>
      .cls-1 {
        fill: #0081cb;
      }
    </style>
  </defs>
  <title>crm</title>
  <g>
    <circle class="cls-1" cx="8.6" cy="7.3" r="1.6"/>
    <circle class="cls-1" cx="15" cy="7.3" r="1.6"/>
    <circle class="cls-1" cx="21.4" cy="7.3" r="1.6"/>
    <path class="cls-1" d="M0,0V60H60V0ZM3,57V15H19V57Zm54,0H22V15H57ZM22,12H3V3H57v9Z"/>
    <rect class="cls-1" x="6.75" y="20" width="8.5" height="3"/>
    <rect class="cls-1" x="6.75" y="27" width="8.5" height="3"/>
    <rect class="cls-1" x="6.75" y="34" width="8.5" height="3"/>
    <rect class="cls-1" x="6.75" y="41" width="8.5" height="3"/>
    <rect class="cls-1" x="6.75" y="48" width="8.5" height="3"/>
    <rect class="cls-1" x="26" y="20" width="28" height="3"/>
    <rect class="cls-1" x="26" y="27" width="19" height="3"/>
    <rect class="cls-1" x="26" y="34" width="28" height="3"/>
    <rect class="cls-1" x="26" y="41" width="28" height="3"/>
    <rect class="cls-1" x="26" y="48" width="19" height="3"/>
  </g>
</svg>
