<svg id="Слой_1" data-name="Слой 1" xmlns="http://www.w3.org/2000/svg" width="58.62" height="57.72" viewBox="0 0 58.62 57.72">
  <defs>
    <style>
      .cls-1 {
        fill: #0081cb;
      }
    </style>
  </defs>
  <title>name</title>
  <g>
    <path class="cls-1" d="M25.27,26.61a1.49,1.49,0,0,0-.38.54l-5.1,13,13-5.1a1.48,1.48,0,0,0,.55-.38h0L58.12,9.81l-8-8L25.27,26.6Zm-.16,8.18,2.36-6,3.63,3.63ZM50.09,6l3.79,3.79L33.3,30.39,29.51,26.6Z" transform="translate(0.5 -1.78)"/>
    <polygon class="cls-1" points="45.05 54.72 3 54.72 3 12.67 32.63 12.67 32.63 9.67 0 9.67 0 57.72 48.05 57.72 48.05 27.72 45.05 27.72 45.05 54.72"/>
  </g>
</svg>
