<svg id="Слой_1" data-name="Слой 1" xmlns="http://www.w3.org/2000/svg" width="34.33" height="41" viewBox="0 0 34.33 41">
  <defs>
    <style>
      .cls-1 {
        fill: #494b4c;
      }

      .cls-2 {
        fill: #5b5d5e;
      }

      .cls-3 {
        fill: #979696;
      }
    </style>
  </defs>
  <title>file_pdf_black</title>
  <polygon class="cls-1" points="24.72 0 0 0 0 41 34.33 41 34.33 9.61 24.72 0"/>
  <polygon class="cls-2" points="34.33 9.61 24.72 0 24.67 0 24.67 9.67 34.33 9.67 34.33 9.61"/>
  <g>
    <path class="cls-3" d="M6.88,27.32v-7.7h3.4A2.7,2.7,0,0,1,13,22.25q0,.13,0,.26a2.69,2.69,0,0,1-2.56,2.82H8.89v2Zm3.4-3.74c.53,0,.84-.56.84-1.12s-.29-1.09-.84-1.09H8.86v2.21Z"/>
    <path class="cls-3" d="M17.33,19.64a3.67,3.67,0,0,1,3.8,3.53q0,.14,0,.28a3.66,3.66,0,0,1-3.43,3.88H14.39V19.64Zm0,5.88a1.86,1.86,0,0,0,1.8-1.91s0-.06,0-.09a1.86,1.86,0,0,0-1.71-2h-1v4.07Z"/>
    <path class="cls-3" d="M27.13,24.85H24.67v2.49h-2v-7.7h4.81v1.75H24.67V23.1h2.46Z"/>
  </g>
</svg>
