<svg id="Слой_1" data-name="Слой 1" xmlns="http://www.w3.org/2000/svg" width="60" height="60" viewBox="0 0 60 60">
  <defs>
    <style>
      .cls-1 {
        fill: #0081cb;
      }
    </style>
  </defs>
  <title>land</title>
  <g>
    <circle class="cls-1" cx="8.6" cy="7.3" r="1.6"/>
    <circle class="cls-1" cx="15" cy="7.3" r="1.6"/>
    <circle class="cls-1" cx="21.4" cy="7.3" r="1.6"/>
    <polygon class="cls-1" points="31.5 54.26 31.5 45.5 28.5 45.5 28.5 54.26 24.06 49.82 21.94 51.94 30 60 38.06 51.94 35.94 49.82 31.5 54.26"/>
    <polygon class="cls-1" points="0 0 0 47 18.5 47 18.5 44 3 44 3 3 57 3 57 44 41.5 44 41.5 47 60 47 60 0 0 0"/>
    <rect class="cls-1" x="28.5" y="35.56" width="3" height="5.91"/>
    <rect class="cls-1" x="28.5" y="25.63" width="3" height="5.91"/>
    <rect class="cls-1" x="28.5" y="15.7" width="3" height="5.91"/>
  </g>
</svg>
