<svg xmlns="http://www.w3.org/2000/svg" xmlns:xlink="http://www.w3.org/1999/xlink" width="55" height="55" viewBox="0 0 55 55"><defs><path id="u3cva" d="M687.5 1961c15.188 0 27.5 12.312 27.5 27.5s-12.312 27.5-27.5 27.5-27.5-12.312-27.5-27.5 12.312-27.5 27.5-27.5z"/><path id="u3cvb" d="M700 1989h-3c0 4.97-4.03 9-9 9a8.96 8.96 0 0 1-6.179-2.468l2.004-2.231A5.977 5.977 0 0 0 688 1995c3.309 0 6-2.692 6-6.001h-3l4.463-4.969zm-15 0l-4.463 4.969L676 1989h3c0-4.97 4.03-9 9-9 2.394 0 4.565.942 6.179 2.468l-2.004 2.231A5.976 5.976 0 0 0 688 1983c-3.309 0-6 2.692-6 6.001z"/></defs><g><g transform="translate(-660 -1961)"><use fill="#ececec" xlink:href="#u3cva"/></g><g transform="translate(-660 -1961)"><use fill="#0081cb" xlink:href="#u3cvb"/></g></g></svg>