<svg xmlns="http://www.w3.org/2000/svg" viewBox="0 0 515.58 91.2"><defs><style>.cls-1{fill:#0d1c2c;}.cls-1,.cls-2{fill-rule:evenodd;}.cls-2{fill:#0081cc;}</style></defs><title>Ресурс 1</title><g id="Слой_2" data-name="Слой 2"><g id="Слой_1-2" data-name="Слой 1"><path class="cls-1" d="M490,67.21a23.21,23.21,0,0,1-5.82-1.63,22.6,22.6,0,0,1-4.83-2.81,21.06,21.06,0,0,1-6.88-9.12,19.72,19.72,0,0,1-1.31-6.69,20.37,20.37,0,0,1,1.56-8.23,21,21,0,0,1,6-8,22.32,22.32,0,0,1,4.44-2.85h0l.37-.18h0l.37-.17h0l.6-.26a23.36,23.36,0,0,1,7.51-1.67,23.84,23.84,0,0,1,5.35.31,23,23,0,0,1,9.16,3.72A21.12,21.12,0,0,1,513.2,37a20.4,20.4,0,0,1,2.31,7.73,19.79,19.79,0,0,1-.3,5.56,20.36,20.36,0,0,1-1.87,5.36,20.88,20.88,0,0,1-4.43,5.78,22.27,22.27,0,0,1-3.83,2.83,22.87,22.87,0,0,1-7.39,2.74,23.68,23.68,0,0,1-7.65.16ZM296.94,37.5a33.91,33.91,0,0,0-11.65-3.61,22.11,22.11,0,0,0-6.59,0c-1.49.28-3.22,1-3.81,2.5a3.3,3.3,0,0,0,1,3.65c2.15,2,5.63,2.21,8.38,2.51,1.31.14,2.64.3,4,.51A22.1,22.1,0,0,1,298,46.57a10.36,10.36,0,0,1,4.3,7.63A11.2,11.2,0,0,1,301,60.49c-1.8,3.19-5.06,5-8.49,6a34.59,34.59,0,0,1-13.4.78A38.35,38.35,0,0,1,264.18,62l4.32-7.21a40.07,40.07,0,0,0,6.59,2.77A30.57,30.57,0,0,0,284.35,59c2.35,0,6.28-.36,7.78-2.58a2.74,2.74,0,0,0-.44-3.69c-1.74-1.55-5.43-1.91-7.64-2.13-1.58-.16-3.15-.33-4.71-.61a21,21,0,0,1-10.14-4.28,10.37,10.37,0,0,1-3.64-10.36,11.37,11.37,0,0,1,4.78-7,20.13,20.13,0,0,1,9.78-2.92,36,36,0,0,1,7.15.28,37.73,37.73,0,0,1,13.92,4.66l-4.24,7.1Zm155.34-7.9,9.29-6V66.9h-9.29V29.6ZM345.43,26.09V34.2H331.19V66.9H321.9V34.2H307.66V26.09ZM363,48.23a11.87,11.87,0,0,0,.65,4.17c1.53,4.11,5.69,6.3,9.88,6.29A10.26,10.26,0,0,0,382,54.57a10.62,10.62,0,0,0,1.75-6.35V26.09H393v22a20.2,20.2,0,0,1-2.57,10.32,18.15,18.15,0,0,1-10.71,8.09,22.53,22.53,0,0,1-6.43.91,21.71,21.71,0,0,1-10.57-2.7A16.9,16.9,0,0,1,354.4,54a23,23,0,0,1-.69-5.77V26.09H363V48.23ZM143.58,55.38h-13q0,5.76,0,11.52h-9.29V26.09h22.58A14.65,14.65,0,0,1,150,54a15.15,15.15,0,0,1-6.42,1.35Zm-13-21.18v13h12.21A6.48,6.48,0,0,0,148,44.56a6.43,6.43,0,0,0,1-2,6.59,6.59,0,0,0,.2-2.69,6.49,6.49,0,0,0-2.55-4.31,6.42,6.42,0,0,0-2.53-1.12,10.76,10.76,0,0,0-2.23-.21ZM195,54.68,205.72,66.9H194.07l-9.4-11.57h-7.39q0,5.79,0,11.58H168V26.09h22a18,18,0,0,1,3.58.34,14.42,14.42,0,0,1,6.28,2.95,14.65,14.65,0,0,1,4.64,6.71,14.91,14.91,0,0,1,0,9.26,14.51,14.51,0,0,1-4.5,6.63,15,15,0,0,1-4.93,2.7ZM188.5,34.2H177.28v13h11.89A6.78,6.78,0,0,0,193,46.16l.35-.24h0l.33-.27h0a6.48,6.48,0,0,0,1.72-7.5,6.48,6.48,0,0,0-3.08-3.22,8.76,8.76,0,0,0-3.86-.73Zm43.16,33a23.22,23.22,0,0,1-5.82-1.63A22.6,22.6,0,0,1,221,62.76a21.06,21.06,0,0,1-6.88-9.12,19.76,19.76,0,0,1-1.31-6.69,20.37,20.37,0,0,1,1.56-8.23,21,21,0,0,1,6-8,22.38,22.38,0,0,1,4.44-2.85h0l.37-.18h0l.37-.17h0l.6-.26a23.35,23.35,0,0,1,7.51-1.67,23.84,23.84,0,0,1,5.35.31,23,23,0,0,1,9.16,3.72A21.11,21.11,0,0,1,254.83,37a20.39,20.39,0,0,1,2.31,7.73,19.76,19.76,0,0,1-.3,5.56A20.36,20.36,0,0,1,255,55.7a20.9,20.9,0,0,1-4.43,5.78,22.27,22.27,0,0,1-3.83,2.83,22.87,22.87,0,0,1-7.39,2.74,23.68,23.68,0,0,1-7.65.16Zm3.39-8.43a13,13,0,0,0,5.47-1.19A12.58,12.58,0,0,0,246.4,52a11.94,11.94,0,0,0-.05-11.12,12.62,12.62,0,0,0-6.11-5.61,13.22,13.22,0,0,0-5.9-1.06,13,13,0,0,0-8.23,3.47,12.32,12.32,0,0,0-3,4.49,12,12,0,0,0,2.68,12.76,13.24,13.24,0,0,0,9.3,3.84Zm188-32.68a19.17,19.17,0,0,1,9.5,2.45,19.45,19.45,0,0,1,5.65,4.82,21.31,21.31,0,0,1,3.6,19.47,20.57,20.57,0,0,1-5.19,8.54,19.28,19.28,0,0,1-9.06,5,23.71,23.71,0,0,1-5.42.52H404.3V26.09Zm-1,8.11H413.6V58.79h8.93a11.46,11.46,0,0,0,4-.71,10.14,10.14,0,0,0,5-4.17,14.1,14.1,0,0,0,2-7.8,15,15,0,0,0-.68-4.15,10.51,10.51,0,0,0-10.75-7.76Zm71.35,24.57a13,13,0,0,0,5.47-1.19A12.58,12.58,0,0,0,504.78,52a11.94,11.94,0,0,0-.05-11.12,12.63,12.63,0,0,0-6.12-5.61,13.22,13.22,0,0,0-5.9-1.06,13,13,0,0,0-8.23,3.47,12.33,12.33,0,0,0-3,4.49,12,12,0,0,0,2.68,12.76,13.24,13.24,0,0,0,9.3,3.84Z"/><path fill="#0081cc" class="cls-2" d="M45.6,91.2A45.61,45.61,0,0,0,0,45.6L67.44,2.28A36.38,36.38,0,0,0,54.72,0H0V91.2ZM50.08,73h4.64A36.49,36.49,0,0,0,67.44,2.28C61.68,25.84,55.84,49.4,50.08,73Z"/></g></g></svg>