<svg id="Слой_1" data-name="Слой 1" xmlns="http://www.w3.org/2000/svg" width="28.83" height="42.39" viewBox="0 0 28.83 42.39">
  <defs>
    <style>
      .cls-1 {
        fill: #c9c9c9;
      }
    </style>
  </defs>
  <title>mouse_grey</title>
  <g>
    <path class="cls-1" d="M14.5,9.11a1.17,1.17,0,0,0-1.17,1.17v4.67a1.17,1.17,0,1,0,2.33,0V10.28A1.17,1.17,0,0,0,14.5,9.11Z" transform="translate(-0.08 -0.31)"/>
    <path class="cls-1" d="M14.5.31A14.43,14.43,0,0,0,.08,14.72V28.28a14.42,14.42,0,0,0,28.83,0V14.72A14.43,14.43,0,0,0,14.5.31Zm12.92,28a12.92,12.92,0,0,1-25.83,0V14.72a12.92,12.92,0,0,1,25.83,0Z" transform="translate(-0.08 -0.31)"/>
  </g>
</svg>
