<svg id="Слой_1" data-name="Слой 1" xmlns="http://www.w3.org/2000/svg" width="56" height="56" viewBox="0 0 56 56">
  <defs>
    <style>
      .cls-1 {
        fill: #0081cb;
      }
    </style>
  </defs>
  <title>smm</title>
  <path class="cls-1" d="M52.5,47a5.46,5.46,0,0,0-2.68.7l-8.57-8.57a14.46,14.46,0,0,0,0-18.26l8.57-8.57a5.51,5.51,0,1,0-2.12-2.12l-8.57,8.57a14.45,14.45,0,0,0-18.26,0L12.3,10.18a5.51,5.51,0,1,0-2.12,2.12l8.57,8.57a14.47,14.47,0,0,0,0,18.27L10.18,47.7a5.51,5.51,0,1,0,2.12,2.12l8.56-8.56a14.48,14.48,0,0,0,18.27,0l8.57,8.57A5.5,5.5,0,1,0,52.5,47Zm0-42A2.5,2.5,0,1,1,50,7.5,2.5,2.5,0,0,1,52.5,5ZM5,7.5A2.5,2.5,0,1,1,7.5,10,2.5,2.5,0,0,1,5,7.5Zm25,11a11.49,11.49,0,0,1,8.66,19,8.76,8.76,0,0,0-4.47-6.49,5.85,5.85,0,1,0-8.37,0,8.76,8.76,0,0,0-4.47,6.49A11.49,11.49,0,0,1,30,18.5Zm0,11.33A2.85,2.85,0,1,1,32.85,27,2.85,2.85,0,0,1,30,29.83ZM7.5,55A2.5,2.5,0,1,1,10,52.5,2.5,2.5,0,0,1,7.5,55ZM24.25,40V38.74a5.75,5.75,0,1,1,11.5,0V40a11.46,11.46,0,0,1-11.5,0ZM52.5,55A2.5,2.5,0,1,1,55,52.5,2.5,2.5,0,0,1,52.5,55Z" transform="translate(-2 -2)"/>
</svg>
