<svg id="Слой_1" data-name="Слой 1" xmlns="http://www.w3.org/2000/svg" width="58.3" height="58.59" viewBox="0 0 58.3 58.59">
  <defs>
    <style>
      .cls-1 {
        fill: #0081cb;
      }
    </style>
  </defs>
  <title>target</title>
  <path class="cls-1" d="M50.23,20.45l9.57-9.57L51.59,8.27,49,.05,39.4,9.63l2.1,6.6-2.28,2.28a22.83,22.83,0,1,0,2.14,2.1l2.26-2.26ZM49.4,17,46,16l4.8-4.8,3.39,1.08ZM47.61,5.66,48.69,9l-4.8,4.8-1.08-3.39ZM44.18,35.8A19.88,19.88,0,1,1,37.1,20.64L31.53,26.2a12,12,0,1,0,2.16,2.08l5.54-5.54A19.73,19.73,0,0,1,44.18,35.8Zm-10.82,0a9,9,0,1,1-4-7.46l-6.55,6.55A1.5,1.5,0,1,0,25,37l6.59-6.59A9,9,0,0,1,33.35,35.8Z" transform="translate(-1.5 -0.05)"/>
</svg>
