<svg id="Слой_1" data-name="Слой 1" xmlns="http://www.w3.org/2000/svg" width="60" height="45" viewBox="0 0 60 45">
  <defs>
    <style>
      .cls-1 {
        fill: #0081cb;
      }
    </style>
  </defs>
  <title>context</title>
  <g>
    <polygon class="cls-1" points="57 25 55.5 25 55.5 28 60 28 60 23.5 57 23.5 57 25"/>
    <rect class="cls-1" x="10.17" y="25" width="5.67" height="3"/>
    <rect class="cls-1" x="21.5" y="25" width="5.67" height="3"/>
    <rect class="cls-1" x="44.17" y="25" width="5.67" height="3"/>
    <rect class="cls-1" x="32.83" y="25" width="5.67" height="3"/>
    <polygon class="cls-1" points="3 23.5 0 23.5 0 28 4.5 28 4.5 25 3 25 3 23.5"/>
    <rect class="cls-1" y="10.83" width="3" height="6.33"/>
    <polygon class="cls-1" points="0 4.5 3 4.5 3 3 4.5 3 4.5 0 0 0 0 4.5"/>
    <rect class="cls-1" x="44.17" width="5.67" height="3"/>
    <rect class="cls-1" x="10.17" width="5.67" height="3"/>
    <rect class="cls-1" x="32.83" width="5.67" height="3"/>
    <rect class="cls-1" x="21.5" width="5.67" height="3"/>
    <polygon class="cls-1" points="55.5 0 55.5 3 57 3 57 4.5 60 4.5 60 0 55.5 0"/>
    <rect class="cls-1" x="57" y="10.83" width="3" height="6.33"/>
    <rect class="cls-1" x="8.5" y="9" width="43" height="3"/>
    <rect class="cls-1" x="8.5" y="16" width="29.18" height="3"/>
    <rect class="cls-1" x="8.5" y="35" width="43" height="3"/>
    <rect class="cls-1" x="8.5" y="42" width="29.18" height="3"/>
  </g>
</svg>
