<svg id="Слой_1" data-name="Слой 1" xmlns="http://www.w3.org/2000/svg" width="58.5" height="49.47" viewBox="0 0 58.5 49.47">
  <defs>
    <style>
      .cls-1 {
        fill: #0081cb;
      }
    </style>
  </defs>
  <title>mobale</title>
  <g>
    <path class="cls-1" d="M55.47,22.06H46.86V5.27H7.15V33.1H39.77v3.8H.75v3h39V51a3.79,3.79,0,0,0,3.78,3.78H55.47A3.79,3.79,0,0,0,59.25,51V25.84A3.79,3.79,0,0,0,55.47,22.06Zm-45.32,8V8.27H43.86V22.06h-.31a3.79,3.79,0,0,0-3.78,3.78V30.1ZM56.25,51a.79.79,0,0,1-.78.78H43.55a.79.79,0,0,1-.78-.78V25.84a.79.79,0,0,1,.78-.78H55.47a.79.79,0,0,1,.78.78Z" transform="translate(-0.75 -5.27)"/>
    <circle class="cls-1" cx="48.76" cy="43.03" r="1.19"/>
  </g>
</svg>
