<svg id="Слой_1" data-name="Слой 1" xmlns="http://www.w3.org/2000/svg" width="55.22" height="61" viewBox="0 0 55.22 61">
  <defs>
    <style>
      .cls-1 {
        fill: #0081cb;
      }
    </style>
  </defs>
  <title>android</title>
  <g>
    <path class="cls-1" d="M14.84,44.06a5,5,0,0,0,4.55,5v6.59a4.71,4.71,0,0,0,1.5,3.44,5,5,0,0,0,3.44,1.39,4.87,4.87,0,0,0,4.89-4.82V49.11h1.56v6.57A4.71,4.71,0,0,0,32.19,59a5,5,0,0,0,3.52,1.47h0a5,5,0,0,0,3.47-1.44,4.75,4.75,0,0,0,1.42-3.38V49.08a5.05,5.05,0,0,0,4.56-5v-23H14.83Zm27.33-20v20a2,2,0,0,1-2,2H37.61v9.56a1.77,1.77,0,0,1-.54,1.25,1.93,1.93,0,0,1-1.36.57h0a2,2,0,0,1-1.4-.59,1.74,1.74,0,0,1-.53-1.23V46.11H26.22v9.57a1.89,1.89,0,0,1-1.89,1.82A2,2,0,0,1,23,56.94a1.74,1.74,0,0,1-.57-1.26V46.11H19.88a2,2,0,0,1-2-2v-20Z" transform="translate(-2.39 0.5)"/>
    <path class="cls-1" d="M52.7,21.06h0a5,5,0,0,0-3.48,1.46,4.78,4.78,0,0,0-1.43,3.4V39.81a4.61,4.61,0,0,0,1.37,3.28,5,5,0,0,0,3.55,1.46,4.84,4.84,0,0,0,4.92-4.74V25.9A5,5,0,0,0,52.7,21.06Zm1.91,18.76a1.84,1.84,0,0,1-1.92,1.74A2,2,0,0,1,51.27,41a1.62,1.62,0,0,1-.49-1.16V25.91a1.8,1.8,0,0,1,.55-1.27,2,2,0,0,1,1.37-.58h0a1.94,1.94,0,0,1,1.91,1.85Z" transform="translate(-2.39 0.5)"/>
    <path class="cls-1" d="M7.31,21.06h0a5,5,0,0,0-3.48,1.46,4.78,4.78,0,0,0-1.43,3.4V39.82a4.61,4.61,0,0,0,1.5,3.41,5,5,0,0,0,3.42,1.33,4.84,4.84,0,0,0,4.92-4.74V25.91a4.78,4.78,0,0,0-1.47-3.44A4.91,4.91,0,0,0,7.31,21.06ZM9.22,39.82a1.84,1.84,0,0,1-1.92,1.74A2,2,0,0,1,5.93,41a1.62,1.62,0,0,1-.54-1.21V25.91a1.8,1.8,0,0,1,.55-1.27,2,2,0,0,1,1.37-.58h0a2,2,0,0,1,1.35.56,1.8,1.8,0,0,1,.57,1.29Z" transform="translate(-2.39 0.5)"/>
    <path class="cls-1" d="M38.69,5.36l1.51-3A2,2,0,0,0,40.13.42a1.91,1.91,0,0,0-3.34.14l-1.53,3a15.71,15.71,0,0,0-10.49,0l-1.53-3A1.91,1.91,0,0,0,19.88.42a2,2,0,0,0-.08,1.94l1.51,3a13.24,13.24,0,0,0-6.48,11.58v1.5H45.17v-1.5A13.25,13.25,0,0,0,38.69,5.36ZM30,15.44H17.92C18.36,12,20.36,9.27,24,7.23l.68-.36a12.49,12.49,0,0,1,10.61,0l.69.36c3.65,2,5.65,4.74,6.09,8.21Z" transform="translate(-2.39 0.5)"/>
    <circle class="cls-1" cx="22.32" cy="11.35" r="1.54"/>
    <path class="cls-1" d="M35.68,9.31a1.54,1.54,0,1,0,1.54,1.54A1.54,1.54,0,0,0,35.68,9.31Z" transform="translate(-2.39 0.5)"/>
  </g>
</svg>
