<svg id="Слой_1" data-name="Слой 1" xmlns="http://www.w3.org/2000/svg" width="38.41" height="63" viewBox="0 0 38.41 63">
  <defs>
    <style>
      .cls-1 {
        fill: #0081cb;
      }
    </style>
  </defs>
  <title>phone</title>
  <g>
    <path class="cls-1" d="M42.71-1.5H17.29A6.51,6.51,0,0,0,10.79,5V55a6.51,6.51,0,0,0,6.5,6.5H42.71a6.51,6.51,0,0,0,6.5-6.5V5A6.51,6.51,0,0,0,42.71-1.5ZM46.21,55a3.5,3.5,0,0,1-3.5,3.5H17.29a3.5,3.5,0,0,1-3.5-3.5V5a3.5,3.5,0,0,1,3.5-3.5H42.71A3.5,3.5,0,0,1,46.21,5Z" transform="translate(-10.79 1.5)"/>
    <path class="cls-1" d="M17.5,24.61h25V5.89h-25Zm3-15.71h19V21.61h-19Z" transform="translate(-10.79 1.5)"/>
    <polygon class="cls-1" points="9.71 30.5 6.71 30.5 6.71 33.5 9.71 33.5 28.7 33.5 31.7 33.5 31.7 30.5 28.7 30.5 9.71 30.5"/>
    <polygon class="cls-1" points="9.71 37.5 6.71 37.5 6.71 40.5 9.71 40.5 28.7 40.5 31.7 40.5 31.7 37.5 28.7 37.5 9.71 37.5"/>
    <polygon class="cls-1" points="20.2 47.5 20.2 44.5 18.59 44.5 8.32 44.5 6.71 44.5 6.71 47.5 8.32 47.5 18.59 47.5 20.2 47.5"/>
    <circle class="cls-1" cx="19.21" cy="53.5" r="2"/>
  </g>
</svg>
