<svg id="Слой_1" data-name="Слой 1" xmlns="http://www.w3.org/2000/svg" width="60" height="59.37" viewBox="0 0 60 59.37">
  <defs>
    <style>
      .cls-1 {
        fill: #0081cb;
      }
    </style>
  </defs>
  <title>hosting</title>
  <g>
    <circle class="cls-1" cx="19.6" cy="10" r="1.6"/>
    <circle class="cls-1" cx="30" cy="10" r="1.6"/>
    <circle class="cls-1" cx="40.4" cy="10" r="1.6"/>
    <path class="cls-1" d="M60,20.31V.31H0v20H28.5v3.92H0v20H28.5v4.38H17v4H5.38v3H17v4H43v-4H54.63v-3H43v-4H31.5V44.23H60v-20H31.5V20.31ZM40,56.69H20V51.61H40ZM57,41.23H3v-14H57ZM3,3.31H57v14H3Z" transform="translate(0 -0.31)"/>
    <circle class="cls-1" cx="19.6" cy="33.92" r="1.6"/>
    <circle class="cls-1" cx="30" cy="33.92" r="1.6"/>
    <circle class="cls-1" cx="40.4" cy="33.92" r="1.6"/>
  </g>
</svg>
