<svg id="Слой_1" data-name="Слой 1" xmlns="http://www.w3.org/2000/svg" width="61.5" height="61.5" viewBox="0 0 61.5 61.5">
  <defs>
    <style>
      .cls-1 {
        fill: #0081cb;
      }
    </style>
  </defs>
  <title>support</title>
  <g>
    <circle class="cls-1" cx="8.6" cy="7.3" r="1.6"/>
    <circle class="cls-1" cx="15" cy="7.3" r="1.6"/>
    <circle class="cls-1" cx="21.4" cy="7.3" r="1.6"/>
    <path class="cls-1" d="M60.5,34.76l-1.22-.42c-2.23-.75-3-1.07-3.53-2.28s-.16-2,.88-4.11c.18-.36.37-.75.57-1.16l.45-1-5.5-5.5-1,.46-1.15.56a17.34,17.34,0,0,1-2.06.92V0H0V48H22.28a16.56,16.56,0,0,1-.91,2c-.18.36-.37.75-.57,1.16l-.45,1,5.5,5.5,1-.45,1.16-.57c2.11-1.05,2.9-1.39,4.12-.88s1.53,1.3,2.28,3.53c.13.38.27.79.42,1.22l.35,1h7.77l.35-1c.15-.43.29-.83.42-1.21.75-2.24,1.08-3,2.3-3.55s2-.16,4.08.89l1.17.57,1,.46,5.5-5.5-.45-1c-.2-.41-.39-.8-.57-1.16-1-2.11-1.38-2.9-.88-4.11s1.3-1.53,3.53-2.28l1.22-.42,1-.36V35.11ZM3,3H45V21.62a8,8,0,0,1-1.34-2.9c-.13-.38-.27-.79-.42-1.22l-.35-1H35.11l-.35,1c-.15.43-.29.83-.42,1.22-.7,2.07-1,2.91-2,3.42H32l-.21.21c-1.07.35-1.9,0-3.85-1l-1.16-.57-1-.45-5.5,5.5.45,1c.19.41.39.79.57,1.16,1,2.11,1.39,2.9.89,4.11s-1.3,1.53-3.53,2.28l-1.22.42-1,.35v7.77l1,.35,1.22.42A8,8,0,0,1,21.62,45H3ZM58.5,40.76l-.17.06c-2.31.78-4.3,1.45-5.35,4s-.11,4.41,1,6.59l.08.17L51.55,54l-.17-.08c-2.18-1.08-4.06-2-6.58-1s-3.21,3.05-4,5.36l-.06.17H37.24l-.06-.17c-.78-2.31-1.45-4.3-4-5.35s-4.42-.11-6.6,1l-.16.08L24,51.55l.08-.16c1.09-2.18,2-4.06,1-6.6s-3-3.2-5.35-4l-.17-.06V37.24l.17-.06c2.31-.78,4.3-1.45,5.35-4s.11-4.42-1-6.6L24,26.45,26.45,24l.16.08c2.1,1,3.92,1.94,6.3,1.08l.25-.09,0,0,.27-.11h0c2.29-1.08,2.94-3,3.68-5.22l.06-.17h3.52l.06.17c.78,2.31,1.44,4.3,4,5.35s4.42.11,6.6-1l.15-.08L54,26.45l-.08.16c-1.08,2.18-2,4.07-1,6.6s3,3.19,5.34,4l.18.06Z"/>
    <path class="cls-1" d="M39,30.5A8.5,8.5,0,1,0,47.5,39,8.51,8.51,0,0,0,39,30.5Zm0,14A5.5,5.5,0,1,1,44.5,39,5.51,5.51,0,0,1,39,44.5Z"/>
  </g>
</svg>
