<svg id="Слой_1" data-name="Слой 1" xmlns="http://www.w3.org/2000/svg" width="59" height="59.17" viewBox="0 0 59 59.17">
  <defs>
    <style>
      .cls-1 {
        fill: #0081cb;
      }
    </style>
  </defs>
  <title>admin</title>
  <g>
    <path class="cls-1" d="M58.5,39l-.91-.31c-1.69-.57-2.08-.75-2.37-1.46s-.14-1.14.64-2.71l.42-.86.46-1L52.3,28.25l-1,.45-.86.42c-1.57.78-2,.93-2.71.64s-.9-.71-1.46-2.37c-.1-.28-.2-.59-.31-.9l-.35-1H39.35l-.35,1c-.11.32-.21.62-.31.91-.56,1.66-.76,2.08-1.46,2.37-.54.22-.92.18-1.78-.2A21.73,21.73,0,0,0,28.53,26a13.62,13.62,0,1,0-12.71,0A21.74,21.74,0,0,0,.5,46.72V53h3V46.72A18.72,18.72,0,0,1,22.2,28a18.41,18.41,0,0,1,8.62,2.13L28.25,32.7l.45,1,.42.86c.78,1.57.93,2,.64,2.71s-.71.9-2.37,1.46L26.5,39l-1,.35v6.29l1,.35.9.31c1.66.56,2.08.76,2.37,1.46s.14,1.15-.64,2.71l-.42.86-.46,1,4.45,4.45,1-.45.86-.42c1.57-.78,2-.93,2.71-.64s.9.71,1.46,2.37c.1.29.2.59.31.91l.35,1h6.29l.35-1c.11-.32.21-.62.31-.9.56-1.67.76-2.08,1.47-2.38s1.12-.13,2.69.64l.87.42,1,.46,4.45-4.45-.45-1-.42-.86c-.78-1.57-.93-2-.64-2.71s.71-.9,2.37-1.46l.9-.31,1-.35V39.35ZM11.58,14A10.62,10.62,0,1,1,22.2,24.57,10.63,10.63,0,0,1,11.58,14ZM56.5,43.52c-1.67.56-3.23,1.13-4,3.11s-.12,3.48.66,5.06l-1.44,1.44c-1.58-.78-3.08-1.48-5.05-.67s-2.55,2.38-3.11,4h-2c-.56-1.67-1.13-3.22-3.11-4s-3.48-.12-5.06.66l-1.43-1.43c.78-1.57,1.48-3.08.66-5.06s-2.38-2.55-4-3.11v-2c1.67-.56,3.22-1.13,4-3.11s.12-3.48-.66-5.06l1.44-1.44c1.58.78,3.08,1.48,5.06.66s2.54-2.38,3.11-4h2c.56,1.67,1.13,3.23,3.11,4s3.48.12,5.06-.66l1.43,1.44c-.78,1.58-1.48,3.08-.66,5.06s2.38,2.54,4,3.11Z" transform="translate(-0.5 -0.33)"/>
    <path class="cls-1" d="M42.5,35.83a6.67,6.67,0,1,0,6.67,6.67A6.68,6.68,0,0,0,42.5,35.83Zm0,10.33a3.67,3.67,0,1,1,3.67-3.67A3.67,3.67,0,0,1,42.5,46.17Z" transform="translate(-0.5 -0.33)"/>
  </g>
</svg>
