<svg id="Слой_1" data-name="Слой 1" xmlns="http://www.w3.org/2000/svg" width="532.63" height="615.03" viewBox="0 0 532.63 615.03">
  <defs>
    <style>
      .cls-1 {
        fill: #f2f2f2;
      }

      .cls-2 {
        fill: #ffcc02;
      }

      .cls-3 {
        fill: #0081cb;
      }

      .cls-4 {
        fill: #30b5ef;
        opacity: 0.41;
      }

      .cls-5 {
        fill: #fff;
      }

      .cls-6 {
        fill: #d5d5d5;
      }
    </style>
  </defs>
  <title>1</title>
  <polygon class="cls-1" points="0 153.76 0 461.27 266.32 615.03 532.63 461.27 532.63 153.76 266.32 0 0 153.76"/>
  <path class="cls-2" d="M225.47,264.69l-60.52-34.94V159.86l60.52-34.94L286,159.86v69.88ZM193.95,213l31.52,18.2L257,213v-36.4l-31.52-18.2-31.52,18.2Z" transform="translate(-134.13 -93.13)"/>
  <path class="cls-3" d="M464.68,199.25,270,307.72c-3.3,1.84-6,6-6,9.35v222c0,3.3,2.7,4.49,6,2.65L464.68,433.25c3.3-1.84,6-6,6-9.35v-222C470.69,198.6,468,197.41,464.68,199.25Z" transform="translate(-134.13 -93.13)"/>
  <g>
    <polygon class="cls-4" points="229.37 183.15 189.72 205.24 189.72 210.96 229.37 188.87 229.37 183.15"/>
    <polygon class="cls-4" points="184.87 207.94 144.87 230.23 144.87 235.95 184.87 213.67 184.87 207.94"/>
    <polygon class="cls-4" points="253.37 169.77 234.22 180.44 234.22 186.17 253.37 175.5 253.37 169.77"/>
    <polygon class="cls-4" points="166.37 335.66 144.87 347.64 144.87 353.36 166.37 341.38 166.37 335.66"/>
    <polygon class="cls-4" points="171.22 338.68 312.87 259.75 312.87 254.03 171.22 332.95 171.22 338.68"/>
    <polygon class="cls-4" points="288.37 167.04 247.72 189.69 247.72 195.42 288.37 172.77 288.37 167.04"/>
    <polygon class="cls-4" points="242.87 192.4 167.72 234.27 167.72 239.99 242.87 198.12 242.87 192.4"/>
    <polygon class="cls-4" points="162.87 236.97 144.87 247 144.87 252.73 162.87 242.7 162.87 236.97"/>
    <polygon class="cls-4" points="293.22 164.34 293.22 170.06 312.87 159.12 312.87 153.39 293.22 164.34"/>
    <polygon class="cls-4" points="210.87 232.72 210.87 227 189.22 239.06 189.22 244.79 210.87 232.72"/>
    <polygon class="cls-4" points="184.37 241.77 144.87 263.77 144.87 269.5 184.37 247.49 184.37 241.77"/>
    <polygon class="cls-4" points="254.37 202.76 215.72 224.3 215.72 230.02 254.37 208.49 254.37 202.76"/>
    <polygon class="cls-4" points="166.37 268.57 144.87 280.55 144.87 286.27 166.37 274.29 166.37 268.57"/>
    <polygon class="cls-4" points="171.22 271.59 312.87 192.66 312.87 186.94 171.22 265.86 171.22 271.59"/>
    <polygon class="cls-4" points="183.87 275.59 144.87 297.32 144.87 303.04 183.87 281.31 183.87 275.59"/>
    <polygon class="cls-4" points="188.72 278.61 312.87 209.44 312.87 203.71 188.72 272.89 188.72 278.61"/>
    <polygon class="cls-4" points="162.37 304.34 144.87 314.09 144.87 319.82 162.37 310.07 162.37 304.34"/>
    <polygon class="cls-4" points="167.22 307.36 312.87 226.21 312.87 220.49 167.22 301.64 167.22 307.36"/>
    <polygon class="cls-4" points="144.87 420.45 165.87 408.75 165.87 403.03 144.87 414.73 144.87 420.45"/>
    <polygon class="cls-4" points="170.72 406.05 312.87 326.85 312.87 321.12 170.72 400.32 170.72 406.05"/>
    <polygon class="cls-4" points="183.87 376.23 144.87 397.96 144.87 403.68 183.87 381.95 183.87 376.23"/>
    <polygon class="cls-4" points="188.72 379.25 312.87 310.07 312.87 304.35 188.72 373.52 188.72 379.25"/>
    <polygon class="cls-4" points="167.72 374.17 312.87 293.3 312.87 287.58 167.72 368.45 167.72 374.17"/>
    <polygon class="cls-4" points="162.87 371.15 144.87 381.18 144.87 386.91 162.87 376.88 162.87 371.15"/>
    <polygon class="cls-4" points="183.87 342.68 144.87 364.41 144.87 370.13 183.87 348.4 183.87 342.68"/>
    <polygon class="cls-4" points="188.72 345.7 312.87 276.53 312.87 270.8 188.72 339.98 188.72 345.7"/>
    <polygon class="cls-4" points="182.87 309.69 144.87 330.87 144.87 336.59 182.87 315.42 182.87 309.69"/>
    <polygon class="cls-4" points="187.72 312.71 312.87 242.98 312.87 237.26 187.72 306.99 187.72 312.71"/>
  </g>
  <path class="cls-5" d="M523.18,237.25,328.51,345.72c-3.3,1.84-6,6-6,9.35v222c0,3.3,2.7,4.49,6,2.65L523.18,471.25c3.3-1.84,6-6,6-9.35v-222C529.19,236.6,526.49,235.41,523.18,237.25Z" transform="translate(-134.13 -93.13)"/>
  <path class="cls-3" d="M407,366.12l-53.8,30a3.37,3.37,0,0,0-1.66,2.58V460c0,.91.75,1.24,1.66.73l53.8-30a3.37,3.37,0,0,0,1.66-2.58V366.86C408.61,365.94,407.87,365.61,407,366.12Z" transform="translate(-134.13 -93.13)"/>
  <path class="cls-1" d="M481,322.12l-53.8,30a3.37,3.37,0,0,0-1.66,2.58V416c0,.91.75,1.24,1.66.73l53.8-30a3.37,3.37,0,0,0,1.66-2.58V322.86C482.61,321.94,481.87,321.61,481,322.12Z" transform="translate(-134.13 -93.13)"/>
  <g>
    <polygon class="cls-3" points="373.87 277.81 385.37 271.4 385.37 269.12 373.87 275.52 373.87 277.81"/>
    <polygon class="cls-3" points="388.37 269.73 399.87 263.33 399.87 261.04 388.37 267.44 388.37 269.73"/>
    <polygon class="cls-3" points="388.37 206.33 399.87 199.92 399.87 197.63 388.37 204.04 388.37 206.33"/>
    <polygon class="cls-3" points="373.87 214.41 385.37 208 385.37 205.71 373.87 212.12 373.87 214.41"/>
    <polygon class="cls-3" points="402.87 198.25 412.87 192.68 412.87 190.39 402.87 195.96 402.87 198.25"/>
    <polygon class="cls-3" points="402.87 261.65 412.87 256.08 412.87 253.79 402.87 259.37 402.87 261.65"/>
    <polygon class="cls-3" points="365.87 251.62 363.87 252.74 363.87 261.65 365.87 260.54 365.87 251.62"/>
    <polygon class="cls-3" points="365.87 263.62 363.87 264.74 363.87 273.09 365.87 271.98 365.87 263.62"/>
    <polygon class="cls-3" points="365.87 240.62 363.87 241.74 363.87 249.65 365.87 248.53 365.87 240.62"/>
    <path class="cls-3" d="M500,373.1v-4.9l-2,1.11v3.88a1.9,1.9,0,0,0,.9,1.71,1.84,1.84,0,0,0,.94.25,2.64,2.64,0,0,0,1.28-.36l3.89-2.17v-2.29L500.14,373Z" transform="translate(-134.13 -93.13)"/>
    <polygon class="cls-3" points="365.87 228.07 363.87 229.18 363.87 238.65 365.87 237.53 365.87 228.07"/>
    <path class="cls-3" d="M498,313v6.18l2-1.11V313a2.34,2.34,0,0,1,1.11-1.66l3.89-2.17v-2.29l-4.86,2.71A4.27,4.27,0,0,0,498,313Z" transform="translate(-134.13 -93.13)"/>
    <polygon class="cls-3" points="419.87 230.45 421.87 229.33 421.87 220.42 419.87 221.54 419.87 230.45"/>
    <polygon class="cls-3" points="419.87 241.89 421.87 240.78 421.87 232.42 419.87 233.54 419.87 241.89"/>
    <polygon class="cls-3" points="419.87 218.45 421.87 217.33 421.87 209.42 419.87 210.54 419.87 218.45"/>
    <polygon class="cls-3" points="419.87 207.45 421.87 206.33 421.87 196.86 419.87 197.98 419.87 207.45"/>
    <path class="cls-3" d="M554,342a2.34,2.34,0,0,1-1.11,1.66L550,345.25v2.29l3.86-2.15A4.27,4.27,0,0,0,556,342v-5l-2,1.11Z" transform="translate(-134.13 -93.13)"/>
    <path class="cls-3" d="M555.1,280.13a2.21,2.21,0,0,0-2.22.11h0L550,281.85v2.29l3.86-2.15.14-.07V288l2-1.11v-5.07A1.9,1.9,0,0,0,555.1,280.13Z" transform="translate(-134.13 -93.13)"/>
  </g>
  <path class="cls-4" d="M371.16,416.46c0-8.6,4.89-17.7,10.92-20.32S393,398.37,393,407s-4.89,17.7-10.92,20.32S371.16,425.06,371.16,416.46Z" transform="translate(-134.13 -93.13)"/>
  <path class="cls-5" d="M378.66,420c0-8.6,4.89-17.7,10.92-20.32s10.92,2.22,10.92,10.83-4.89,17.7-10.92,20.32S378.66,428.56,378.66,420Z" transform="translate(-134.13 -93.13)"/>
  <g>
    <path class="cls-6" d="M338,355.81c-1.41.61-2.56,2.74-2.56,4.76s1.14,3.15,2.56,2.53,2.56-2.74,2.56-4.76S339.41,355.2,338,355.81Z" transform="translate(-134.13 -93.13)"/>
    <path class="cls-6" d="M357.5,346.35c-1.41.61-2.56,2.74-2.56,4.76s1.14,3.15,2.56,2.53,2.56-2.74,2.56-4.76S358.91,345.74,357.5,346.35Z" transform="translate(-134.13 -93.13)"/>
    <path class="cls-6" d="M347.75,351.35c-1.41.61-2.56,2.74-2.56,4.76s1.14,3.15,2.56,2.53,2.56-2.74,2.56-4.76S349.16,350.74,347.75,351.35Z" transform="translate(-134.13 -93.13)"/>
  </g>
  <polygon class="cls-1" points="325.73 385.03 217.31 445 217.31 398.5 325.73 338.53 325.73 385.03"/>
  <g>
    <path class="cls-3" d="M478.94,417.54v48.79l79.56-44V373.54Zm77.56,3.6-75.56,41.79V418.72l75.56-41.79Z" transform="translate(-134.13 -93.13)"/>
    <polygon class="cls-3" points="412.37 301.48 357.71 331.71 357.71 334 412.37 303.76 412.37 301.48"/>
    <polygon class="cls-3" points="412.37 310.73 357.71 340.96 357.71 343.25 412.37 313.01 412.37 310.73"/>
    <polygon class="cls-3" points="396.87 328.55 357.71 350.21 357.71 352.5 396.87 330.83 396.87 328.55"/>
  </g>
  <polygon class="cls-3" points="254.42 327.57 260.7 318.48 254.42 317.17 254.42 327.57"/>
</svg>
