<svg id="Слой_1" data-name="Слой 1" xmlns="http://www.w3.org/2000/svg" width="534" height="609.33" viewBox="0 0 534 609.33">
  <defs>
    <style>
      .cls-1 {
        fill: #f2f2f2;
      }

      .cls-2 {
        fill: #00c7d8;
      }

      .cls-3 {
        fill: #d5d5d5;
      }

      .cls-4 {
        fill: #fff;
      }

      .cls-5 {
        fill: #0081cb;
      }

      .cls-6 {
        fill: #50add6;
      }

      .cls-7 {
        fill: #289bdd;
      }
    </style>
  </defs>
  <title>5</title>
  <g>
    <polygon class="cls-1" points="534 204.33 405 204.33 405 75.33 129 75.33 129 204.33 0 204.33 0 480.33 129 480.33 129 609.33 405 609.33 405 480.33 534 480.33 534 204.33"/>
    <polygon class="cls-2" points="176 46.33 129.67 46.33 129.67 0 101 0 101 46.33 54.67 46.33 54.67 75 101 75 101 121.33 129.67 121.33 129.67 75 176 75 176 46.33"/>
    <path class="cls-3" d="M465.68,209.25,271,317.72c-3.3,1.84-6,6-6,9.35v222c0,3.3,2.7,4.49,6,2.65L465.68,443.25c3.3-1.84,6-6,6-9.35v-222C471.69,208.6,469,207.41,465.68,209.25Z" transform="translate(-134.17 -95.17)"/>
    <path class="cls-4" d="M524.18,247.25,329.51,355.72c-3.3,1.84-6,6-6,9.35v222c0,3.3,2.7,4.49,6,2.65L524.18,481.25c3.3-1.84,6-6,6-9.35v-222C530.19,246.6,527.49,245.41,524.18,247.25Z" transform="translate(-134.17 -95.17)"/>
    <path class="cls-1" d="M464,304.79l-53.8,30a3.37,3.37,0,0,0-1.66,2.58v61.35c0,.91.75,1.24,1.66.73l53.8-30a3.37,3.37,0,0,0,1.66-2.58V305.52C465.61,304.61,464.87,304.28,464,304.79Z" transform="translate(-134.17 -95.17)"/>
    <g>
      <polygon class="cls-5" points="366.33 255.78 377.83 249.37 377.83 247.08 366.33 253.49 366.33 255.78"/>
      <polygon class="cls-5" points="380.83 247.7 392.33 241.29 392.33 239 380.83 245.41 380.83 247.7"/>
      <polygon class="cls-5" points="380.83 184.3 392.33 177.89 392.33 175.6 380.83 182.01 380.83 184.3"/>
      <polygon class="cls-5" points="366.33 192.38 377.83 185.97 377.83 183.68 366.33 190.09 366.33 192.38"/>
      <polygon class="cls-5" points="395.33 176.22 405.33 170.65 405.33 168.36 395.33 173.93 395.33 176.22"/>
      <polygon class="cls-5" points="395.33 239.62 405.33 234.05 405.33 231.76 395.33 237.33 395.33 239.62"/>
      <polygon class="cls-5" points="358.33 229.59 356.33 230.71 356.33 239.62 358.33 238.5 358.33 229.59"/>
      <polygon class="cls-5" points="358.33 241.59 356.33 242.71 356.33 251.06 358.33 249.94 358.33 241.59"/>
      <polygon class="cls-5" points="358.33 218.59 356.33 219.71 356.33 227.62 358.33 226.5 358.33 218.59"/>
      <path class="cls-5" d="M492.5,353.1v-4.9l-2,1.11v3.88a1.9,1.9,0,0,0,.9,1.71,1.84,1.84,0,0,0,.94.25,2.64,2.64,0,0,0,1.28-.36l3.89-2.17v-2.29L492.64,353Z" transform="translate(-134.17 -95.17)"/>
      <polygon class="cls-5" points="358.33 206.03 356.33 207.15 356.33 216.62 358.33 215.5 358.33 206.03"/>
      <path class="cls-5" d="M490.5,293v6.18l2-1.11V293a2.34,2.34,0,0,1,1.11-1.66l3.89-2.17v-2.29l-4.86,2.71A4.27,4.27,0,0,0,490.5,293Z" transform="translate(-134.17 -95.17)"/>
      <polygon class="cls-5" points="412.33 208.41 414.33 207.3 414.33 198.39 412.33 199.5 412.33 208.41"/>
      <polygon class="cls-5" points="412.33 219.85 414.33 218.74 414.33 210.39 412.33 211.5 412.33 219.85"/>
      <polygon class="cls-5" points="412.33 196.41 414.33 195.3 414.33 187.39 412.33 188.5 412.33 196.41"/>
      <polygon class="cls-5" points="412.33 185.41 414.33 184.3 414.33 174.83 412.33 175.94 412.33 185.41"/>
      <path class="cls-5" d="M546.5,322a2.34,2.34,0,0,1-1.11,1.66l-2.89,1.61v2.29l3.86-2.15A4.27,4.27,0,0,0,548.5,322v-5l-2,1.11Z" transform="translate(-134.17 -95.17)"/>
      <path class="cls-5" d="M547.6,260.13a2.21,2.21,0,0,0-2.22.11h0l-2.89,1.61v2.29l3.86-2.15.14-.07V268l2-1.11v-5.07A1.9,1.9,0,0,0,547.6,260.13Z" transform="translate(-134.17 -95.17)"/>
    </g>
    <polygon class="cls-1" points="382.69 374 274.27 433.96 274.27 387.46 382.69 327.5 382.69 374"/>
    <g>
      <polygon class="cls-3" points="286.17 394.53 286.17 396.81 340.83 366.58 340.83 364.29 286.17 394.53"/>
      <polygon class="cls-3" points="286.17 406.06 340.83 375.83 340.83 373.54 286.17 403.78 286.17 406.06"/>
      <polygon class="cls-3" points="286.17 415.31 325.33 393.65 325.33 391.37 286.17 413.03 286.17 415.31"/>
    </g>
    <polygon class="cls-1" points="382.69 312 274.27 371.96 274.27 325.46 382.69 265.5 382.69 312"/>
    <g>
      <polygon class="cls-3" points="286.17 332.53 286.17 334.81 340.83 304.58 340.83 302.29 286.17 332.53"/>
      <polygon class="cls-3" points="286.17 344.06 340.83 313.83 340.83 311.54 286.17 341.78 286.17 344.06"/>
      <polygon class="cls-3" points="286.17 353.31 325.33 331.65 325.33 329.37 286.17 351.03 286.17 353.31"/>
    </g>
    <polygon class="cls-6" points="204.67 417.31 243.83 395.65 243.83 393.37 204.67 415.03 204.67 417.31"/>
    <path class="cls-3" d="M440,336.78c-6.6,2.87-12,12.83-12,22.25s5.35,14.72,12,11.85,12-12.83,12-22.25S446.63,333.91,440,336.78Z" transform="translate(-134.17 -95.17)"/>
    <path class="cls-5" d="M389,322.57l-59.49,33.15c-3.3,1.84-6,6-6,9.35v222c0,3.3,2.7,4.49,6,2.65L389,556.57Z" transform="translate(-134.17 -95.17)"/>
    <g>
      <path class="cls-4" d="M441.16,354.56c1.57-.68,2.84-3,2.84-5.28s-1.27-3.5-2.84-2.82-2.84,3-2.84,5.28S439.59,355.25,441.16,354.56Z" transform="translate(-134.17 -95.17)"/>
      <path class="cls-4" d="M439.57,358.72c-3.78,1.92-7,6.16-8.34,10.46,2.19,2.44,5.31,3.21,8.79,1.7,3.27-1.42,6.22-4.57,8.38-8.54C447.67,358.12,444,356.47,439.57,358.72Z" transform="translate(-134.17 -95.17)"/>
    </g>
    <g>
      <polygon class="cls-4" points="204.17 307.53 204.17 309.81 243.33 288.15 243.33 285.87 204.17 307.53"/>
      <polygon class="cls-4" points="204.17 444.31 243.33 422.65 243.33 420.37 204.17 442.03 204.17 444.31"/>
      <polygon class="cls-4" points="204.17 390.51 243.33 368.85 243.33 366.56 204.17 388.23 204.17 390.51"/>
      <polygon class="cls-4" points="204.17 363.61 243.33 341.95 243.33 339.67 204.17 361.33 204.17 363.61"/>
      <polygon class="cls-4" points="204.17 336.71 243.33 315.05 243.33 312.76 204.17 334.43 204.17 336.71"/>
      <polygon class="cls-4" points="204.17 417.41 243.33 395.75 243.33 393.46 204.17 415.13 204.17 417.41"/>
    </g>
    <g>
      <path class="cls-7" d="M339,365.81c-1.41.61-2.56,2.74-2.56,4.76s1.14,3.15,2.56,2.53,2.56-2.74,2.56-4.76S340.41,365.2,339,365.81Z" transform="translate(-134.17 -95.17)"/>
      <path class="cls-7" d="M358.5,356.35c-1.41.61-2.56,2.74-2.56,4.76s1.14,3.15,2.56,2.53,2.56-2.74,2.56-4.76S359.91,355.74,358.5,356.35Z" transform="translate(-134.17 -95.17)"/>
      <path class="cls-7" d="M348.75,361.35c-1.41.61-2.56,2.74-2.56,4.76s1.14,3.15,2.56,2.53,2.56-2.74,2.56-4.76S350.16,360.74,348.75,361.35Z" transform="translate(-134.17 -95.17)"/>
    </g>
  </g>
</svg>
