<svg id="Слой_1" data-name="Слой 1" xmlns="http://www.w3.org/2000/svg" width="533.9" height="536.83" viewBox="0 0 533.9 536.83">
  <defs>
    <style>
      .cls-1 {
        fill: #f2f2f2;
      }

      .cls-2, .cls-4, .cls-7 {
        fill: #0081cb;
      }

      .cls-3, .cls-8 {
        fill: #fff;
      }

      .cls-4 {
        font-size: 18.08px;
        letter-spacing: -0.01em;
      }

      .cls-4, .cls-7, .cls-8 {
        font-family: Intro-Bold, Intro Bold;
      }

      .cls-5 {
        fill: #b72599;
      }

      .cls-6 {
        fill: #d5d5d5;
      }

      .cls-7 {
        font-size: 64px;
        letter-spacing: -0.01em;
      }

      .cls-8 {
        font-size: 23.68px;
        letter-spacing: 0.02em;
      }

      .cls-9 {
        fill: #289bdd;
      }
    </style>
  </defs>
  <title>3</title>
  <g>
    <circle class="cls-1" cx="266.95" cy="269.88" r="266.95"/>
    <polygon class="cls-2" points="447.97 248.92 356.41 299.56 356.41 318.06 356.41 346.06 356.41 364.56 447.97 313.92 447.97 248.92"/>
    <polygon class="cls-3" points="80.91 185.87 80.91 236.37 80.91 250.44 80.91 295.87 80.91 300.94 80.91 318.87 80.91 346.37 80.91 360.44 80.91 369.37 80.91 383.44 80.91 410.94 80.91 433.94 231.47 350.67 231.47 327.67 231.47 300.17 231.47 286.1 231.47 277.17 231.47 263.1 231.47 235.6 231.47 217.67 231.47 212.6 231.47 167.17 231.47 153.1 231.47 102.6 80.91 185.87"/>
    <path class="cls-1" d="M225,341.22c0-9.9,5.63-20.38,12.58-23.4s12.58,2.56,12.58,12.46-5.63,20.38-12.58,23.4S225,351.12,225,341.22Z" transform="translate(-134.03 -130.07)"/>
    <text class="cls-4" transform="matrix(0.89, -0.53, 0, 1, 98.75, 213.69)">A</text>
    <g>
      <polygon class="cls-2" points="124.81 195.66 155.47 178.7 155.47 176.41 124.81 193.37 124.81 195.66"/>
      <polygon class="cls-2" points="124.81 184.12 124.81 186.41 155.47 169.45 155.47 167.16 124.81 184.12"/>
      <polygon class="cls-2" points="124.81 204.91 140.97 195.97 140.97 193.68 124.81 202.62 124.81 204.91"/>
    </g>
    <path class="cls-5" d="M224,266.77a68.35,68.35,0,1,1,68.35-68.35A68.43,68.43,0,0,1,224,266.77Zm0-107.7a39.35,39.35,0,1,0,39.35,39.35A39.4,39.4,0,0,0,224,159.07Z" transform="translate(-134.03 -130.07)"/>
    <path class="cls-6" d="M331,399c0-35.06,19.93-72.14,44.52-82.82S420,325.22,420,360.28s-19.93,72.14-44.52,82.82S331,434,331,399Z" transform="translate(-134.03 -130.07)"/>
    <path class="cls-3" d="M360.5,416c0-35.06,19.93-72.14,44.52-82.82s44.52,9.07,44.52,44.12S429.61,449.41,405,460.1,360.5,451,360.5,416Z" transform="translate(-134.03 -130.07)"/>
    <text class="cls-7" transform="matrix(0.89, -0.53, 0, 1, 253.99, 294.9)">A</text>
    <path class="cls-2" d="M433.5,340c0-14.92,8.48-30.7,18.95-35.25s18.95,3.86,18.95,18.78-8.48,30.7-18.95,35.25S433.5,354.91,433.5,340Z" transform="translate(-134.03 -130.07)"/>
    <text class="cls-8" transform="matrix(0.89, -0.53, 0, 1, 312.18, 214.37)">R</text>
    <path class="cls-9" d="M501,455.72c0-9.9,5.63-20.38,12.58-23.4s12.58,2.56,12.58,12.46-5.63,20.38-12.58,23.4S501,465.62,501,455.72Z" transform="translate(-134.03 -130.07)"/>
    <text class="cls-4" transform="matrix(0.89, -0.53, 0, 1, 374.75, 328.19)">A</text>
    <g>
      <polygon class="cls-9" points="400.81 310.16 431.47 293.2 431.47 290.91 400.81 307.87 400.81 310.16"/>
      <polygon class="cls-9" points="400.81 298.62 400.81 300.91 431.47 283.95 431.47 281.66 400.81 298.62"/>
      <polygon class="cls-9" points="400.81 319.41 416.97 310.47 416.97 308.18 400.81 317.12 400.81 319.41"/>
    </g>
    <polygon class="cls-3" points="475.47 272.92 383.91 323.56 383.91 342.06 383.91 370.06 383.91 388.56 475.47 337.92 475.47 272.92"/>
    <path class="cls-1" d="M528.5,479.72c0-9.9,5.63-20.38,12.58-23.4s12.58,2.56,12.58,12.46-5.63,20.38-12.58,23.4S528.5,489.62,528.5,479.72Z" transform="translate(-134.03 -130.07)"/>
    <text class="cls-4" transform="matrix(0.89, -0.53, 0, 1, 402.25, 352.19)">A</text>
    <g>
      <polygon class="cls-2" points="428.31 334.16 458.97 317.2 458.97 314.91 428.31 331.87 428.31 334.16"/>
      <polygon class="cls-2" points="428.31 322.62 428.31 324.91 458.97 307.95 458.97 305.66 428.31 322.62"/>
      <polygon class="cls-2" points="428.31 343.41 444.47 334.47 444.47 332.18 428.31 341.12 428.31 343.41"/>
    </g>
    <g>
      <path class="cls-2" d="M487,274.44V390.25l79-43.69V230.74Zm77,70.94-75,41.48V275.62l75-41.48Z" transform="translate(-134.03 -130.07)"/>
      <polygon class="cls-2" points="420.8 125.95 365.97 156.27 365.97 158.56 420.8 128.23 420.8 125.95"/>
      <polygon class="cls-2" points="420.8 135.59 365.97 165.91 365.97 168.2 420.8 137.87 420.8 135.59"/>
      <polygon class="cls-2" points="420.8 145.23 365.97 175.56 365.97 177.84 420.8 147.52 420.8 145.23"/>
      <polygon class="cls-2" points="420.8 154.88 365.97 185.2 365.97 187.49 420.8 157.16 420.8 154.88"/>
      <polygon class="cls-2" points="420.8 174.16 365.97 204.49 365.97 206.77 420.8 176.45 420.8 174.16"/>
      <polygon class="cls-2" points="420.8 183.8 365.97 214.13 365.97 216.41 420.8 186.09 420.8 183.8"/>
      <polygon class="cls-2" points="404.97 202.2 365.97 223.77 365.97 226.06 404.97 204.49 404.97 202.2"/>
      <polygon class="cls-2" points="404.97 173.27 365.97 194.84 365.97 197.13 404.97 175.56 404.97 173.27"/>
    </g>
  </g>
</svg>
