<svg id="Слой_1" data-name="Слой 1" xmlns="http://www.w3.org/2000/svg" width="672.58" height="640" viewBox="0 0 672.58 640">
  <defs>
    <style>
      .cls-1 {
        fill: #f2f2f2;
      }

      .cls-2 {
        fill: #0081cb;
      }

      .cls-3 {
        fill: #30b5ef;
        opacity: 0.44;
      }

      .cls-4 {
        fill: #f82755;
      }

      .cls-5 {
        fill: #fff;
      }

      .cls-6 {
        fill: #d5d5d5;
      }

      .cls-7 {
        fill: #289bdd;
      }
    </style>
  </defs>
  <title>2</title>
  <g>
    <polygon class="cls-1" points="0 318.59 334.81 0 672.58 321.41 337.77 640 0 318.59"/>
    <path class="cls-2" d="M461.68,190.25,267,298.72c-3.3,1.84-6,6-6,9.35v222c0,3.3,2.7,4.49,6,2.65L461.68,424.25c3.3-1.84,6-6,6-9.35v-222C467.69,189.6,465,188.41,461.68,190.25Z" transform="translate(-66.29 -78.31)"/>
    <g>
      <path class="cls-3" d="M349.74,305.13l-30,16.72a1.88,1.88,0,0,0-.93,1.44v77.22c0,.51.42.69.93.41l30-16.72a1.88,1.88,0,0,0,.93-1.44V305.54C350.67,305,350.25,304.85,349.74,305.13Z" transform="translate(-66.29 -78.31)"/>
      <path class="cls-3" d="M391.41,259.8l-30,16.72a1.88,1.88,0,0,0-.93,1.44v77.22c0,.51.42.69.93.41l30-16.72a1.88,1.88,0,0,0,.93-1.44V260.21C392.33,259.7,391.92,259.52,391.41,259.8Z" transform="translate(-66.29 -78.31)"/>
      <path class="cls-3" d="M433.74,253.47l-30,16.72a1.88,1.88,0,0,0-.93,1.44v77.22c0,.51.42.69.93.41l30-16.72a1.88,1.88,0,0,0,.93-1.44V253.88C434.67,253.37,434.25,253.18,433.74,253.47Z" transform="translate(-66.29 -78.31)"/>
      <path class="cls-3" d="M307.41,385.13l-30,16.72a1.88,1.88,0,0,0-.93,1.44v77.22c0,.51.42.69.93.41l30-16.72a1.88,1.88,0,0,0,.93-1.44V385.54C308.33,385,307.92,384.85,307.41,385.13Z" transform="translate(-66.29 -78.31)"/>
    </g>
    <path class="cls-4" d="M223.63,325.89l-83.1-83.1,80.66-80.66,83.1,83.1Zm-42.09-83.1,42.09,42.09,39.65-39.65-42.09-42.09Z" transform="translate(-66.29 -78.31)"/>
    <path class="cls-5" d="M520.18,228.25,325.51,336.72c-3.3,1.84-6,6-6,9.35v222c0,3.3,2.7,4.49,6,2.65L520.18,462.25c3.3-1.84,6-6,6-9.35v-222C526.19,227.6,523.49,226.41,520.18,228.25Z" transform="translate(-66.29 -78.31)"/>
    <g>
      <path class="cls-6" d="M335,346.81c-1.41.61-2.56,2.74-2.56,4.76s1.14,3.15,2.56,2.53,2.56-2.74,2.56-4.76S336.41,346.2,335,346.81Z" transform="translate(-66.29 -78.31)"/>
      <path class="cls-6" d="M354.5,337.35c-1.41.61-2.56,2.74-2.56,4.76s1.14,3.15,2.56,2.53,2.56-2.74,2.56-4.76S355.91,336.74,354.5,337.35Z" transform="translate(-66.29 -78.31)"/>
      <path class="cls-6" d="M344.75,342.35c-1.41.61-2.56,2.74-2.56,4.76s1.14,3.15,2.56,2.53,2.56-2.74,2.56-4.76S346.16,341.74,344.75,342.35Z" transform="translate(-66.29 -78.31)"/>
    </g>
    <g>
      <path class="cls-2" d="M333.27,399.87v48.79l79.56-44V355.87Zm77.56,3.6-75.56,41.79V401.05l75.56-41.79Z" transform="translate(-66.29 -78.31)"/>
      <polygon class="cls-2" points="334.55 298.63 279.88 328.87 279.88 331.15 334.55 300.92 334.55 298.63"/>
      <polygon class="cls-2" points="334.55 307.88 279.88 338.12 279.88 340.4 334.55 310.17 334.55 307.88"/>
      <polygon class="cls-2" points="319.05 325.7 279.88 347.37 279.88 349.65 319.05 327.99 319.05 325.7"/>
    </g>
    <g>
      <polygon class="cls-6" points="280.55 375.53 280.55 377.82 335.21 347.58 335.21 345.3 280.55 375.53"/>
      <polygon class="cls-6" points="280.55 387.07 335.21 356.83 335.21 354.55 280.55 384.78 280.55 387.07"/>
      <polygon class="cls-6" points="280.55 396.32 319.71 374.66 319.71 372.37 280.55 394.03 280.55 396.32"/>
    </g>
    <g>
      <polygon class="cls-6" points="280.55 445.23 280.55 447.52 335.21 417.28 335.21 415 280.55 445.23"/>
      <polygon class="cls-6" points="280.55 456.77 335.21 426.53 335.21 424.25 280.55 454.48 280.55 456.77"/>
      <polygon class="cls-6" points="280.55 466.02 319.71 444.36 319.71 442.07 280.55 463.73 280.55 466.02"/>
    </g>
    <g>
      <polygon class="cls-6" points="280.55 410.38 280.55 412.67 335.21 382.43 335.21 380.15 280.55 410.38"/>
      <polygon class="cls-6" points="280.55 421.92 335.21 391.68 335.21 389.4 280.55 419.63 280.55 421.92"/>
      <polygon class="cls-6" points="280.55 431.17 319.71 409.51 319.71 407.22 280.55 428.88 280.55 431.17"/>
    </g>
    <g>
      <polygon class="cls-6" points="389.71 324.63 401.21 318.23 401.21 315.94 389.71 322.35 389.71 324.63"/>
      <polygon class="cls-6" points="404.21 316.56 415.71 310.15 415.71 307.86 404.21 314.27 404.21 316.56"/>
      <polygon class="cls-6" points="404.21 253.15 415.71 246.75 415.71 244.46 404.21 250.87 404.21 253.15"/>
      <polygon class="cls-6" points="389.71 261.23 401.21 254.83 401.21 252.54 389.71 258.94 389.71 261.23"/>
      <polygon class="cls-6" points="418.71 245.07 428.71 239.5 428.71 237.21 418.71 242.79 418.71 245.07"/>
      <polygon class="cls-6" points="418.71 308.48 428.71 302.9 428.71 300.62 418.71 306.19 418.71 308.48"/>
      <polygon class="cls-6" points="381.71 298.45 379.71 299.56 379.71 308.47 381.71 307.36 381.71 298.45"/>
      <polygon class="cls-6" points="381.71 310.45 379.71 311.56 379.71 319.92 381.71 318.8 381.71 310.45"/>
      <polygon class="cls-6" points="381.71 287.45 379.71 288.56 379.71 296.47 381.71 295.36 381.71 287.45"/>
      <path class="cls-6" d="M448,405.1v-4.9l-2,1.11v3.88a1.9,1.9,0,0,0,.9,1.71,1.84,1.84,0,0,0,.94.25,2.64,2.64,0,0,0,1.28-.36l3.89-2.17v-2.29L448.14,405Z" transform="translate(-66.29 -78.31)"/>
      <polygon class="cls-6" points="381.71 274.89 379.71 276 379.71 285.47 381.71 284.36 381.71 274.89"/>
      <path class="cls-6" d="M446,345v6.18l2-1.11V345a2.34,2.34,0,0,1,1.11-1.66l3.89-2.17v-2.29l-4.86,2.71A4.27,4.27,0,0,0,446,345Z" transform="translate(-66.29 -78.31)"/>
      <polygon class="cls-6" points="435.71 277.27 437.71 276.15 437.71 267.24 435.71 268.36 435.71 277.27"/>
      <polygon class="cls-6" points="435.71 288.71 437.71 287.6 437.71 279.24 435.71 280.36 435.71 288.71"/>
      <polygon class="cls-6" points="435.71 265.27 437.71 264.15 437.71 256.24 435.71 257.36 435.71 265.27"/>
      <polygon class="cls-6" points="435.71 254.27 437.71 253.16 437.71 243.69 435.71 244.8 435.71 254.27"/>
      <path class="cls-6" d="M502,374a2.34,2.34,0,0,1-1.11,1.66L498,377.25v2.29l3.86-2.15A4.27,4.27,0,0,0,504,374v-5l-2,1.11Z" transform="translate(-66.29 -78.31)"/>
      <path class="cls-6" d="M503.1,312.13a2.21,2.21,0,0,0-2.22.11h0L498,313.85v2.29l3.86-2.15.14-.07V320l2-1.11v-5.07A1.9,1.9,0,0,0,503.1,312.13Z" transform="translate(-66.29 -78.31)"/>
    </g>
    <g>
      <polygon class="cls-6" points="389.71 406.3 401.21 399.89 401.21 397.61 389.71 404.01 389.71 406.3"/>
      <polygon class="cls-6" points="404.21 398.22 415.71 391.81 415.71 389.53 404.21 395.93 404.21 398.22"/>
      <polygon class="cls-6" points="404.21 334.82 415.71 328.41 415.71 326.12 404.21 332.53 404.21 334.82"/>
      <polygon class="cls-6" points="389.71 342.9 401.21 336.49 401.21 334.2 389.71 340.61 389.71 342.9"/>
      <polygon class="cls-6" points="418.71 326.74 428.71 321.17 428.71 318.88 418.71 324.45 418.71 326.74"/>
      <polygon class="cls-6" points="418.71 390.14 428.71 384.57 428.71 382.28 418.71 387.85 418.71 390.14"/>
      <polygon class="cls-6" points="381.71 380.11 379.71 381.23 379.71 390.14 381.71 389.02 381.71 380.11"/>
      <polygon class="cls-6" points="381.71 392.11 379.71 393.23 379.71 401.58 381.71 400.47 381.71 392.11"/>
      <polygon class="cls-6" points="381.71 369.11 379.71 370.23 379.71 378.14 381.71 377.02 381.71 369.11"/>
      <path class="cls-6" d="M448,486.77v-4.9L446,483v3.88a1.9,1.9,0,0,0,.9,1.71,1.84,1.84,0,0,0,.94.25,2.64,2.64,0,0,0,1.28-.36l3.89-2.17V484l-4.86,2.71Z" transform="translate(-66.29 -78.31)"/>
      <polygon class="cls-6" points="381.71 356.56 379.71 357.67 379.71 367.14 381.71 366.02 381.71 356.56"/>
      <path class="cls-6" d="M446,426.71v6.18l2-1.11v-5.07a2.34,2.34,0,0,1,1.11-1.66l3.89-2.17v-2.29l-4.86,2.71A4.27,4.27,0,0,0,446,426.71Z" transform="translate(-66.29 -78.31)"/>
      <polygon class="cls-6" points="435.71 358.94 437.71 357.82 437.71 348.91 435.71 350.02 435.71 358.94"/>
      <polygon class="cls-6" points="435.71 370.38 437.71 369.26 437.71 360.91 435.71 362.02 435.71 370.38"/>
      <polygon class="cls-6" points="435.71 346.94 437.71 345.82 437.71 337.91 435.71 339.02 435.71 346.94"/>
      <polygon class="cls-6" points="435.71 335.94 437.71 334.82 437.71 325.35 435.71 326.47 435.71 335.94"/>
      <path class="cls-6" d="M502,455.65a2.34,2.34,0,0,1-1.11,1.66L498,458.92v2.29l3.86-2.15a4.27,4.27,0,0,0,2.14-3.41v-5l-2,1.11Z" transform="translate(-66.29 -78.31)"/>
      <path class="cls-6" d="M503.1,393.8a2.21,2.21,0,0,0-2.22.11h0L498,395.52v2.29l3.86-2.15.14-.07v6.1l2-1.11V395.5A1.9,1.9,0,0,0,503.1,393.8Z" transform="translate(-66.29 -78.31)"/>
    </g>
    <path class="cls-2" d="M539.29,330.12l-53.8,30a3.37,3.37,0,0,0-1.66,2.58V424c0,.91.75,1.24,1.66.73l53.8-30a3.37,3.37,0,0,0,1.66-2.58V330.86C540.95,329.94,540.2,329.61,539.29,330.12Z" transform="translate(-66.29 -78.31)"/>
    <g>
      <polygon class="cls-7" points="457.05 287.69 452.71 296.69 444.71 282.69 427.05 329.02 469.38 307.02 457.05 287.69"/>
      <path class="cls-7" d="M526.17,359.11c1.86-.81,3.36-3.61,3.36-6.25s-1.51-4.14-3.36-3.33-3.36,3.61-3.36,6.25S524.32,359.92,526.17,359.11Z" transform="translate(-66.29 -78.31)"/>
    </g>
    <path class="cls-2" d="M539.29,416.79l-53.8,30a3.37,3.37,0,0,0-1.66,2.58v61.35c0,.91.75,1.24,1.66.73l53.8-30a3.37,3.37,0,0,0,1.66-2.58V417.52C540.95,416.61,540.2,416.28,539.29,416.79Z" transform="translate(-66.29 -78.31)"/>
    <g>
      <polygon class="cls-7" points="457.05 374.36 452.71 383.36 444.71 369.36 427.05 415.69 469.38 393.69 457.05 374.36"/>
      <path class="cls-7" d="M526.17,445.78c1.86-.81,3.36-3.61,3.36-6.25s-1.51-4.14-3.36-3.33-3.36,3.61-3.36,6.25S524.32,446.59,526.17,445.78Z" transform="translate(-66.29 -78.31)"/>
    </g>
    <polygon class="cls-1" points="344.71 253.49 266.99 296.48 266.99 309.69 344.71 266.7 344.71 253.49"/>
    <polygon class="cls-2" points="350.71 250.17 350.71 263.38 382.71 245.68 382.71 232.47 350.71 250.17"/>
  </g>
</svg>
