<svg id="Слой_1" data-name="Слой 1" xmlns="http://www.w3.org/2000/svg" width="531.46" height="671.39" viewBox="0 0 531.46 671.39">
  <defs>
    <style>
      .cls-1 {
        fill: #f2f2f2;
      }

      .cls-2 {
        fill: #0080da;
      }

      .cls-3 {
        fill: #d5d5d5;
      }

      .cls-4 {
        fill: #fff;
      }

      .cls-5 {
        fill: #0081cb;
      }

      .cls-6 {
        fill: #30b5ef;
        opacity: 0.41;
      }
    </style>
  </defs>
  <title>4</title>
  <g>
    <polygon class="cls-1" points="0 671.39 531.46 345.29 0 19.18 0 671.39"/>
    <path class="cls-2" d="M185.45,209.74V61.61l120.7,74.06Zm29-96.31v44.49l36.25-22.25Z" transform="translate(-135 -61.61)"/>
    <path class="cls-3" d="M327.83,273.83l-10-4.33-.06.06a2.15,2.15,0,0,0-2.07.22L224.8,320.43a5.69,5.69,0,0,0-2.8,4.36V552.44a1.44,1.44,0,0,0,1.28,1.63l10,4.36,6.38-6.25-5.89-3.48,82-45.67a5.69,5.69,0,0,0,2.8-4.36V288.4l8.5-1.9Z" transform="translate(-135 -61.61)"/>
    <path class="cls-4" d="M326.2,274.29,235.3,324.93a5.69,5.69,0,0,0-2.8,4.36V556.94c0,1.54,1.26,2.1,2.8,1.24l90.89-50.64a5.69,5.69,0,0,0,2.8-4.36V275.52C329,274,327.74,273.43,326.2,274.29Z" transform="translate(-135 -61.61)"/>
    <path class="cls-5" d="M380.6,283.31,311.16,322a4.35,4.35,0,0,0-2.14,3.33V501.24c0,1.18,1,1.6,2.14.95L380.6,463.5a4.35,4.35,0,0,0,2.14-3.33V284.26C382.74,283.08,381.78,282.65,380.6,283.31Z" transform="translate(-135 -61.61)"/>
    <g>
      <polygon class="cls-6" points="222 246.47 182 268.75 182 274.48 222 252.19 222 246.47"/>
      <polygon class="cls-6" points="203.5 374.18 182 386.16 182 391.89 203.5 379.91 203.5 374.18"/>
      <polygon class="cls-6" points="200 275.5 182 285.52 182 291.25 200 281.22 200 275.5"/>
      <polygon class="cls-6" points="221.5 280.29 182 302.3 182 308.02 221.5 286.01 221.5 280.29"/>
      <polygon class="cls-6" points="203.5 307.09 182 319.07 182 324.8 203.5 312.82 203.5 307.09"/>
      <polygon class="cls-6" points="221 314.11 182 335.84 182 341.57 221 319.84 221 314.11"/>
      <polygon class="cls-6" points="199.5 342.87 182 352.62 182 358.34 199.5 348.59 199.5 342.87"/>
      <polygon class="cls-6" points="182 425.43 200 415.4 200 409.68 182 419.71 182 425.43"/>
      <polygon class="cls-6" points="221 381.2 182 402.94 182 408.66 221 386.93 221 381.2"/>
      <polygon class="cls-6" points="220 348.22 182 369.39 182 375.11 220 353.94 220 348.22"/>
      <polygon class="cls-6" points="204.85 406.97 204.85 412.7 264.33 379.56 264.33 373.83 204.85 406.97"/>
      <polygon class="cls-6" points="204.35 345.88 262.33 313.58 262.33 307.86 204.35 340.16 204.35 345.88"/>
      <polygon class="cls-6" points="241.67 235.51 226.85 243.76 226.85 249.49 241.67 241.23 241.67 235.51"/>
      <polygon class="cls-6" points="204.85 278.52 241.67 258 241.67 252.28 204.85 272.79 204.85 278.52"/>
    </g>
    <path class="cls-4" d="M412.27,307.31,342.83,346a4.35,4.35,0,0,0-2.14,3.33V525.24c0,1.18,1,1.6,2.14.95l69.44-38.69a4.35,4.35,0,0,0,2.14-3.33V308.26C414.41,307.08,413.44,306.65,412.27,307.31Z" transform="translate(-135 -61.61)"/>
    <g>
      <polygon class="cls-5" points="80.67 382.34 92.17 375.93 92.17 373.64 80.67 380.05 80.67 382.34"/>
      <polygon class="cls-5" points="95.17 374.26 106.67 367.85 106.67 365.56 95.17 371.97 95.17 374.26"/>
      <polygon class="cls-5" points="95.17 310.86 106.67 304.45 106.67 302.16 95.17 308.57 95.17 310.86"/>
      <polygon class="cls-5" points="80.67 318.93 92.17 312.53 92.17 310.24 80.67 316.64 80.67 318.93"/>
      <polygon class="cls-5" points="109.67 302.78 119.67 297.2 119.67 294.92 109.67 300.49 109.67 302.78"/>
      <polygon class="cls-5" points="109.67 366.18 119.67 360.61 119.67 358.32 109.67 363.89 109.67 366.18"/>
      <polygon class="cls-5" points="72.67 356.15 70.67 357.26 70.67 366.17 72.67 365.06 72.67 356.15"/>
      <polygon class="cls-5" points="72.67 368.15 70.67 369.26 70.67 377.62 72.67 376.5 72.67 368.15"/>
      <polygon class="cls-5" points="72.67 345.15 70.67 346.26 70.67 354.17 72.67 353.06 72.67 345.15"/>
      <path class="cls-5" d="M207.67,446.1v-4.9l-2,1.11v3.88a1.9,1.9,0,0,0,.9,1.71,1.84,1.84,0,0,0,.94.25,2.64,2.64,0,0,0,1.28-.36l3.89-2.17v-2.29L207.81,446Z" transform="translate(-135 -61.61)"/>
      <polygon class="cls-5" points="72.67 332.59 70.67 333.7 70.67 343.17 72.67 342.06 72.67 332.59"/>
      <path class="cls-5" d="M205.67,386v6.18l2-1.11V386a2.34,2.34,0,0,1,1.11-1.66l3.89-2.17v-2.29l-4.86,2.71A4.27,4.27,0,0,0,205.67,386Z" transform="translate(-135 -61.61)"/>
      <polygon class="cls-5" points="126.67 334.97 128.67 333.86 128.67 324.94 126.67 326.06 126.67 334.97"/>
      <polygon class="cls-5" points="126.67 346.41 128.67 345.3 128.67 336.94 126.67 338.06 126.67 346.41"/>
      <polygon class="cls-5" points="126.67 322.97 128.67 321.86 128.67 313.94 126.67 315.06 126.67 322.97"/>
      <polygon class="cls-5" points="126.67 311.97 128.67 310.86 128.67 301.39 126.67 302.5 126.67 311.97"/>
      <path class="cls-5" d="M261.67,415a2.34,2.34,0,0,1-1.11,1.66l-2.89,1.61v2.29l3.86-2.15a4.27,4.27,0,0,0,2.14-3.41v-5l-2,1.11Z" transform="translate(-135 -61.61)"/>
      <path class="cls-5" d="M262.77,353.13a2.21,2.21,0,0,0-2.22.11h0l-2.89,1.61v2.29l3.86-2.15.14-.07V361l2-1.11v-5.07A1.9,1.9,0,0,0,262.77,353.13Z" transform="translate(-135 -61.61)"/>
    </g>
    <g>
      <polygon class="cls-5" points="80.67 463.31 92.17 456.91 92.17 454.62 80.67 461.02 80.67 463.31"/>
      <polygon class="cls-5" points="95.17 455.24 106.67 448.83 106.67 446.54 95.17 452.94 95.17 455.24"/>
      <polygon class="cls-5" points="95.17 391.83 106.67 385.43 106.67 383.14 95.17 389.54 95.17 391.83"/>
      <polygon class="cls-5" points="80.67 399.91 92.17 393.5 92.17 391.21 80.67 397.62 80.67 399.91"/>
      <polygon class="cls-5" points="109.67 383.75 119.67 378.18 119.67 375.89 109.67 381.46 109.67 383.75"/>
      <polygon class="cls-5" points="109.67 447.16 119.67 441.58 119.67 439.29 109.67 444.87 109.67 447.16"/>
      <polygon class="cls-5" points="72.67 437.13 70.67 438.24 70.67 447.15 72.67 446.04 72.67 437.13"/>
      <polygon class="cls-5" points="72.67 449.13 70.67 450.24 70.67 458.59 72.67 457.48 72.67 449.13"/>
      <polygon class="cls-5" points="72.67 426.13 70.67 427.24 70.67 435.15 72.67 434.04 72.67 426.13"/>
      <path class="cls-5" d="M207.67,527.08v-4.9l-2,1.11v3.88a1.9,1.9,0,0,0,.9,1.71,1.84,1.84,0,0,0,.94.25,2.64,2.64,0,0,0,1.28-.36l3.89-2.17V524.3L207.81,527Z" transform="translate(-135 -61.61)"/>
      <polygon class="cls-5" points="72.67 413.57 70.67 414.68 70.67 424.15 72.67 423.04 72.67 413.57"/>
      <path class="cls-5" d="M205.67,467v6.18l2-1.11V467a2.34,2.34,0,0,1,1.11-1.66l3.89-2.17V460.9l-4.86,2.71A4.27,4.27,0,0,0,205.67,467Z" transform="translate(-135 -61.61)"/>
      <polygon class="cls-5" points="126.67 415.95 128.67 414.83 128.67 405.92 126.67 407.04 126.67 415.95"/>
      <polygon class="cls-5" points="126.67 427.39 128.67 426.28 128.67 417.92 126.67 419.04 126.67 427.39"/>
      <polygon class="cls-5" points="126.67 403.95 128.67 402.83 128.67 394.92 126.67 396.04 126.67 403.95"/>
      <polygon class="cls-5" points="126.67 392.95 128.67 391.83 128.67 382.37 126.67 383.48 126.67 392.95"/>
      <path class="cls-5" d="M261.67,496a2.34,2.34,0,0,1-1.11,1.66l-2.89,1.61v2.29l3.86-2.15a4.27,4.27,0,0,0,2.14-3.41v-5l-2,1.11Z" transform="translate(-135 -61.61)"/>
      <path class="cls-5" d="M262.77,434.11a2.21,2.21,0,0,0-2.22.11h0l-2.89,1.61v2.29l3.86-2.15.14-.07V442l2-1.11v-5.07A1.9,1.9,0,0,0,262.77,434.11Z" transform="translate(-135 -61.61)"/>
    </g>
    <path class="cls-1" d="M406,396.46l-53.8,30A3.37,3.37,0,0,0,350.5,429v61.35c0,.91.75,1.24,1.66.73l53.8-30a3.37,3.37,0,0,0,1.66-2.58V397.19C407.61,396.28,406.87,395.95,406,396.46Z" transform="translate(-135 -61.61)"/>
    <g>
      <polygon class="cls-3" points="255 370.72 250.67 379.72 242.67 365.72 225 412.06 267.33 390.06 255 370.72"/>
      <path class="cls-3" d="M392.84,425.45c1.86-.81,3.36-3.61,3.36-6.25s-1.51-4.14-3.36-3.33-3.36,3.61-3.36,6.25S391,426.25,392.84,425.45Z" transform="translate(-135 -61.61)"/>
    </g>
    <path class="cls-3" d="M286.28,502.75c-2.49,1.08-4.5,4.83-4.5,8.37s2,5.54,4.5,4.46,4.5-4.83,4.5-8.37S288.76,501.67,286.28,502.75Z" transform="translate(-135 -61.61)"/>
    <path class="cls-5" d="M398.26,461.21c-4.64,2-8.4,9-8.4,15.63s3.76,10.34,8.4,8.33,8.4-9,8.4-15.63S402.9,459.2,398.26,461.21Z" transform="translate(-135 -61.61)"/>
    <path class="cls-1" d="M406,323.46l-53.8,30A3.37,3.37,0,0,0,350.5,356v61.35c0,.91.75,1.24,1.66.73l53.8-30a3.37,3.37,0,0,0,1.66-2.58V324.19C407.61,323.28,406.87,322.95,406,323.46Z" transform="translate(-135 -61.61)"/>
    <g>
      <polygon class="cls-3" points="255 297.72 250.67 306.72 242.67 292.72 225 339.06 267.33 317.06 255 297.72"/>
      <path class="cls-3" d="M392.84,352.45c1.86-.81,3.36-3.61,3.36-6.25s-1.51-4.14-3.36-3.33-3.36,3.61-3.36,6.25S391,353.25,392.84,352.45Z" transform="translate(-135 -61.61)"/>
    </g>
  </g>
</svg>
