<svg id="Слой_1" data-name="Слой 1" xmlns="http://www.w3.org/2000/svg" width="534" height="591.5" viewBox="0 0 534 591.5">
  <defs>
    <style>
      .cls-1 {
        fill: #f2f2f2;
      }

      .cls-2 {
        fill: #00ce2c;
      }

      .cls-3 {
        fill: #d5d5d5;
      }

      .cls-4 {
        fill: #fff;
      }

      .cls-5 {
        fill: #0081cb;
      }
    </style>
  </defs>
  <title>6. </title>
  <g>
    <rect class="cls-1" y="57.5" width="534" height="534"/>
    <path class="cls-2" d="M282.11,219.11H165.5V102.5H282.11Zm-87.61-29h58.61V131.5H194.5Z" transform="translate(-133.33 -102.5)"/>
    <path class="cls-3" d="M440.35,231.92,245.67,340.39c-3.3,1.84-6,6-6,9.35v222c0,3.3,2.7,4.49,6,2.65L440.35,465.92c3.3-1.84,6-6,6-9.35v-222C446.35,231.27,443.65,230.07,440.35,231.92Z" transform="translate(-133.33 -102.5)"/>
    <path class="cls-4" d="M498.85,269.92,304.17,378.39c-3.3,1.84-6,6-6,9.35v222c0,3.3,2.7,4.49,6,2.65L498.85,503.92c3.3-1.84,6-6,6-9.35v-222C504.85,269.27,502.15,268.07,498.85,269.92Z" transform="translate(-133.33 -102.5)"/>
    <g>
      <path class="cls-3" d="M313.67,388.48c-1.41.61-2.56,2.74-2.56,4.76s1.14,3.15,2.56,2.53,2.56-2.74,2.56-4.76S315.08,387.86,313.67,388.48Z" transform="translate(-133.33 -102.5)"/>
      <path class="cls-3" d="M333.17,379c-1.41.61-2.56,2.74-2.56,4.76s1.14,3.15,2.56,2.53,2.56-2.74,2.56-4.76S334.58,378.41,333.17,379Z" transform="translate(-133.33 -102.5)"/>
      <path class="cls-3" d="M323.42,384c-1.41.61-2.56,2.74-2.56,4.76s1.14,3.15,2.56,2.53,2.56-2.74,2.56-4.76S324.83,383.41,323.42,384Z" transform="translate(-133.33 -102.5)"/>
    </g>
    <path class="cls-3" d="M527.6,284l-92.26,51.4a5.77,5.77,0,0,0-2.85,4.43V445c0,1.56,1.28,2.13,2.85,1.26l92.26-51.4a5.77,5.77,0,0,0,2.85-4.43V285.22C530.45,283.65,529.17,283.09,527.6,284Z" transform="translate(-133.33 -102.5)"/>
    <path class="cls-5" d="M558.93,295.63,466.68,347a5.77,5.77,0,0,0-2.85,4.43V456.67c0,1.56,1.28,2.13,2.85,1.26l92.26-51.4a5.77,5.77,0,0,0,2.85-4.43V296.88C561.78,295.32,560.5,294.75,558.93,295.63Z" transform="translate(-133.33 -102.5)"/>
    <g>
      <polygon class="cls-3" points="206.17 433.33 206.17 435.61 260.83 405.38 260.83 403.09 206.17 433.33"/>
      <polygon class="cls-3" points="206.17 444.86 260.83 414.63 260.83 412.34 206.17 442.58 206.17 444.86"/>
      <polygon class="cls-3" points="206.17 454.11 245.33 432.45 245.33 430.17 206.17 451.83 206.17 454.11"/>
    </g>
    <g>
      <polygon class="cls-3" points="301.5 386 301.5 388.28 356.17 358.05 356.17 355.76 301.5 386"/>
      <polygon class="cls-3" points="301.5 397.53 356.17 367.3 356.17 365.01 301.5 395.25 301.5 397.53"/>
      <polygon class="cls-3" points="301.5 406.78 340.67 385.12 340.67 382.83 301.5 404.5 301.5 406.78"/>
    </g>
    <path class="cls-3" d="M357.08,483a20.18,20.18,0,0,1-11.34-3.42c-7.66-5.11-12-15.24-12-27.79,0-21.71,12.77-44,29.07-50.79,7.44-3.09,14.85-2.58,20.86,1.43,7.66,5.11,12,15.24,12,27.79,0,21.71-12.77,44-29.07,50.79A24.84,24.84,0,0,1,357.08,483Zm15.19-74a15,15,0,0,0-5.67,1.23c-12.42,5.15-22.91,24.18-22.91,41.55,0,9,2.84,16.29,7.6,19.47,4,2.68,8.46,1.76,11.47.51,12.42-5.15,22.91-24.18,22.91-41.55,0-9-2.84-16.29-7.6-19.47A10.25,10.25,0,0,0,372.27,409Z" transform="translate(-133.33 -102.5)"/>
    <path class="cls-5" d="M374.63,462c-3.49,4.48-7.56,7.94-11.87,9.73-3,1.25-7.45,2.18-11.47-.51-4.76-3.18-7.6-10.46-7.6-19.47,0-.08,0-.15,0-.23l-9.87,3.77c.75,10.9,5,19.62,11.92,24.24A20.18,20.18,0,0,0,357.08,483a24.84,24.84,0,0,0,9.52-2A37,37,0,0,0,378,473.27Z" transform="translate(-133.33 -102.5)"/>
    <path class="cls-1" d="M551.58,395.85V378.59c-2.3,4.2-4.41,7.94-5.25,9.16-2.25,3.25-7,.75-8-.5s-2.25-11.25-3-13.25-1.25-1-2.5.5-1.75,7-2.25,15.25-4.75,10.5-6.5,10-2.25-5.75-4.25-5.25-2.5,5.75-3.5,9-5,2-5.75-.5,0-12-.5-13.75-1.75-.25-2.25,3-.25,9.5-1,15-5.75,5.5-6.25,4.25-1.75-3.75-4-2.75-3,4.25-4.25,7.25-4.5,4.25-5.5,3.25-1.25-9.5-1.5-12.5-2-3-3.25-.5-1.5,8.5-1.75,12.75a7,7,0,0,1-3,5.6v12.62Z" transform="translate(-133.33 -102.5)"/>
  </g>
</svg>
